<svg width="22" height="21" viewBox="0 0 22 21" fill="none" xmlns="http://www.w3.org/2000/svg">
<path fill-rule="evenodd" clip-rule="evenodd" d="M3.72618 0H17.3158C19.3761 0 21.0419 1.66582 21.0419 3.72618V16.7897C21.0419 18.8501 19.3761 20.5159 17.3158 20.5159H3.72618C1.66582 20.5159 0 18.8501 0 16.7897V3.72618C0 1.66582 1.66582 0 3.72618 0ZM8.45193 12.2745H5.19043L4.5241 14.3436C4.50656 14.4225 4.43642 14.4751 4.35752 14.4663H2.70923C2.61279 14.4663 2.58649 14.4137 2.61279 14.3085L5.43591 6.21613C5.46222 6.12846 5.48852 6.04955 5.52359 5.94434C5.55866 5.76022 5.57619 5.56734 5.57619 5.37445C5.56743 5.33062 5.6025 5.28678 5.64633 5.27801H5.67264H7.91711C7.97848 5.27801 8.02232 5.30431 8.03109 5.34815L11.2312 14.291C11.2575 14.3874 11.2312 14.4313 11.1435 14.4313H9.31114C9.24976 14.44 9.18839 14.3962 9.17086 14.3348L8.45193 12.2306V12.2745ZM5.69894 10.5297H7.92588C7.87327 10.3456 7.80313 10.1264 7.72422 9.89847C7.64532 9.66175 7.56641 9.40749 7.4875 9.14447C7.44367 9.00857 7.40202 8.87487 7.36037 8.74116C7.31873 8.60746 7.27708 8.47375 7.23325 8.33786C7.14557 8.06607 7.06666 7.81181 6.99652 7.55755C6.96549 7.44892 6.93616 7.34371 6.9078 7.24195C6.87207 7.11375 6.83785 6.99099 6.80364 6.87369H6.78611C6.7072 7.25069 6.61076 7.62769 6.48801 8.00469C6.43794 8.16493 6.38786 8.32771 6.33731 8.49207L6.33725 8.49225L6.33724 8.49229C6.25503 8.75951 6.17155 9.0309 6.08471 9.30228C5.97073 9.74942 5.83045 10.1615 5.69894 10.5297ZM13.616 11.4854H16.3953C16.5127 11.4854 16.6256 11.4947 16.7349 11.5037C16.8378 11.5122 16.9376 11.5204 17.0353 11.5204C17.2369 11.5204 17.4035 11.5117 17.5438 11.4941C17.593 11.4911 17.6369 11.488 17.6753 11.4853C17.7464 11.4803 17.799 11.4766 17.8331 11.4766C17.8945 11.4766 17.9471 11.424 17.9559 11.3626C17.9598 11.3275 17.9637 11.2836 17.9684 11.2311C17.9742 11.1657 17.9812 11.0868 17.9909 10.9944C17.9997 10.8278 18.0085 10.6437 18.0085 10.4333C18.0085 10.0738 17.9559 9.71434 17.8419 9.36364C17.7279 8.99541 17.5438 8.66224 17.3159 8.36415C17.0704 8.05729 16.7547 7.82057 16.3953 7.66275C15.9657 7.46987 15.501 7.38219 15.0363 7.39096C14.4752 7.39096 13.9842 7.4611 13.5721 7.66275C13.1601 7.8644 12.8006 8.14496 12.5113 8.49566C12.2132 8.85513 11.994 9.25843 11.8537 9.69681C11.7047 10.1527 11.6345 10.6174 11.6345 11.0908C11.6345 11.5292 11.6959 11.9588 11.8186 12.3709C11.9414 12.7917 12.143 13.1775 12.4236 13.5194C12.7217 13.8789 13.0987 14.1682 13.5283 14.3523C13.9842 14.554 14.5453 14.6592 15.2117 14.6592C15.6325 14.668 16.0446 14.6329 16.4566 14.554C16.7635 14.5014 17.0528 14.4137 17.3334 14.291C17.3597 14.2734 17.3772 14.2559 17.3948 14.2296C17.4035 14.1945 17.4123 14.1594 17.4123 14.1244V12.783C17.4123 12.6953 17.386 12.6777 17.3422 12.7128C17.0967 12.8093 16.8336 12.8794 16.5619 12.9145C16.2638 12.9758 15.9569 13.0021 15.65 13.0109C15.2643 13.0197 14.8785 12.9408 14.5278 12.7917C14.2648 12.6865 14.0456 12.5024 13.8878 12.2657C13.7387 12.029 13.6511 11.7572 13.616 11.4854ZM15.4659 10.2053H13.616C13.6423 9.98613 13.7037 9.77571 13.8089 9.57406C14.0368 9.13569 14.4927 8.88143 14.9749 8.90773C15.4922 8.8902 15.9569 9.22336 16.1147 9.71434C16.1498 9.81955 16.1673 9.92476 16.1673 10.0387V10.1264C16.1059 10.1702 16.0358 10.1878 15.9657 10.1966C15.8605 10.2053 15.6939 10.2053 15.466 10.2053H15.4659Z" fill="#E83C1F"/>
</svg>
