<svg width="888" height="1013" viewBox="0 0 888 1013" fill="none" xmlns="http://www.w3.org/2000/svg">
<path d="M524.764 566.946C540.871 555.463 551.023 524.073 551.455 522.72L547.138 521.336C547.027 521.638 536.995 552.648 522.152 563.215L524.764 566.946Z" fill="#E83C1F"/>
<path d="M570.361 339.46C573.837 338.173 576.087 334.581 578.851 330.164C579.482 329.147 580.165 328.074 580.882 326.988C585.297 320.282 584.28 307.869 582.507 303.081C580.698 298.195 572.991 296.314 572.1 296.122L571.486 295.976L570.92 296.26C570.453 296.508 559.605 302.054 550.926 308.623C543.856 314.001 543.206 326.845 544.45 333.73C545.074 337.227 546.155 339.139 547.708 339.608C551.093 340.592 564.234 340.536 568.694 339.891C569.3 339.816 569.837 339.654 570.361 339.46ZM571.929 299.69C574.051 300.284 578.354 301.935 579.228 304.296C580.564 307.903 581.736 319.326 577.943 325.093C577.206 326.224 576.522 327.297 575.892 328.314C573.107 332.776 571.055 335.996 568.193 336.422C564.02 337.035 551.938 337.035 548.904 336.294C548.188 335.366 547.15 331.052 547.513 325.287C547.908 318.802 549.922 313.768 553.03 311.387C560.383 305.867 569.559 300.941 571.929 299.69Z" fill="#E83C1F"/>
<path d="M722.848 285.231L765.667 278.92C766.404 278.797 766.902 278.127 766.79 277.423L766.567 276.014C766.443 275.277 765.774 274.779 765.069 274.891L722.251 281.201C721.513 281.325 721.015 281.994 721.127 282.698L721.351 284.107C721.442 284.857 722.111 285.355 722.848 285.231Z" fill="#E83C1F"/>
<path d="M676.775 214.18L691.545 173.511C691.81 172.817 691.453 172.054 690.759 171.789L689.426 171.313C688.732 171.048 687.969 171.405 687.704 172.1L672.934 212.769C672.669 213.464 673.026 214.226 673.721 214.491L675.053 214.967C675.76 215.265 676.522 214.908 676.775 214.18Z" fill="#E83C1F"/>
<path d="M704.415 242.501L751.616 205.633C752.199 205.193 753.054 205.287 753.493 205.87L754.361 207.003C754.8 207.586 754.707 208.441 754.124 208.88L706.922 245.749C706.339 246.188 705.485 246.095 705.045 245.512L704.178 244.379C703.738 243.796 703.844 242.973 704.415 242.501Z" fill="#E83C1F"/>
<path d="M692.995 312.357C692.995 312.357 692.995 312.357 705.499 317.123C718.003 321.889 726.997 338.023 730.68 347.062C734.363 356.102 728.602 368.638 728.602 368.638C732.799 369.097 730.143 370.081 736.646 374.049C743.15 378.017 751.631 393.67 751.892 401.627C752.154 409.584 744.601 419.093 746.47 421.421C748.339 423.749 756.525 430.45 757.509 433.106C758.492 435.762 758.535 452.19 757.628 457.896C756.72 463.601 747.932 468.869 749.32 471.711C750.708 474.553 756.708 484.412 756.708 484.412C753.001 516.995 747.809 516.569 739.808 518.525C731.807 520.481 728.649 513.968 728.649 513.968C581.7 603.994 565.181 615.07 565.181 615.07C565.181 615.07 557.846 626.176 547.55 630.996C537.253 635.816 516.749 633.005 516.749 633.005C501.842 667.161 457.973 737.051 396.701 804.792C305.741 905.355 190.701 1004.79 190.701 1004.79L123.701 821.292C123.701 821.292 379.391 569.396 394.76 549.274C410.129 529.152 428.133 504.364 436.803 465.245C445.473 426.127 451.103 400.55 463.663 382.811C476.223 365.072 485.175 355.717 492.128 340.054C499.08 324.391 498.327 319.637 503.857 318.26C509.388 316.883 518.635 316.479 534.965 313.452C551.295 310.426 564.99 300.283 574.254 296.704C583.518 293.124 590.557 292.195 595.235 301.202C599.912 310.209 605.685 327.61 591.654 343.694C577.612 359.744 559.718 384.828 542.929 382.991C542.929 382.991 543.606 397.506 537.998 408.644C532.39 419.781 520.869 435.793 513.534 436.831" fill="#F4E8D2"/>
<path d="M189.468 1012.68L193.349 1008.26C193.617 1007.98 403.523 810.176 434.299 769.732C462.244 733.022 499.347 680.466 518.931 636.784C524.658 637.347 538.328 638.214 547.346 634.875C547.936 634.656 548.514 634.405 549.059 634.166C558.778 629.598 565.946 620.157 567.721 617.598C571.533 615.105 598.079 598.078 727.816 518.565C730.368 521.125 734.668 523.374 740.682 521.892C741.055 521.792 741.44 521.724 741.813 521.623C745.655 520.722 750.014 519.704 753.324 514.042C756.394 508.84 758.498 499.82 760.226 484.75L760.342 483.552L759.699 482.522C758.203 480.093 754.411 473.778 752.9 470.907C753.386 470.205 754.41 469.043 755.125 468.256C757.493 465.59 760.482 462.283 761.084 458.368C761.971 452.708 762.156 435.487 760.796 431.814C759.946 429.519 757.203 426.843 752.796 422.696C751.667 421.66 750.513 420.558 749.792 419.818C750.09 418.813 750.863 417.072 751.45 415.737C753.284 411.627 755.56 406.496 755.372 401.457C755.063 392.063 745.89 375.548 738.46 370.991C735.851 369.384 735.069 368.481 734.528 367.824C734.067 367.286 733.643 366.846 733.133 366.475C734.745 361.665 736.836 352.911 733.899 345.684C732.177 341.437 722.705 319.887 706.728 313.796L694.224 309.03L691.729 315.585L704.233 320.351C714.53 324.294 723.175 337.872 727.425 348.342C729.953 354.565 726.824 364.039 725.4 367.139L723.376 371.543L728.195 372.07C728.617 372.101 728.862 372.159 729.017 372.176C729.074 372.229 729.099 372.295 729.144 372.316C729.926 373.219 731.204 374.759 734.785 376.976C740.136 380.252 748.127 394.781 748.377 401.698C748.489 405.124 746.585 409.447 745.028 412.894C743.049 417.319 741.504 420.799 743.719 423.558C744.55 424.593 746.046 426.015 747.974 427.8C749.927 429.649 753.58 433.07 754.217 434.288C754.826 436.635 755.075 451.607 754.168 457.313C753.865 459.215 751.678 461.665 749.906 463.626C747.237 466.591 744.474 469.702 746.183 473.208C747.38 475.636 751.502 482.537 753.103 485.151C751.555 498.29 749.697 506.361 747.265 510.468C745.464 513.559 743.575 513.997 740.171 514.773C739.798 514.874 739.38 514.954 738.975 515.067C733.772 516.322 731.889 512.545 731.795 512.394L730.099 508.92L726.812 510.92C581.467 599.942 563.886 611.672 563.225 612.103L562.663 612.498L562.284 613.086C562.21 613.188 555.312 623.461 546.061 627.781C538.401 631.363 522.621 630.234 517.197 629.483L514.563 629.116L513.513 631.519C494.532 675.015 456.922 728.318 428.722 765.347C404.946 796.598 200.345 989.19 191.918 999.059L126.384 822.085C136.82 810.091 383.273 570.009 397.56 551.295C414.488 529.142 431.747 504.256 440.254 465.906L440.359 465.383C448.857 427.11 454.442 401.812 466.536 384.73C470.089 379.723 473.279 375.447 476.373 371.318C484.089 361.041 490.217 352.918 495.335 341.365C497.694 336.054 499.184 331.922 500.302 328.898C502.575 322.65 502.995 321.972 504.707 321.562C507.067 320.987 510.195 320.574 514.581 320.031C519.957 319.345 526.677 318.46 535.618 316.827C547.131 314.689 557.275 309.255 565.429 304.893C569.322 302.818 572.681 301.015 575.522 299.926C585.278 296.164 589.016 296.793 592.122 302.765C597.319 312.772 601.015 327.587 589.02 341.313C586.919 343.694 584.801 346.231 582.555 348.927C570.632 363.149 555.801 380.797 543.332 379.448L539.258 379.018L539.458 383.083C539.474 383.226 540.011 396.861 534.89 406.998C528.42 419.834 517.821 432.597 513.054 433.318L514.044 440.222C518.295 439.617 523.378 435.722 529.153 428.661C533.534 423.273 538.019 416.354 541.168 410.155C545.393 401.729 546.314 391.73 546.483 386.447C548.625 386.288 550.775 385.753 552.874 384.976C565.335 380.362 577.184 366.242 587.947 353.419C590.172 350.768 592.29 348.231 594.338 345.906C609.68 328.33 603.456 309.307 598.377 299.517C595.66 294.295 591.801 291.325 586.945 290.699C582.323 290.099 577.332 291.723 573.06 293.38C569.826 294.614 566.282 296.523 562.172 298.716C554.453 302.843 544.842 308.005 534.406 309.93C525.654 311.568 519.065 312.405 513.766 313.099C509.139 313.694 505.822 314.102 503.102 314.811C497.604 316.176 496.184 320.094 493.808 326.567C492.682 329.669 491.271 333.51 489.015 338.596C484.227 349.43 478.322 357.248 470.861 367.207C467.894 371.177 464.523 375.669 460.897 380.778C447.999 399.015 442.245 424.861 433.575 463.98L433.47 464.503C424.6 504.591 405.009 530.228 392.047 547.184C376.933 566.987 120.518 818.328 119.794 819.193L118.429 820.742L189.501 1012.67L189.468 1012.68Z" fill="#E83C1F"/>
<path d="M729.397 518.203C733.724 542.777 737.198 561.924 738.788 569.24C744.645 595.932 746.59 606.622 747.038 614.175C747.485 621.728 745.812 634.429 739.167 638.232C739.167 638.232 650.81 691.944 579.038 658.935C579.038 658.935 573.256 658.727 571.409 651.021C571.409 651.021 514.044 321.199 514.974 301.055C515.904 280.911 525.393 257.597 546.489 242.067C546.489 242.067 537.693 195.656 534.34 151.258C530.987 106.859 531.028 76.1563 531.028 76.1563C531.028 76.1563 521.556 68.7013 522.299 67.0837C523.042 65.4661 527.044 50.8964 526.65 48.0217C526.257 45.147 518.092 42.1298 518.038 37.4517C517.996 32.8064 519.942 25.3739 526.019 25.4727C532.096 25.5714 579.315 17.147 579.315 17.147C579.315 17.147 587.589 20.4593 587.534 24.8423C587.479 29.2253 590.583 35.7945 587.337 36.9967C584.09 38.1988 593.763 50.7254 595.314 58.5406C596.866 66.3557 592.581 69.2848 592.581 69.2848C592.581 69.2848 611.99 123.511 615.607 139.622C619.224 155.733 635.485 214.145 632.259 228.092C632.259 228.092 652.546 230.312 667.923 252.807C683.301 275.302 688.874 290.354 695.692 325.079C696.426 328.872 697.471 334.414 698.707 341.376" fill="#F4E8D2"/>
<path d="M702.668 659.093C724.966 650.836 739.798 641.95 740.959 641.259C749.504 636.343 751.017 621.799 750.55 613.993C750.083 606.186 748.07 595.111 742.217 568.53C740.774 562.017 737.737 545.355 732.841 517.636C732.514 515.744 730.702 514.476 728.81 514.804C726.917 515.132 725.649 516.943 725.977 518.836C730.876 546.665 733.95 563.425 735.396 570.049C741.149 596.257 743.13 607.046 743.562 614.455C744.044 622.704 741.895 632.71 737.443 635.29C737.411 635.302 737.378 635.314 737.345 635.327C737.128 635.444 715.149 648.692 684.834 657.755C657.105 666.047 616.512 672.428 580.475 655.867C580.026 655.661 579.69 655.561 579.171 655.567C578.659 655.496 575.92 654.944 574.809 650.434C554.971 536.445 517.732 316.962 518.435 301.339C519.443 279.19 530.699 258.131 548.544 244.997C549.624 244.187 550.165 242.831 549.913 241.545C549.821 241.094 541.106 194.803 537.832 151.121C534.534 107.373 534.55 76.6046 534.551 76.3059C534.56 75.2214 534.073 74.2085 533.232 73.5502C530.291 71.2462 527.302 68.5122 526.084 67.1362C527.531 62.6852 530.624 51.0994 530.159 47.7292C529.785 45.1084 527.627 43.4092 525.355 41.6032C524.037 40.5623 521.606 38.6287 521.561 37.6013C521.522 35.0801 522.249 31.6043 523.876 29.9576C524.476 29.3625 525.12 29.0869 525.951 29.1149C531.857 29.0533 570.753 22.2193 578.903 20.7673C581.791 22.1216 584.046 24.0831 584.047 24.7911C584.031 26.6614 584.404 28.5742 584.765 30.4542C584.977 31.5315 585.298 33.2026 585.327 34.0867C584.502 34.5785 583.852 35.3412 583.496 36.2933C582.375 39.2067 584.158 42.611 587.122 48.2997C589.059 52.0197 591.256 56.2401 591.874 59.218C592.832 64.1209 590.884 66.1101 590.551 66.4198C589.152 67.2734 588.707 68.8923 589.29 70.4663C589.484 70.9909 608.654 124.671 612.203 140.398C612.918 143.638 614.166 148.62 615.628 154.38C621.083 176.261 631.274 216.972 628.882 227.329C628.649 228.31 628.87 229.31 629.439 230.143C630.009 230.976 630.911 231.5 631.909 231.577C631.942 231.565 636.708 232.15 643.141 235.323C649.055 238.205 657.663 243.929 665.079 254.793C679.887 276.455 685.478 291.052 692.297 325.777C692.99 329.361 694.011 334.837 695.287 342.009C695.615 343.901 697.427 345.169 699.352 344.829C701.244 344.501 702.512 342.689 702.172 340.764C700.847 333.462 699.875 328.117 699.145 324.435C692.102 288.599 686.271 273.457 670.825 250.875C658.388 232.697 642.933 227.01 636.118 225.321C636.792 211.834 629.764 182.183 622.388 152.697C620.938 146.97 619.714 142.054 619.023 138.879C615.756 124.316 600.201 80.2968 596.593 70.1485C598.383 67.7331 599.885 63.6343 598.755 57.8631C597.949 53.8735 595.504 49.1856 593.344 45.0635C592.329 43.1276 591.03 40.6257 590.471 39.1173C591.437 38.2005 592.286 36.7675 592.308 34.4102C592.351 32.716 591.97 30.8809 591.613 29.1114C591.308 27.5836 590.992 26.023 591.021 24.8936C591.096 18.452 582.362 14.6017 580.613 13.9069C579.997 13.6506 579.342 13.5947 578.715 13.7149C559.863 17.0791 530.265 22.036 526.07 21.986C523.336 21.9542 520.868 22.9427 518.929 24.8541C515.629 28.1269 514.502 33.5409 514.522 37.5232C514.565 41.8697 518.257 44.7907 520.95 46.9259C521.688 47.5101 522.732 48.3166 523.148 48.834C522.992 51.8373 519.89 63.7997 519.067 65.7075C517.663 68.763 520.459 71.6804 523.994 74.8831C525.282 76.0466 526.579 77.1324 527.501 77.9098C527.533 84.9452 527.916 113.366 530.811 151.595C533.733 190.299 540.871 231.022 542.615 240.667C533.069 248.117 525.443 257.43 519.983 268.363C514.887 278.565 511.939 289.837 511.41 300.995C510.462 321.295 565.556 638.236 567.903 651.723C567.927 651.788 567.919 651.866 567.943 651.932C569.955 660.285 575.788 662.04 577.98 662.422C594.737 670.013 613.687 673.66 634.361 673.201C650.934 672.844 668.626 669.872 686.955 664.389C692.553 662.69 697.782 660.902 702.668 659.093ZM525.531 68.4599C525.51 68.5048 525.522 68.5376 525.489 68.5498C525.489 68.5498 525.51 68.5048 525.531 68.4599Z" fill="#E83C1F"/>
<path d="M728.228 565.73C726.762 558.685 723.551 540.273 719.549 516.647L710.157 470.483L711.224 446.169L696.082 432.474L695.154 411.836L706.986 389.411L694.869 369.14L691.156 346.66C690.013 339.966 689.047 334.635 688.37 330.986C682.076 297.575 676.974 282.997 662.959 260.951C648.943 238.906 625.981 231.835 625.981 231.835C628.074 204.624 615.859 165.76 611.635 147.768C607.412 129.776 597.27 128.941 590.966 129.183C576.6 125.238 553.06 136.936 542.044 150.248C541.194 188.748 554.542 244.023 554.542 244.023C535.462 258.08 525.201 282.214 524.421 301.417C524.346 303.27 524.773 307.896 525.604 314.744C526.181 319.496 535.383 313.223 546.031 310.223L550.957 309.132C561.29 305.306 590.594 289.535 591.946 298.57L597.452 323.859C597.396 328.314 596.75 332.501 595.637 336.423L578.89 359.634L542.274 382.005C543.298 388.635 541.426 397.845 539.307 407.862C554.767 506.57 576.713 637.688 576.713 637.688C578.412 645.115 583.656 645.526 583.656 645.526C648.843 679.68 728.791 631.628 728.791 631.628C734.805 628.239 736.282 616.172 735.852 608.943C735.422 601.714 733.624 591.434 728.228 565.73Z" fill="#E83C1F"/>
<path d="M394.826 549.25C410.195 529.128 428.198 504.34 436.868 465.221C445.538 426.102 451.169 400.526 463.729 382.787C476.289 365.048 485.241 355.692 492.193 340.03C499.146 324.367 498.392 319.613 503.923 318.236C509.454 316.859 518.701 316.455 535.03 313.428C551.36 310.402 565.055 300.259 574.319 296.679C583.583 293.1 590.623 292.171 595.3 301.178C599.978 310.185 605.75 327.586 591.72 343.669C577.677 359.72 559.783 384.804 542.994 382.967C542.994 382.967 543.671 397.482 538.063 408.619C532.456 419.757 520.934 435.769 513.6 436.807" fill="#F4E8D2"/>
<path d="M396.04 552.528C396.63 552.31 397.193 551.915 397.596 551.393C414.524 529.24 431.783 504.354 440.29 466.004L440.395 465.481C448.881 427.176 454.478 401.91 466.605 384.816C470.158 379.809 473.347 375.533 476.442 371.404C484.158 361.126 490.286 353.003 495.404 341.45C497.763 336.14 499.253 332.008 500.371 328.984C502.643 322.736 503.064 322.058 504.776 321.648C507.136 321.072 510.264 320.66 514.65 320.117C520.026 319.431 526.746 318.546 535.687 316.913C547.2 314.775 557.344 309.341 565.498 304.979C569.39 302.904 572.75 301.101 575.59 300.011C585.334 296.217 589.085 296.879 592.191 302.851C597.388 312.858 601.084 327.672 589.089 341.399C586.988 343.78 584.87 346.317 582.624 349.013C570.677 363.169 555.858 380.85 543.389 379.501L539.315 379.071L539.515 383.136C539.531 383.279 540.068 396.914 534.947 407.051C528.477 419.887 517.89 432.682 513.111 433.371C511.194 433.633 509.869 435.391 510.131 437.308C510.393 439.224 512.185 440.537 514.068 440.287C518.319 439.683 523.402 435.787 529.177 428.726C533.558 423.338 538.043 416.419 541.192 410.22C545.417 401.794 546.338 391.795 546.507 386.512C561.271 385.296 575.398 368.468 587.971 353.484C590.196 350.833 592.327 348.329 594.329 345.984C609.672 328.408 603.447 309.384 598.368 299.594C595.651 294.373 591.792 291.402 586.937 290.776C582.314 290.176 577.323 291.8 573.051 293.457C569.817 294.692 566.273 296.601 562.163 298.794C554.444 302.92 544.834 308.082 534.398 310.008C525.645 311.645 519.056 312.482 513.758 313.176C509.13 313.771 505.814 314.179 503.093 314.888C497.595 316.253 496.175 320.172 493.8 326.645C492.674 329.746 491.262 333.588 489.007 338.674C484.218 349.508 478.313 357.325 470.852 367.284C467.885 371.254 464.515 375.746 460.888 380.855C447.99 399.092 442.236 424.938 433.566 464.057L433.462 464.58C424.591 504.668 405 530.305 392.039 547.261C390.862 548.815 391.143 550.986 392.698 552.163C393.681 552.805 394.958 552.929 396.04 552.528Z" fill="#E83C1F"/>
<path d="M716.981 448.524C717.735 448.245 718.486 447.855 719.179 447.411C724.949 443.56 747.545 423.82 748.502 422.981C749.964 421.693 750.124 419.509 748.837 418.046C747.55 416.584 745.365 416.423 743.903 417.711C735.901 424.701 719.612 438.712 715.27 441.588C714.318 442.239 713.172 442.365 711.753 441.958C708.515 441.069 703.641 437.169 699.66 428.836C695.274 419.61 700.029 410.802 702.562 406.06C703.02 405.182 703.416 404.439 703.738 403.798C704.951 401.335 718.584 385.287 731.064 371.157C732.322 369.722 732.216 367.523 730.781 366.265C729.366 364.962 727.168 365.068 725.865 366.482C719.657 373.181 711.792 380.941 709.585 382.131C708.993 381.94 705.185 380.218 697.719 364.787C691.879 352.742 704.922 342.953 705.041 342.872C706.596 341.736 706.933 339.524 705.765 337.98C704.629 336.424 702.417 336.088 700.873 337.256C700.7 337.394 696.435 340.577 693.111 345.798C688.526 353.052 687.925 360.694 691.403 367.871C697.255 379.948 702.179 386.701 706.767 388.618C702.041 394.284 698.121 399.203 697.348 400.944C697.142 401.393 696.787 402.046 696.359 402.802C693.439 408.208 687.36 419.483 693.3 431.9C697.601 440.897 703.612 447.061 709.842 448.781C712.451 449.381 714.85 449.313 716.981 448.524Z" fill="#E83C1F"/>
<path d="M749.319 471.711C749.319 471.711 733.837 485.685 725.377 482.777C716.917 479.869 706.571 466.026 707.422 459.968C708.295 453.866 714.55 445.583 714.55 445.583" fill="#F4E8D2"/>
<path d="M734.554 485.307C736.981 484.409 739.581 483.073 742.421 481.276C747.525 478.043 751.522 474.437 751.695 474.299L747.01 469.098C741.218 474.301 731.048 480.975 726.561 479.43C723.316 478.32 719.164 474.861 715.72 470.394C711.918 465.463 710.763 461.639 710.944 460.417C711.535 456.171 715.805 449.779 717.406 447.658L711.824 443.46C711.125 444.39 704.98 452.669 704.019 459.438C702.869 467.509 714.442 482.65 724.279 486.055C727.111 487.057 730.554 486.789 734.554 485.307Z" fill="#E83C1F"/>
<path d="M728.649 513.968C728.649 513.968 716.968 506.288 719.543 495.117C722.119 483.947 723.04 481.703 723.04 481.703C723.04 481.703 728.003 483.222 729.886 482.972C731.77 482.722 739.294 479.376 743.637 476.202C747.98 473.028 750.416 473.766 750.416 473.766L756.708 484.412C756.708 484.412 753.375 506.528 752.519 509.753C751.662 512.979 739.826 520.084 735.857 518.832C731.9 517.612 728.649 513.968 728.649 513.968Z" fill="#F4E8D2"/>
<path d="M742.104 521.403C743.711 520.808 745.257 520.049 746.594 519.331C749.072 517.966 754.951 514.409 755.924 510.693C756.822 507.377 759.843 487.241 760.2 484.984L760.381 483.761L752.765 470.846L751.424 470.447C750.464 470.169 746.914 469.545 741.61 473.448C737.677 476.321 730.97 479.252 729.475 479.545C728.734 479.558 726.195 479.044 724.094 478.405L721.02 477.455L719.812 480.438C719.639 480.875 718.674 483.507 716.166 494.354C713.328 506.629 724.127 515.047 726.392 516.632C727.423 517.704 730.724 520.882 734.861 522.184C736.929 522.835 739.579 522.338 742.104 521.403ZM749.188 508.713C748.755 509.357 746.758 511.215 743.489 513.06C739.883 515.104 737.532 515.602 736.877 515.546C734.417 514.742 731.93 512.456 731.274 511.692L730.964 511.359L730.581 511.128C730.377 510.98 720.961 504.585 722.969 496.011C724.103 491.117 724.885 487.994 725.429 486.04C727.134 486.415 729.024 486.685 730.314 486.543C733.024 486.21 741.11 482.47 745.692 479.133C746.89 478.242 747.838 477.779 748.538 477.557L753.062 485.241C751.77 493.736 749.812 506.17 749.188 508.713Z" fill="#E83C1F"/>
<path d="M588.25 158.891C581.477 161.872 567.65 164.832 561.583 165.939L560.056 166.408C562.219 166.649 568.606 166.769 576.853 165.324C587.162 163.519 600.466 157.857 604.671 153.855C608.875 149.854 607.027 152.003 605.63 150.171C604.512 148.706 602.873 150.263 602.193 151.225C600.367 152.538 595.023 155.91 588.25 158.891Z" fill="#F4E8D2"/>
<path d="M588.551 40.2756C590.289 39.6321 591.222 37.7205 590.664 35.9134C590.062 34.0856 588.114 33.0544 586.253 33.6688C578.623 36.1216 564.853 39.6172 560.446 38.4899C558.561 38.032 556.661 39.1455 556.204 41.0303C555.746 42.9152 556.859 44.8147 558.744 45.2726C566.352 47.1907 584.785 41.4838 588.375 40.3035C588.452 40.3121 588.518 40.2878 588.551 40.2756Z" fill="#E83C1F"/>
<path d="M578.406 70.8797C578.603 70.8069 578.701 70.7704 578.734 70.7583C580.525 70.0576 581.409 68.015 580.709 66.2236C580.008 64.4322 577.965 63.548 576.174 64.2486C575.912 64.3457 561.335 69.8926 543.461 68.3455C541.53 68.1656 539.83 69.6156 539.682 71.5345C539.503 73.4655 540.953 75.1658 542.871 75.3129C561.167 76.8903 575.946 71.7904 578.406 70.8797Z" fill="#E83C1F"/>
<rect x="328.724" y="671.476" width="24" height="4" rx="2" transform="rotate(-40.0154 328.724 671.476)" fill="#E83C1F"/>
<rect x="289.201" y="679.724" width="24" height="4" rx="2" transform="rotate(-40.0154 289.201 679.724)" fill="#E83C1F"/>
<rect x="348.201" y="613.724" width="24" height="4" rx="2" transform="rotate(-40.0154 348.201 613.724)" fill="#E83C1F"/>
<rect x="383.201" y="663.724" width="24" height="4" rx="2" transform="rotate(-40.0154 383.201 663.724)" fill="#E83C1F"/>
<rect x="388.201" y="699.724" width="24" height="4" rx="2" transform="rotate(-40.0154 388.201 699.724)" fill="#E83C1F"/>
<rect x="393.201" y="754.724" width="24" height="4" rx="2" transform="rotate(-40.0154 393.201 754.724)" fill="#E83C1F"/>
<rect x="443.201" y="702.724" width="24" height="4" rx="2" transform="rotate(-40.0154 443.201 702.724)" fill="#E83C1F"/>
<rect x="339.201" y="763.724" width="24" height="4" rx="2" transform="rotate(-40.0154 339.201 763.724)" fill="#E83C1F"/>
<rect x="290.201" y="748.724" width="24" height="4" rx="2" transform="rotate(-40.0154 290.201 748.724)" fill="#E83C1F"/>
<rect x="256.201" y="720.724" width="24" height="4" rx="2" transform="rotate(-40.0154 256.201 720.724)" fill="#E83C1F"/>
<rect x="335.201" y="709.724" width="24" height="4" rx="2" transform="rotate(-40.0154 335.201 709.724)" fill="#E83C1F"/>
<rect x="323.201" y="855.724" width="24" height="4" rx="2" transform="rotate(-40.0154 323.201 855.724)" fill="#E83C1F"/>
<rect x="338.201" y="810.724" width="24" height="4" rx="2" transform="rotate(-40.0154 338.201 810.724)" fill="#E83C1F"/>
<rect x="267.201" y="880.724" width="24" height="4" rx="2" transform="rotate(-40.0154 267.201 880.724)" fill="#E83C1F"/>
<rect x="288.201" y="819.724" width="24" height="4" rx="2" transform="rotate(-40.0154 288.201 819.724)" fill="#E83C1F"/>
<rect x="252.201" y="810.724" width="24" height="4" rx="2" transform="rotate(-40.0154 252.201 810.724)" fill="#E83C1F"/>
<rect x="193.201" y="825.724" width="24" height="4" rx="2" transform="rotate(-40.0154 193.201 825.724)" fill="#E83C1F"/>
<rect x="225.201" y="864.724" width="24" height="4" rx="2" transform="rotate(-40.0154 225.201 864.724)" fill="#E83C1F"/>
<rect x="212.201" y="930.724" width="24" height="4" rx="2" transform="rotate(-40.0154 212.201 930.724)" fill="#E83C1F"/>
<rect x="165.201" y="886.724" width="24" height="4" rx="2" transform="rotate(-40.0154 165.201 886.724)" fill="#E83C1F"/>
<rect x="147.201" y="819.724" width="24" height="4" rx="2" transform="rotate(-40.0154 147.201 819.724)" fill="#E83C1F"/>
<rect x="217.201" y="772.724" width="24" height="4" rx="2" transform="rotate(-40.0154 217.201 772.724)" fill="#E83C1F"/>
<rect x="455.201" y="640.724" width="24" height="4" rx="2" transform="rotate(-40.0154 455.201 640.724)" fill="#E83C1F"/>
<rect x="414.201" y="606.724" width="24" height="4" rx="2" transform="rotate(-40.0154 414.201 606.724)" fill="#E83C1F"/>
<rect x="388.201" y="598.248" width="24" height="4" rx="2" transform="rotate(-44.9504 388.201 598.248)" fill="#E83C1F"/>
</svg>
