<svg width="18" height="57" viewBox="0 0 18 57" fill="none" xmlns="http://www.w3.org/2000/svg">
<path fill-rule="evenodd" clip-rule="evenodd" d="M10.8164 50.3822C12.1502 47.6147 13.4096 45.0007 14.6696 42.3869C14.8975 41.9142 15.1213 41.4393 15.3581 40.971C15.6661 40.3617 16.1391 40.1757 16.6838 40.4363C17.2098 40.6879 17.3208 41.1131 17.0081 41.7612C15.0941 45.7266 13.1885 49.6959 11.2467 53.6477C10.9716 54.2072 10.9493 54.6063 11.3582 55.1018C11.858 55.7074 11.7255 56.3363 11.1246 56.6685C10.6434 56.9346 10.2646 56.736 9.92172 56.374C9.74396 56.457 9.56727 56.6156 9.41528 56.5951C9.06742 56.5483 8.64032 56.5051 8.42054 56.2853C8.25201 56.1168 8.21995 55.5978 8.35747 55.3795C8.70263 54.8314 8.56424 54.4571 8.22662 53.9794C5.72497 50.4395 3.24441 46.8847 0.77809 43.3202C0.604451 43.0693 0.45826 42.6523 0.549104 42.4029C0.657749 42.1047 0.997096 41.8121 1.30566 41.6826C1.73217 41.5035 2.03362 41.8377 2.26887 42.1744C3.30733 43.6602 4.34475 45.1469 5.38281 46.6329C6.53591 48.2837 7.68949 49.9343 8.94612 51.5528C8.91833 51.3412 8.89142 51.1294 8.86291 50.9178C6.64442 34.5217 7.46244 18.2728 11.3804 2.17383C11.4512 1.88261 11.5205 1.59083 11.5997 1.30182C11.7828 0.633311 12.2888 0.30387 12.8908 0.454608C13.431 0.58995 13.5886 0.966003 13.4055 1.71978C11.4387 9.80817 10.236 18.0057 9.81048 26.3144C9.40811 34.1711 9.70959 41.9985 10.7176 49.7961C10.7364 49.942 10.7662 50.0868 10.8164 50.3822Z" fill="#E83C1F"/>
</svg>
