<svg width="23" height="19" viewBox="0 0 23 19" fill="none" xmlns="http://www.w3.org/2000/svg">
<path d="M13.3621 7.20303C13.3621 6.31489 12.7237 5.8246 11.6023 5.8246H9.53968V8.68595H11.279C12.6214 8.68193 13.3621 8.15146 13.3621 7.20303ZM20.8719 6.68863C20.4831 5.44684 20.4258 3.92373 20.4708 2.74623C20.5158 1.52051 19.5418 0.395264 18.2322 0.395264H4.77598C3.46228 0.395264 2.49235 1.52453 2.53737 2.74623C2.57829 3.92373 2.52509 5.44684 2.1363 6.68863C1.74342 7.93445 1.08452 8.72212 0 8.82259V9.96794C1.08043 10.0684 1.74342 10.8561 2.1363 12.1019C2.52509 13.3437 2.58238 14.8668 2.53737 16.0443C2.49235 17.27 3.46637 18.3953 4.77598 18.3953H18.2281C19.5418 18.3953 20.5117 17.266 20.4667 16.0443C20.4258 14.8668 20.479 13.3437 20.8678 12.1019C21.2607 10.8561 21.9196 10.0684 23 9.96794V8.82259C21.9237 8.72212 21.2607 7.93445 20.8719 6.68863ZM11.9993 14.1836H7.9927V4.60692H11.9788C13.7509 4.60692 14.9132 5.54731 14.9132 6.99406C14.9132 8.0108 14.1315 8.91904 13.1329 9.07577V9.12802C14.4916 9.27269 15.4043 10.197 15.4043 11.471C15.4043 13.1628 14.1233 14.1836 11.9993 14.1836ZM11.59 9.81522H9.53968V12.9659H11.6801C13.0797 12.9659 13.8205 12.4154 13.8205 11.3785C13.8205 10.3457 13.0593 9.81522 11.59 9.81522Z" fill="#E83C1F"/>
</svg>
