<svg width="68" height="68" viewBox="0 0 68 68" fill="none" xmlns="http://www.w3.org/2000/svg">
<path d="M26.3825 51.6558C25.9851 51.0693 25.1865 50.9189 24.602 51.3143L23.3288 52.1785L20.4815 49.3312L61.3392 8.47351L62.9114 10.0457C63.413 10.5473 64.2232 10.5473 64.7247 10.0457C65.2263 9.54415 65.2263 8.73394 64.7247 8.23238L59.7092 3.21679C59.2076 2.71523 58.3974 2.71523 57.8958 3.21679C57.3943 3.71835 57.3943 4.52856 57.8958 5.03012L59.5259 6.66018L18.6682 47.5179L15.8228 44.6725L16.687 43.3993C17.0844 42.8129 16.932 42.0162 16.3456 41.6188C15.7591 41.2214 14.9624 41.3738 14.565 41.9603L5.19938 55.7473C4.80199 56.3338 4.95439 57.1305 5.54082 57.5279C6.12726 57.9252 6.92397 57.7729 7.32136 57.1864L7.72453 56.5942L8.6582 57.5279L6.70984 59.4762C6.20829 59.9778 6.20828 60.788 6.70984 61.2895C7.2114 61.7911 8.02161 61.7911 8.52317 61.2896L10.4715 59.3412L11.4052 60.2749L10.813 60.678C10.2265 61.0754 10.0761 61.8741 10.4715 62.4586C10.8689 63.045 11.6676 63.1955 12.2521 62.8L26.0391 53.4344C26.6294 53.037 26.7818 52.2403 26.3825 51.6558ZM21.147 53.662L18.5968 55.3943L16.5076 53.3051L18.6489 51.1639L21.147 53.662ZM16.8355 49.3505L14.6943 51.4918L12.607 49.4045L14.3393 46.8543L16.8355 49.3505ZM9.20413 54.4124L11.1236 51.5863L12.8617 53.3244L10.4889 55.6972L9.20413 54.4124ZM12.3022 57.5105L14.675 55.1377L16.4131 56.8758L13.587 58.7953L12.3022 57.5105Z" fill="#F4E8D2"/>
<path d="M52.6036 41.6175C52.0172 42.0149 51.8667 42.8136 52.2622 43.3981L53.1264 44.6713L50.2791 47.5186L9.42134 6.66084L10.9935 5.08864C11.4951 4.58709 11.4951 3.77688 10.9935 3.27532C10.492 2.77376 9.68177 2.77376 9.18021 3.27532L4.16462 8.2909C3.66306 8.79246 3.66306 9.60267 4.16462 10.1042C4.66618 10.6058 5.47639 10.6058 5.97795 10.1042L7.60801 8.47416L48.4657 49.3319L45.6204 52.1773L44.3472 51.3131C43.7607 50.9157 42.964 51.0681 42.5666 51.6545C42.1693 52.2409 42.3217 53.0376 42.9081 53.435L56.6952 62.8007C57.2816 63.1981 58.0783 63.0457 58.4757 62.4592C58.8731 61.8728 58.7207 61.0761 58.1342 60.6787L57.542 60.2755L58.4757 59.3419L60.4241 61.2902C60.9256 61.7918 61.7358 61.7918 62.2374 61.2902C62.7389 60.7887 62.7389 59.9784 62.2374 59.4769L60.289 57.5285L61.2227 56.5949L61.6259 57.1871C62.0233 57.7735 62.8219 57.924 63.4064 57.5285C63.9928 57.1311 64.1433 56.3325 63.7478 55.748L54.3822 41.9609C53.9848 41.3706 53.1881 41.2182 52.6036 41.6175ZM54.6098 46.8531L56.3421 49.4033L54.253 51.4925L52.1117 49.3512L54.6098 46.8531ZM50.2984 51.1645L52.4396 53.3058L50.3524 55.393L47.8021 53.6607L50.2984 51.1645ZM55.3602 58.7959L52.5342 56.8765L54.2722 55.1384L56.645 57.5112L55.3602 58.7959ZM58.4583 55.6978L56.0856 53.3251L57.8237 51.587L59.7431 54.4131L58.4583 55.6978Z" fill="#F4E8D2"/>
</svg>
