<svg width="16" height="16" viewBox="0 0 16 16" fill="none" xmlns="http://www.w3.org/2000/svg">
<path d="M8.8395 1.73442C8.8395 1.22719 8.4297 0.817383 7.92246 0.817383C7.41522 0.817383 7.00541 1.22719 7.00541 1.73442V8.68962L4.90195 6.58615C4.54373 6.22793 3.96198 6.22793 3.60376 6.58615C3.24554 6.94437 3.24554 7.52612 3.60376 7.88434L7.27193 11.5525C7.63015 11.9107 8.2119 11.9107 8.57012 11.5525L12.2383 7.88434C12.5965 7.52612 12.5965 6.94437 12.2383 6.58615C11.8801 6.22793 11.2983 6.22793 10.9401 6.58615L8.8395 8.68962V1.73442ZM2.4202 10.9048C1.40859 10.9048 0.586121 11.7273 0.586121 12.7389V13.656C0.586121 14.6676 1.40859 15.4901 2.4202 15.4901H13.4247C14.4363 15.4901 15.2588 14.6676 15.2588 13.656V12.7389C15.2588 11.7273 14.4363 10.9048 13.4247 10.9048H10.516L9.21778 12.203C8.50134 12.9195 7.34071 12.9195 6.62427 12.203L5.32895 10.9048H2.4202ZM12.9662 12.5097C13.1486 12.5097 13.3235 12.5821 13.4525 12.7111C13.5815 12.8401 13.654 13.015 13.654 13.1974C13.654 13.3799 13.5815 13.5548 13.4525 13.6838C13.3235 13.8128 13.1486 13.8852 12.9662 13.8852C12.7838 13.8852 12.6088 13.8128 12.4799 13.6838C12.3509 13.5548 12.2784 13.3799 12.2784 13.1974C12.2784 13.015 12.3509 12.8401 12.4799 12.7111C12.6088 12.5821 12.7838 12.5097 12.9662 12.5097Z" fill="#E83C1F"/>
</svg>
