<svg width="15" height="21" viewBox="0 0 15 21" fill="none" xmlns="http://www.w3.org/2000/svg">
<path d="M0 4.13715C0 2.07056 1.8073 0.395264 4.03674 0.395264H10.9633C13.1927 0.395264 15 2.07056 15 4.13715C15 5.44573 14.2754 6.59745 13.1777 7.26624C14.2754 7.93507 15 9.08675 15 10.3953C15 12.4619 13.1927 14.1373 10.9633 14.1373H10.8756C9.83044 14.1373 8.87803 13.7691 8.16114 13.165V16.6127C8.16114 18.7069 6.30659 20.3953 4.05849 20.3953C1.83462 20.3953 0 18.7251 0 16.6533C0 15.3448 0.724581 14.1932 1.82211 13.5244C0.724581 12.8555 0 11.7039 0 10.3953C0 9.08675 0.724644 7.93507 1.82225 7.26624C0.724644 6.59745 0 5.44573 0 4.13715ZM6.83886 7.87913H4.03674C2.53757 7.87913 1.32227 9.00569 1.32227 10.3953C1.32227 11.7796 2.5282 12.9028 4.01938 12.9115C4.02515 12.9115 4.03093 12.9115 4.03674 12.9115H6.83886V7.87913ZM8.16114 10.3953C8.16114 11.785 9.37642 12.9116 10.8756 12.9116H10.9633C12.4624 12.9116 13.6777 11.785 13.6777 10.3953C13.6777 9.00569 12.4624 7.87913 10.9633 7.87913H10.8756C9.37642 7.87913 8.16114 9.00569 8.16114 10.3953ZM4.03674 14.1373C4.03093 14.1373 4.02515 14.1372 4.01938 14.1372C2.5282 14.1458 1.32227 15.2691 1.32227 16.6533C1.32227 18.0379 2.55381 19.1696 4.05849 19.1696C5.58742 19.1696 6.83886 18.0197 6.83886 16.6127V14.1373H4.03674ZM4.03674 1.62096C2.53757 1.62096 1.32227 2.7475 1.32227 4.13715C1.32227 5.52683 2.53757 6.65335 4.03674 6.65335H6.83886V1.62096H4.03674ZM8.16114 6.65335H10.9633C12.4624 6.65335 13.6777 5.52683 13.6777 4.13715C13.6777 2.7475 12.4624 1.62096 10.9633 1.62096H8.16114V6.65335Z" fill="#E83C1F"/>
</svg>
