<svg width="19" height="20" viewBox="0 0 19 20" fill="none" xmlns="http://www.w3.org/2000/svg">
<path d="M6.35504 15.694C6.35504 15.7726 6.26694 15.8355 6.15585 15.8355C6.02944 15.8473 5.94133 15.7844 5.94133 15.694C5.94133 15.6155 6.02944 15.5526 6.14052 15.5526C6.25544 15.5408 6.35504 15.6037 6.35504 15.694ZM5.16371 15.5172C5.1369 15.5958 5.21351 15.6862 5.32843 15.7097C5.42802 15.749 5.54294 15.7097 5.56593 15.6312C5.58891 15.5526 5.51613 15.4622 5.40121 15.4269C5.30161 15.3994 5.19052 15.4387 5.16371 15.5172ZM6.85685 15.4504C6.74577 15.478 6.66915 15.5526 6.68065 15.643C6.69214 15.7215 6.79173 15.7726 6.90665 15.7451C7.01774 15.7176 7.09435 15.643 7.08286 15.5644C7.07137 15.4897 6.96794 15.4387 6.85685 15.4504ZM9.37742 0.395264C4.06431 0.395264 0 4.5323 0 9.98155C0 14.3386 2.67379 18.067 6.49294 19.3793C6.98327 19.4696 7.15565 19.1592 7.15565 18.9039C7.15565 18.6603 7.14415 17.3166 7.14415 16.4916C7.14415 16.4916 4.4627 17.0809 3.8996 15.3208C3.8996 15.3208 3.4629 14.1775 2.83468 13.8829C2.83468 13.8829 1.95746 13.266 2.89597 13.2778C2.89597 13.2778 3.8498 13.3564 4.3746 14.2915C5.21351 15.808 6.61936 15.3719 7.16714 15.1126C7.25524 14.484 7.50423 14.0479 7.78004 13.7886C5.63871 13.545 3.47823 13.2267 3.47823 9.44723C3.47823 8.36681 3.76935 7.82464 4.38226 7.13317C4.28266 6.87779 3.95706 5.82487 4.48185 4.46551C5.28246 4.21013 7.125 5.52628 7.125 5.52628C7.89113 5.30627 8.71472 5.19234 9.53065 5.19234C10.3466 5.19234 11.1702 5.30627 11.9363 5.52628C11.9363 5.52628 13.7788 4.20621 14.5794 4.46551C15.1042 5.8288 14.7786 6.87779 14.679 7.13317C15.2919 7.82857 15.6673 8.37074 15.6673 9.44723C15.6673 13.2385 13.4111 13.541 11.2698 13.7886C11.6222 14.0989 11.921 14.6883 11.921 15.6115C11.921 16.9355 11.9095 18.5739 11.9095 18.896C11.9095 19.1514 12.0857 19.4618 12.5722 19.3714C16.4028 18.067 19 14.3386 19 9.98155C19 4.5323 14.6905 0.395264 9.37742 0.395264ZM3.72339 13.9457C3.67359 13.985 3.68508 14.0754 3.7502 14.15C3.81149 14.2129 3.8996 14.2404 3.9494 14.1893C3.99919 14.15 3.9877 14.0597 3.92258 13.985C3.86129 13.9221 3.77319 13.8946 3.72339 13.9457ZM3.30968 13.6275C3.28286 13.6786 3.32117 13.7414 3.39778 13.7807C3.45907 13.82 3.53569 13.8082 3.5625 13.7532C3.58931 13.7021 3.55101 13.6393 3.4744 13.6C3.39778 13.5764 3.33649 13.5882 3.30968 13.6275ZM4.55081 15.0261C4.48952 15.0772 4.5125 15.1951 4.6006 15.2697C4.68871 15.3601 4.7998 15.3719 4.8496 15.309C4.8994 15.2579 4.87641 15.1401 4.7998 15.0654C4.71552 14.9751 4.60061 14.9633 4.55081 15.0261ZM4.11411 14.4486C4.05282 14.4879 4.05282 14.59 4.11411 14.6804C4.1754 14.7708 4.27883 14.8101 4.32863 14.7708C4.38992 14.7197 4.38992 14.6175 4.32863 14.5272C4.275 14.4368 4.1754 14.3975 4.11411 14.4486Z" fill="#E83C1F"/>
</svg>
