<svg width="15" height="14" viewBox="0 0 15 14" fill="none" xmlns="http://www.w3.org/2000/svg">
<path d="M5.01714 11.2728C5.01714 11.3307 4.94758 11.377 4.85988 11.377C4.76008 11.3857 4.69052 11.3394 4.69052 11.2728C4.69052 11.2149 4.76008 11.1686 4.84778 11.1686C4.93851 11.1599 5.01714 11.2062 5.01714 11.2728ZM4.07661 11.1425C4.05544 11.2004 4.11593 11.267 4.20665 11.2844C4.28528 11.3133 4.37601 11.2844 4.39415 11.2265C4.4123 11.1686 4.35484 11.102 4.26411 11.0759C4.18548 11.0557 4.09778 11.0846 4.07661 11.1425ZM5.41331 11.0933C5.3256 11.1136 5.26512 11.1686 5.27419 11.2351C5.28327 11.293 5.3619 11.3307 5.45262 11.3104C5.54032 11.2901 5.60081 11.2351 5.59173 11.1772C5.58266 11.1222 5.50101 11.0846 5.41331 11.0933ZM7.40323 0C3.20867 0 0 3.04834 0 7.06358C0 10.274 2.11089 13.0213 5.12601 13.9882C5.5131 14.0548 5.64919 13.8261 5.64919 13.6379C5.64919 13.4584 5.64012 12.4684 5.64012 11.8604C5.64012 11.8604 3.52319 12.2947 3.07863 10.9978C3.07863 10.9978 2.73387 10.1553 2.2379 9.93822C2.2379 9.93822 1.54536 9.48372 2.28629 9.49241C2.28629 9.49241 3.03931 9.55031 3.45363 10.2393C4.11593 11.3567 5.22581 11.0354 5.65827 10.8443C5.72782 10.3811 5.9244 10.0598 6.14214 9.86875C4.45161 9.68926 2.74597 9.45478 2.74597 6.66987C2.74597 5.87377 2.97581 5.47427 3.45968 4.96477C3.38105 4.7766 3.12399 4.00077 3.53831 2.99913C4.17036 2.81096 5.625 3.78075 5.625 3.78075C6.22984 3.61864 6.88004 3.53469 7.52419 3.53469C8.16835 3.53469 8.81855 3.61864 9.42339 3.78075C9.42339 3.78075 10.878 2.80806 11.5101 2.99913C11.9244 4.00366 11.6673 4.7766 11.5887 4.96477C12.0726 5.47717 12.369 5.87667 12.369 6.66987C12.369 9.46346 10.5877 9.68637 8.89718 9.86875C9.1754 10.0974 9.41129 10.5317 9.41129 11.212C9.41129 12.1876 9.40222 13.3947 9.40222 13.6321C9.40222 13.8203 9.54133 14.049 9.9254 13.9824C12.9496 13.0213 15 10.274 15 7.06358C15 3.04834 11.5978 0 7.40323 0ZM2.93952 9.98454C2.9002 10.0135 2.90927 10.0801 2.96069 10.1351C3.00907 10.1814 3.07863 10.2017 3.11794 10.164C3.15726 10.1351 3.14819 10.0685 3.09677 10.0135C3.04839 9.96717 2.97883 9.94691 2.93952 9.98454ZM2.6129 9.75006C2.59173 9.78769 2.62198 9.83401 2.68246 9.86296C2.73085 9.89191 2.79133 9.88322 2.8125 9.84269C2.83367 9.80506 2.80343 9.75874 2.74294 9.72979C2.68246 9.71242 2.63407 9.72111 2.6129 9.75006ZM3.59274 10.7806C3.54435 10.8183 3.5625 10.9051 3.63206 10.9601C3.70161 11.0267 3.78931 11.0354 3.82863 10.9891C3.86794 10.9514 3.8498 10.8646 3.78931 10.8096C3.72278 10.743 3.63206 10.7343 3.59274 10.7806ZM3.24798 10.3551C3.1996 10.384 3.1996 10.4593 3.24798 10.5259C3.29637 10.5925 3.37802 10.6214 3.41734 10.5925C3.46573 10.5548 3.46573 10.4796 3.41734 10.413C3.375 10.3464 3.29637 10.3175 3.24798 10.3551Z" fill="#E83C1F"/>
</svg>
