<svg width="17" height="20" viewBox="0 0 17 20" fill="none" xmlns="http://www.w3.org/2000/svg">
<path fill-rule="evenodd" clip-rule="evenodd" d="M10.309 5.08096V0.00275916C10.309 0.00275916 6.68931 -0.194593 3.89751 2.74884C1.70979 5.02319 1.51485 7.89201 1.51485 7.89201L1.5172 7.89245C1.51438 7.90964 1.43148 8.42179 1.48117 8.85951L0.00825203 8.85951C0.00825203 8.85951 -0.33591 13.1411 3.42099 16.6838C6.84336 19.9088 10.9516 19.6344 10.9516 19.6344V13.2783C8.79281 13.2783 6.54252 11.4828 6.54252 8.85951L6.54009 8.85905C6.51387 6.71729 8.19127 5.08096 10.309 5.08096ZM6.51868 8.85492C5.59939 8.65844 2.20082 8.02054 1.60447 7.9088L6.51868 8.85492ZM10.3091 5.08096L11.2838 1.57195C11.0431 2.44559 10.3091 5.08096 10.3091 5.08096C10.3091 5.08096 13.4354 5.01598 13.5798 8.37817H13.5821C13.5183 10.0034 12.131 10.6622 12.131 10.6622C12.131 10.6622 11.6376 10.9991 10.9541 10.9413V13.2783C14.3836 13.182 15.5028 10.0773 15.6111 9.23977C15.6104 9.23946 15.6097 9.23915 15.609 9.23884C15.7708 8.71627 15.7336 8.40815 15.7294 8.37817H16.9974C16.9974 8.37817 17.3054 2.88843 11.2838 1.57195C11.2838 1.57195 10.6532 1.49012 10.3091 1.52863V5.08096ZM14.4434 8.7423C14.1507 8.61892 13.8715 8.50114 13.6727 8.41515C13.8183 8.47688 14.1174 8.60376 14.4434 8.7423Z" fill="#E83C1F"/>
</svg>
