<svg width="989" height="304" viewBox="0 0 989 304" fill="none" xmlns="http://www.w3.org/2000/svg">
<path d="M0 24.3052C15.5402 24.3052 23.3103 24.3052 38.8504 24.3052C38.8504 59.4905 38.8504 94.6758 38.8504 129.861C52.6313 131.474 66.5588 132.94 80.4864 134.113C80.4864 97.6079 80.4864 60.9565 80.4864 24.4518C96.0265 24.4518 103.797 24.4518 119.337 24.4518C119.337 115.787 119.337 206.975 119.337 298.311C103.797 296.258 96.0265 294.939 80.4864 292.007C80.4864 252.13 80.4864 212.253 80.4864 172.377C66.5588 170.764 52.6313 169.005 38.8504 166.806C38.8504 205.363 38.8504 244.067 38.8504 282.624C23.3103 278.666 15.5402 276.32 0 271.335C0 188.943 0 106.551 0 24.3052Z" fill="#FFF5E2"/>
<path d="M148.071 7.68286C163.612 7.68286 171.382 7.68286 186.922 7.68286C186.922 101.071 186.922 194.312 186.922 287.699C171.382 286.966 163.612 286.38 148.071 284.914C148.071 192.406 148.071 100.044 148.071 7.68286Z" fill="#FFF5E2"/>
<path d="M302.593 65.6475C286.32 65.6475 278.257 65.6475 261.984 65.6475C261.984 51.8666 261.984 38.0857 261.984 24.1582C302.007 24.1582 341.884 24.1582 381.907 24.1582C381.907 39.9916 381.907 47.9083 381.907 63.5951C365.634 64.1815 357.57 64.4747 341.297 64.9145C341.297 143.055 341.297 221.342 341.297 299.483C325.757 301.975 317.987 302.269 302.447 303.002C302.593 224.128 302.593 144.961 302.593 65.6475Z" fill="#FFF5E2"/>
<path d="M400.673 0.764404C416.213 0.764404 423.983 0.764404 439.523 0.764404C439.523 36.0963 439.523 71.4282 439.523 106.907C453.451 105.587 467.231 104.121 481.159 102.655C481.159 68.6427 481.159 34.7769 481.159 0.764404C496.699 0.764404 504.469 0.764404 520.009 0.764404C520.009 81.3974 520.009 162.03 520.009 242.517C504.469 245.595 496.699 247.208 481.159 250.287C481.159 212.902 481.159 175.518 481.159 138.28C467.231 140.04 453.451 141.945 439.523 143.705C439.523 181.969 439.523 220.379 439.523 258.643C423.983 261.722 416.213 263.188 400.673 265.974C400.673 177.57 400.673 89.1674 400.673 0.764404Z" fill="#FFF5E2"/>
<path d="M548.744 24.3052C584.076 24.3052 619.261 24.3052 654.593 24.3052C654.593 36.0336 654.593 41.8978 654.593 53.7729C632.309 54.5059 609.878 55.2389 587.594 56.1185C587.594 75.9103 587.594 95.8486 587.594 115.64C605.334 113.881 623.073 112.268 640.812 110.802C640.812 123.264 640.812 129.421 640.812 142.029C623.073 143.935 605.334 145.988 587.594 148.187C587.594 171.937 587.594 195.687 587.594 219.437C609.878 215.772 632.162 212.253 654.593 208.881C654.593 221.783 654.593 228.38 654.593 241.574C619.261 247.145 583.929 253.596 548.744 260.486C548.744 181.613 548.744 103.032 548.744 24.3052Z" fill="#FFF5E2"/>
<path d="M676.731 7.6829C695.936 7.6829 714.995 7.6829 734.2 7.6829C749.154 7.38969 766.16 9.58877 777.888 19.2647C786.978 26.7416 791.669 39.0564 791.669 55.3296C791.669 60.4608 791.669 63.0997 791.669 68.2309C792.256 85.9702 784.192 103.856 766.306 109.427C766.306 109.72 766.306 109.72 766.306 110.013C775.689 112.652 782.286 117.784 786.245 125.407C790.057 133.031 792.109 143.293 792.109 156.048C792.109 171.295 792.109 178.918 792.109 194.312C792.109 200.616 792.402 205.747 792.842 209.559C793.282 213.517 794.455 217.329 796.361 221.287C780.527 220.554 772.611 220.407 756.924 220.407C755.458 216.742 754.578 213.37 754.138 210.292C753.698 207.066 753.405 201.495 753.405 193.285C753.405 177.159 753.405 169.242 753.405 153.409C753.405 143.586 751.646 136.696 747.981 132.737C744.316 128.779 738.012 126.873 729.069 126.873C723.644 126.873 721.005 126.873 715.728 127.02C715.728 158.393 715.728 189.767 715.728 221.14C700.187 221.727 692.417 222.02 676.877 223.046C676.731 151.21 676.731 79.3729 676.731 7.6829ZM729.655 96.3791C737.425 96.3791 743.289 94.7665 747.101 91.248C750.913 87.876 752.965 82.1584 752.965 74.2417C752.965 67.7911 752.965 64.5658 752.965 58.1151C752.965 50.6383 751.353 45.2139 748.274 41.842C745.049 38.47 740.064 36.8574 733.32 36.8574C726.283 36.8574 722.765 36.8574 715.728 36.8574C715.728 56.7957 715.728 76.5874 715.728 96.5257C721.299 96.3791 724.084 96.3791 729.655 96.3791Z" fill="#FFF5E2"/>
<path d="M818.938 24.3052C854.27 24.3052 889.455 24.3052 924.787 24.3052C924.787 37.2064 924.787 43.8037 924.787 56.8516C902.503 56.1185 880.072 55.3855 857.788 54.9457C857.788 74.0044 857.788 93.0631 857.788 112.122C875.527 113.148 893.267 114.467 911.006 116.08C911.006 128.981 911.006 135.432 911.006 148.48C893.267 146.427 875.527 144.668 857.788 143.349C857.788 165.926 857.788 188.503 857.788 211.08C880.219 213.719 902.503 216.945 924.787 220.903C924.787 234.097 924.787 240.695 924.787 254.036C889.601 246.852 854.709 242.161 818.938 239.229C818.938 167.539 818.938 95.8486 818.938 24.3052Z" fill="#FFF5E2"/>
<path d="M950.15 138.859C950.15 106.166 950.15 73.6198 950.15 40.9268C965.69 40.9268 973.46 40.9268 989 40.9268C989 75.2324 989 109.538 989 143.99C987.387 169.793 985.775 195.595 984.015 221.398C972.434 218.612 966.716 217.293 955.134 214.947C953.375 189.585 951.762 164.222 950.15 138.859ZM950.883 240.75C965.836 244.122 973.313 246.028 988.267 250.133C988.267 265.086 988.267 272.563 988.267 287.517C973.313 282.679 965.836 280.48 950.883 276.668C950.883 262.301 950.883 255.117 950.883 240.75Z" fill="#FFF5E2"/>
</svg>
