<svg width="22" height="21" viewBox="0 0 22 21" fill="none" xmlns="http://www.w3.org/2000/svg">
<path fill-rule="evenodd" clip-rule="evenodd" d="M17.3158 0H3.72618C1.66582 0 0 1.66582 0 3.72618V16.7897C0 18.8501 1.66582 20.5159 3.72618 20.5159H17.3158C19.3761 20.5159 21.0419 18.8501 21.0419 16.7897V3.72618C21.0419 1.66582 19.3761 0 17.3158 0ZM6.90876 12.2745H10.1703L10.8892 14.3611C10.9067 14.4225 10.9681 14.4663 11.0295 14.4576H12.8619C12.9495 14.4576 12.9758 14.4137 12.9495 14.3173L9.74942 5.28679C9.74065 5.24296 9.70558 5.21665 9.63544 5.21665H7.36467C7.32083 5.22542 7.28576 5.26926 7.29453 5.3131C7.29453 5.50598 7.27699 5.69887 7.24192 5.88298C7.21707 5.95752 7.19663 6.02766 7.17747 6.0934C7.16958 6.12045 7.16191 6.14675 7.15425 6.17231L4.33112 14.2998C4.30482 14.405 4.33112 14.4576 4.42756 14.4576H6.07585C6.15476 14.4663 6.2249 14.4137 6.24243 14.3348L6.90876 12.2745ZM9.64421 10.4947H7.41727C7.54878 10.1264 7.68029 9.71437 7.80304 9.26723C7.88988 8.99584 7.97337 8.72445 8.05557 8.45723C8.10615 8.2928 8.15625 8.12995 8.20634 7.96964C8.32909 7.59264 8.42553 7.21564 8.50444 6.83864H8.52197C8.55618 6.95594 8.5904 7.07869 8.62613 7.20689C8.6545 7.30866 8.68382 7.41386 8.71486 7.5225C8.785 7.77676 8.8639 8.03101 8.95158 8.3028C8.99542 8.4387 9.03706 8.5724 9.07871 8.70611C9.12035 8.83981 9.162 8.97352 9.20584 9.10941C9.28474 9.37244 9.36365 9.62669 9.44256 9.86341C9.52146 10.0914 9.5916 10.3106 9.64421 10.4947ZM14.1244 6.4441C14.3348 6.64575 14.6154 6.75973 14.9047 6.75096C15.2028 6.7685 15.5009 6.65452 15.7025 6.4441C15.913 6.22491 16.0182 5.93559 16.0094 5.63749C16.0182 5.34817 15.913 5.06761 15.7201 4.85719C15.5272 4.65554 15.2642 4.55033 14.9222 4.55033C14.6329 4.55033 14.3523 4.65554 14.1419 4.85719C13.9315 5.05884 13.8175 5.3394 13.8263 5.63749C13.8175 5.93559 13.9227 6.22491 14.1244 6.4441ZM13.9227 7.61017V14.3611C13.9227 14.4488 13.9666 14.5014 14.0542 14.5014H15.7727C15.8516 14.5014 15.8866 14.4576 15.8866 14.3611V7.61017C15.8866 7.53127 15.8516 7.48743 15.7727 7.48743H14.0367C13.9578 7.48743 13.9227 7.5225 13.9227 7.61017Z" fill="#E83C1F"/>
</svg>
