<svg width="20" height="18" viewBox="0 0 20 18" fill="none" xmlns="http://www.w3.org/2000/svg">
<path d="M17.8571 0H2.14286C0.959821 0 0 0.863839 0 1.92857V16.0714C0 17.1362 0.959821 18 2.14286 18H17.8571C19.0402 18 20 17.1362 20 16.0714V1.92857C20 0.863839 19.0402 0 17.8571 0ZM10.8839 14.0384C10.8839 15.7902 9.74107 16.5897 8.07589 16.5897C6.57143 16.5897 5.70089 15.8906 5.25446 15.0429L6.78571 14.2112C7.08036 14.6813 7.34821 15.079 7.99554 15.079C8.61161 15.079 9.00446 14.8621 9.00446 14.0143V8.26473H10.8839V14.0384ZM15.3304 16.5897C13.5848 16.5897 12.4554 15.8424 11.9063 14.8621L13.4375 14.0665C13.8393 14.6571 14.3661 15.0951 15.2902 15.0951C16.067 15.0951 16.567 14.7455 16.567 14.2594C16.567 13.6808 16.058 13.4759 15.1964 13.1344L14.7277 12.9536C13.3705 12.4353 12.4732 11.7804 12.4732 10.4022C12.4732 9.13259 13.5491 8.1683 15.2232 8.1683C16.4196 8.1683 17.2768 8.54196 17.8929 9.52232L16.4286 10.3661C16.1071 9.84777 15.7589 9.64286 15.2188 9.64286C14.6696 9.64286 14.3214 9.95625 14.3214 10.3661C14.3214 10.8723 14.6696 11.0772 15.4777 11.3946L15.9464 11.5754C17.5446 12.1902 18.442 12.821 18.442 14.2353C18.442 15.754 17.1116 16.5897 15.3304 16.5897Z" fill="#E83C1F"/>
</svg>
