<svg width="338" height="399" viewBox="0 0 338 399" fill="none" xmlns="http://www.w3.org/2000/svg">
<path d="M33.6948 216.916C31.6108 225.253 54.5352 258.887 66.2579 274.662C78.1253 285.227 104.292 308.18 114.017 315.474C126.174 324.592 141.804 332.841 166.552 341.09C191.3 349.34 207.365 361.497 221.258 364.97C235.152 368.443 269.452 378.429 277.267 378.429C285.082 378.429 295.068 385.376 301.146 369.312C307.225 353.247 317.645 335.88 325.46 322.421C333.275 308.961 325.46 286.819 325.46 274.662C325.46 262.505 301.146 216.916 301.146 213.009C301.146 209.101 279.872 196.51 282.911 192.603C285.95 188.695 293.765 187.827 301.146 180.446C308.527 173.065 313.303 162.21 317.645 155.698C321.987 149.185 316.343 133.989 313.303 128.779C310.264 123.569 295.068 120.095 288.99 119.227C284.127 118.532 273.938 122.7 269.452 124.871V108.807C268.149 98.5314 264.936 75.8096 262.505 67.1261C259.466 56.2717 244.27 45.4174 229.508 31.958C214.746 18.4986 191.734 11.1176 174.367 7.21C157 3.30242 149.185 4.17077 130.082 7.21C110.978 10.2492 76.6781 19.8011 58.0085 31.958C39.339 44.1149 33.6948 68.4286 26.748 77.9805C19.8012 87.5323 26.748 130.081 26.748 138.331C26.748 146.58 18.9328 145.712 10.6835 152.659C2.43419 159.605 4.17089 172.631 5.90759 180.446C7.64429 188.261 24.1429 192.603 26.748 196.51C29.353 200.418 36.2998 206.496 33.6948 216.916Z" fill="#F4E8D2" stroke="black"/>
<path d="M32.3607 143.513C32.3607 143.513 30.6395 142.129 24.5354 143.513C18.4491 144.897 11.6707 149.919 9.32848 155.011C6.98622 160.104 4.91013 163.05 6.04577 171.833C7.16367 180.617 10.89 185.638 13.5694 186.792C16.2488 187.927 19.9928 188.424 19.9928 188.424C19.9928 188.424 19.9751 192.576 21.7495 194.404C23.524 196.232 29.3264 199.94 33.2479 198.183C37.1694 196.427 44.2671 188.531 48.1709 180.333C52.0746 172.135 52.0569 158.649 50.2647 154.373C48.1531 149.298 39.7246 140.94 32.3607 143.513Z" fill="#F5EBD8"/>
<path d="M26.1012 176.021C25.5991 176.286 24.9916 176.351 24.3956 176.134C19.1103 174.333 16.0209 168.481 17.5057 163.084C18.9994 157.703 24.5229 154.787 29.8239 156.581C31.0228 156.989 31.7162 158.303 31.3774 159.523C31.0385 160.744 29.7989 161.398 28.5999 160.99C25.6881 159.997 22.6596 161.596 21.8367 164.56C21.0138 167.524 22.7078 170.733 25.6195 171.726C26.8185 172.134 27.5119 173.448 27.1731 174.668C27.0002 175.291 26.6034 175.756 26.1012 176.021Z" fill="#E83C1F"/>
<path d="M29.983 182.347C28.9003 182.919 27.53 182.452 26.9244 181.305C26.3188 180.157 26.7061 178.763 27.7888 178.191C30.4251 176.799 31.3724 173.387 29.8979 170.594C28.4234 167.8 25.0711 166.658 22.4349 168.05C21.3522 168.621 19.9819 168.154 19.3763 167.007C18.7707 165.86 19.158 164.465 20.2407 163.893C25.0424 161.358 31.1351 163.435 33.8209 168.522C36.5066 173.61 34.7848 179.812 29.983 182.347Z" fill="#E83C1F"/>
<path d="M153.992 123.616C149.838 128.389 144.775 127.75 139.367 129.071C141.746 136.827 143.78 144.37 146.463 151.743C147.328 154.086 149.492 156.217 151.525 157.879C156.242 161.757 162.646 160.351 165.891 155.194C170.651 147.566 171.127 139.171 170.175 130.733C168.877 119.227 165.891 108.104 159.574 98.1748C158.016 95.7031 156.069 93.3593 153.775 91.5268C147.631 86.626 138.977 89.3534 137.895 96.9816C137.073 102.905 138.025 109.127 138.544 115.178C138.631 116.073 140.405 117.011 141.573 117.608C145.554 119.61 149.578 121.486 153.992 123.616Z" fill="#E83C1F"/>
<path d="M220.009 128.716C222.377 136.529 224.445 144.3 227.201 151.809C228.105 154.283 230.474 156.54 232.67 158.19C237.407 161.749 243.178 160.1 246.322 155.108C249.94 149.378 251.016 143.041 250.93 136.443C250.715 121.814 247.183 108.054 239.302 95.6828C237.45 92.7745 234.479 89.9964 231.421 88.5639C224.789 85.5688 218.501 90.0398 217.985 98.3741C217.683 103.757 218.717 109.226 219.406 114.652C219.492 115.433 220.913 116.215 221.861 116.692C225.091 118.298 228.536 119.557 231.637 121.38C234.221 122.899 234.091 124.766 231.249 125.808C228.062 126.936 224.617 127.544 220.009 128.716Z" fill="#E83C1F"/>
<path d="M125.347 87.2689C124.639 87.2167 123.939 86.9873 123.303 86.5655C121.254 85.2223 120.659 82.4753 122.002 80.4265C125.957 74.3476 136.339 70.5531 140.752 69.6661C145.704 68.6633 158.111 70.7231 160.56 71.1442C162.973 71.5635 164.585 73.8625 164.166 76.276C163.746 78.6894 161.447 80.3009 159.034 79.8816C152.798 78.7968 144.704 77.9059 142.498 78.3494C138.515 79.1507 131.287 82.3879 129.425 85.2464C128.519 86.6947 126.922 87.3987 125.347 87.2689Z" fill="#E83C1F"/>
<path d="M208.236 77.7738C206.978 77.3396 205.926 76.3291 205.478 74.9571C204.72 72.6286 205.979 70.1315 208.308 69.3565C210.655 68.5823 222.637 64.759 227.687 65.0222C232.188 65.2588 243.022 67.5264 247.803 72.964C249.419 74.8013 249.247 77.5999 247.409 79.2338C245.572 80.8499 242.773 80.6784 241.139 78.8402C238.883 76.2789 231.26 74.1141 227.22 73.8999C224.97 73.7728 217.089 75.8236 211.077 77.8053C210.103 78.1132 209.127 78.0836 208.236 77.7738Z" fill="#E83C1F"/>
<path d="M324.323 329.869C324.323 329.869 324.324 329.867 324.326 329.862C324.324 329.867 324.323 329.87 324.323 329.869ZM329.107 331.337C329.166 331.163 329.242 330.929 329.331 330.651L329.332 330.65C329.841 329.076 329.986 327.262 329.967 325.525C329.953 324.218 328.934 323.142 327.629 323.058C326.325 322.973 325.175 323.907 324.992 325.201C324.712 327.179 324.452 328.628 324.295 329.503C324.267 329.658 324.243 329.794 324.222 329.913C324.191 330.088 324.155 330.298 324.135 330.461C324.13 330.506 324.122 330.582 324.117 330.671C324.117 330.672 324.117 330.673 324.117 330.675C324.114 330.72 324.098 330.979 324.155 331.287C324.156 331.29 324.156 331.293 324.157 331.296C324.176 331.402 324.283 332.001 324.784 332.541C325.109 332.891 325.624 333.238 326.314 333.322C326.966 333.402 327.485 333.211 327.787 333.051C328.296 332.782 328.572 332.407 328.631 332.327C328.633 332.325 328.634 332.323 328.635 332.321C328.734 332.187 328.8 332.071 328.83 332.014C328.966 331.764 329.07 331.449 329.101 331.355C329.103 331.348 329.105 331.342 329.107 331.337Z" fill="#E83C1F" stroke="#E83C1F" stroke-width="5" stroke-linejoin="round"/>
<path d="M168.245 355.665C168.245 354.537 167.49 353.549 166.403 353.253C166.287 353.221 166.143 353.174 165.915 353.098C164.882 352.754 163.745 353.117 163.104 353.997C162.462 354.877 162.464 356.07 163.108 356.948C163.235 357.121 163.393 357.324 163.572 357.512L163.573 357.513C163.688 357.635 164.069 358.037 164.661 358.271C165.001 358.406 165.609 358.562 166.327 358.361C167.093 358.146 167.579 357.64 167.841 357.207C168.246 356.539 168.245 355.855 168.245 355.675C168.245 355.671 168.245 355.668 168.245 355.665ZM165.124 355.469L165.059 355.665H164.858H163.245C163.245 355.635 163.246 355.534 163.271 355.39C163.292 355.267 163.355 354.961 163.565 354.615C163.8 354.228 164.251 353.75 164.976 353.547C165.276 353.463 165.553 353.445 165.793 353.462C165.998 353.476 166.176 353.515 166.319 353.559C166.388 353.579 166.449 353.601 166.501 353.622C166.787 353.735 166.973 353.875 167.047 353.934C167.078 353.959 167.105 353.981 167.126 354.001L165.967 354.851L165.124 355.469Z" fill="#E83C1F" stroke="#E83C1F" stroke-width="5" stroke-linejoin="round"/>
<path d="M333.436 286.57C332.958 285.337 331.603 284.69 330.344 285.092C329.085 285.494 328.356 286.807 328.681 288.088L328.695 288.14C328.985 289.286 329.217 290.201 329.377 290.767L329.378 290.77C329.439 290.985 329.547 291.37 329.685 291.667C329.686 291.669 329.687 291.671 329.688 291.673C329.718 291.738 329.848 292.019 330.095 292.302C330.202 292.425 330.571 292.835 331.219 293.044C332.114 293.333 333.051 293.091 333.691 292.5C334.157 292.07 334.326 291.586 334.375 291.439C334.442 291.234 334.47 291.063 334.482 290.974C334.508 290.79 334.51 290.635 334.51 290.561C334.51 289.889 334.32 289.166 334.158 288.626C333.974 288.011 333.722 287.308 333.436 286.57Z" fill="#E83C1F" stroke="#E83C1F" stroke-width="5" stroke-linejoin="round"/>
<path d="M317.761 234.311C320.458 237.558 296.308 202.761 293.593 199.337C290.896 195.912 233.369 186.17 222.545 186.17C222.545 186.17 185.406 176.606 98.4761 231.968C98.4761 231.968 81.7077 238.108 75.5682 221.144C69.4286 204.181 60.237 156.59 60.237 156.59L58.0367 167.592L52.4828 151.178L48.7032 163.795L45.4915 151.178C45.4915 151.178 43.859 166.332 43.859 175.169C43.859 184.005 44.0364 195.717 38.997 197.527C33.9399 199.337 29.0779 201.479 27.4632 196.067L19.8864 238.09L27.4632 226.042C27.4632 226.042 24.216 256.598 27.4632 271.964C30.7104 287.331 29.628 256.669 30.1603 255.054C30.6927 253.439 37.9146 281.014 39.5294 283.356C41.1441 285.698 38.447 277.288 39.5294 269.764C40.6118 262.258 53.228 297.41 57.0253 301.384C60.8226 305.359 59.1901 291.11 59.7225 288.396C60.2548 285.698 82.9853 317.425 85.8776 319.058C88.77 320.673 81.548 303.017 79.9333 299.22C78.3185 295.422 122.662 338.168 125.909 340.333C129.156 342.498 120.852 326.635 118.705 322.837C116.575 319.111 151.993 350.82 165.142 355.451C163.332 352.914 158.186 341.416 158.186 341.416C158.186 341.416 202.369 379.105 215.536 380.719L207.781 368.635C207.781 368.635 226.537 389.006 260.979 389.006L251.06 378.005C251.06 378.005 295.953 394.418 298.118 394.95C300.283 395.483 305.145 378.005 306.227 362.673C307.31 347.342 308.392 337.068 308.392 337.068C308.392 337.068 312.367 351.849 312.899 361.059C312.899 361.059 323.723 324.807 323.723 316.165C323.723 309.085 327.343 318.295 327.467 325.534C328.78 316.183 330.519 295.511 323.723 271.982C323.723 271.982 328.958 281.99 331.105 287.473C328.337 276.418 319.376 239.563 306.777 223.841C306.76 223.841 315.064 231.063 317.761 234.311ZM269.07 280.109C259.701 285.521 237.876 293.807 200.737 294.89C163.598 295.972 163.485 274.974 163.485 274.974L158.896 266.215C158.896 266.215 165.39 264.6 166.845 261.282C168.3 257.964 167.91 247.104 168.815 248.364C169.72 249.624 170.43 257.201 170.43 257.201C174.759 251.789 182.159 240.255 182.159 240.255L180.544 247.832C180.544 247.832 185.956 247.832 189.026 246.022C192.095 244.212 200.205 230.158 200.205 230.158C200.205 230.158 194.97 244.035 196.957 242.42C198.945 240.805 214.631 228.721 214.631 228.721L225.082 230.886C232.659 233.778 249.073 233.406 249.073 233.406L237.344 227.639C237.344 227.639 268.183 237.735 264.936 235.393C261.689 233.051 259.169 229.076 259.169 229.076C263.676 232.678 280.267 239.723 280.267 239.723L271.253 230.354L283.514 238.835C286.762 243.343 287.667 256.154 287.667 256.154C287.116 264.423 278.457 274.697 269.07 280.109Z" fill="#E83C1F"/>
<path fill-rule="evenodd" clip-rule="evenodd" d="M222.545 186.17C233.369 186.17 290.896 195.912 293.593 199.337C295.03 201.15 302.476 211.756 308.765 220.855C308.973 221.156 309.179 221.455 309.384 221.752C309.597 222.061 309.808 222.367 310.017 222.67C312.051 225.62 313.902 228.325 315.306 230.404C315.567 230.791 315.813 231.156 316.042 231.497C316.94 232.837 317.572 233.804 317.835 234.25C318.032 234.583 318.021 234.624 317.761 234.311C317.485 233.979 317.151 233.606 316.774 233.203C316.393 232.797 315.967 232.361 315.513 231.907C313.423 229.819 310.716 227.355 308.873 225.705C308.086 225 307.456 224.444 307.1 224.129C306.89 223.944 306.775 223.842 306.777 223.842C307.363 224.573 307.941 225.349 308.511 226.167C309.798 228.014 311.043 230.07 312.245 232.28C312.774 233.254 313.294 234.258 313.806 235.287C318.991 245.717 323.266 258.753 326.367 269.557C326.454 269.861 326.541 270.163 326.626 270.464C326.686 270.674 326.745 270.884 326.804 271.092C328.151 275.859 329.256 280.126 330.096 283.45C330.383 284.584 330.639 285.609 330.863 286.506C330.948 286.847 331.029 287.17 331.105 287.473C330.939 287.051 330.756 286.602 330.558 286.133C328.183 280.508 323.723 271.982 323.723 271.982C324.931 276.165 325.87 280.258 326.589 284.214C326.767 285.195 326.932 286.169 327.085 287.133C328.668 297.161 328.872 306.192 328.563 313.405C328.348 318.417 327.886 322.552 327.467 325.535C327.439 323.865 327.224 322.091 326.911 320.436C326.656 319.09 326.336 317.822 325.998 316.753C325.933 316.55 325.868 316.354 325.803 316.166C325.51 315.326 325.211 314.646 324.934 314.202C324.264 313.126 323.723 313.429 323.723 316.166C323.723 316.463 323.71 316.794 323.685 317.155C323.621 318.087 323.477 319.221 323.268 320.512C321.949 328.667 318.047 343.072 315.424 352.335C313.963 357.495 312.899 361.059 312.899 361.059C312.745 358.39 312.301 355.253 311.749 352.144C311.505 350.767 311.239 349.395 310.968 348.072C309.738 342.073 308.392 337.068 308.392 337.068C308.392 337.068 307.95 341.261 307.349 348.286C307.009 352.258 306.618 357.136 306.227 362.674C305.145 378.005 300.283 395.483 298.118 394.951C296.501 394.553 271.038 385.292 258.26 380.633C253.933 379.055 251.06 378.005 251.06 378.005L260.979 389.006C259.288 389.006 257.635 388.957 256.02 388.864C237.975 387.82 224.695 381.248 216.689 375.874C210.817 371.933 207.781 368.636 207.781 368.636L215.536 380.72C214.084 380.542 212.255 379.925 210.149 378.968C197.685 373.306 175.535 355.734 164.624 346.78C160.665 343.531 158.186 341.416 158.186 341.416C158.186 341.416 159.923 345.298 161.734 349.048C161.911 349.415 162.089 349.78 162.266 350.141C163.393 352.438 164.486 354.533 165.142 355.452C163.561 354.895 161.658 353.947 159.537 352.716C150.551 347.499 137.652 337.206 128.749 330.102C127.425 329.045 126.19 328.059 125.069 327.171C123.756 326.131 122.6 325.225 121.642 324.497C120.41 323.559 119.507 322.916 119.021 322.659C119.02 322.658 119.02 322.658 119.019 322.658C118.63 322.452 118.51 322.496 118.705 322.837C119.076 323.494 119.632 324.512 120.28 325.735C120.874 326.856 121.546 328.15 122.225 329.496C123.063 331.157 123.912 332.899 124.64 334.495C125.05 335.395 125.422 336.248 125.73 337.015C126.111 337.961 126.397 338.775 126.544 339.381C126.787 340.39 126.644 340.823 125.909 340.333C125.568 340.106 124.772 339.43 123.624 338.407C123.057 337.902 122.403 337.311 121.675 336.648C118.549 333.8 114.057 329.612 109.167 325.053C100.825 317.277 91.3247 308.419 85.4676 303.288C84.4887 302.43 83.6116 301.677 82.8587 301.05C81.6222 300.02 80.7206 299.332 80.2533 299.084C79.9357 298.915 79.8186 298.95 79.9333 299.22C80.2178 299.889 80.6764 300.988 81.223 302.336C81.5993 303.264 82.0172 304.31 82.4489 305.415C83.4361 307.942 84.4949 310.777 85.2899 313.213C85.5661 314.059 85.8104 314.857 86.0088 315.577C86.2646 316.506 86.4442 317.305 86.5173 317.912C86.5177 317.916 86.5182 317.919 86.5186 317.922C86.6367 318.915 86.4675 319.387 85.8776 319.058C85.4748 318.831 84.6871 318.019 83.6282 316.799C83.1631 316.263 82.6458 315.648 82.0858 314.969C79.9018 312.32 77.0684 308.694 74.1562 304.968C70.1571 299.851 66.0094 294.544 63.1903 291.315C62.9629 291.054 62.744 290.807 62.5346 290.575C61.6822 289.629 60.986 288.927 60.4985 288.549C60.4979 288.548 60.4973 288.548 60.4967 288.547C60.0471 288.199 59.7753 288.128 59.7225 288.396C59.5981 289.03 59.5919 290.294 59.607 291.808C59.6099 292.097 59.6135 292.394 59.6173 292.698C59.6174 292.71 59.6176 292.721 59.6177 292.732C59.6422 294.718 59.6701 296.974 59.5155 298.772C59.5135 298.795 59.5115 298.818 59.5095 298.841C59.5039 298.904 59.498 298.966 59.4919 299.028C59.2447 301.539 58.6046 303.038 57.0253 301.385C56.6941 301.038 56.2958 300.454 55.8439 299.682C55.8273 299.653 55.8106 299.625 55.7939 299.596C54.1543 296.769 51.8278 291.531 49.4429 286.161C47.1216 280.934 44.7449 275.583 42.8927 272.21C42.7285 271.911 42.5684 271.628 42.4129 271.361C42.1239 270.866 41.8505 270.43 41.5954 270.062C41.5952 270.062 41.595 270.062 41.5948 270.061C40.5141 268.502 39.76 268.165 39.5294 269.764C39.4419 270.372 39.3791 270.986 39.3368 271.599C39.3232 271.796 39.3117 271.993 39.3021 272.189C39.2874 272.492 39.2774 272.795 39.2715 273.096C39.2201 275.718 39.4829 278.241 39.7185 280.174C39.7583 280.501 39.7974 280.811 39.834 281.101C39.9339 281.893 40.0157 282.542 40.0461 283C40.1003 283.817 39.9911 284.026 39.5294 283.356C39.2717 282.983 38.8713 281.966 38.378 280.529C37.6427 278.386 36.7013 275.306 35.7191 272.023C35.3449 270.773 34.9648 269.493 34.588 268.223C34.2273 267.008 33.8696 265.804 33.5229 264.644C32.7999 262.227 32.1247 260.007 31.57 258.306C31.0329 256.66 30.6087 255.501 30.3634 255.121C30.2663 254.97 30.1973 254.942 30.1603 255.054C30.0599 255.359 30.0169 256.697 29.9915 258.566C29.979 259.491 29.9707 260.545 29.9619 261.668C29.9574 262.243 29.9527 262.836 29.9473 263.439C29.9422 264.003 29.9364 264.575 29.9294 265.149C29.9025 267.359 29.8574 269.596 29.7639 271.478C29.7417 271.926 29.7167 272.354 29.6885 272.757C29.4203 276.593 28.866 278.134 27.672 272.916C27.6045 272.621 27.5349 272.304 27.4632 271.964C26.9401 269.489 26.5855 266.619 26.3588 263.546C25.6259 253.615 26.2282 241.564 26.7907 233.85C27.1344 229.136 27.4632 226.042 27.4632 226.042L19.8864 238.09L27.4632 196.067C28.0718 198.107 29.1417 199.074 30.5094 199.389C32.5548 199.862 35.2663 198.878 38.0974 197.852C38.3962 197.743 38.6963 197.634 38.997 197.527C43.8722 195.776 43.865 184.759 43.8594 176.042C43.8592 175.748 43.859 175.457 43.859 175.169C43.859 171.341 44.1653 166.328 44.5126 161.875C44.967 156.047 45.4915 151.179 45.4915 151.179L48.7032 163.795L52.4828 151.179L58.0367 167.592L60.237 156.591C60.237 156.591 60.9308 160.183 62.0645 165.745C65.0573 180.429 71.1154 208.842 75.5682 221.145C81.7077 238.108 98.4761 231.969 98.4761 231.969C185.406 176.606 222.545 186.17 222.545 186.17ZM96.9328 228.699C96.8798 228.715 96.8208 228.732 96.756 228.751C96.3783 228.859 95.8106 229.004 95.1036 229.136C93.6725 229.403 91.7635 229.594 89.7451 229.355C87.7435 229.119 85.7041 228.47 83.8775 227.113C82.0707 225.77 80.2653 223.582 78.9414 219.924C75.9669 211.705 72.1809 195.807 69.1048 181.74C67.5772 174.754 66.2402 168.294 65.2851 163.579C64.8076 161.223 64.4258 159.303 64.1635 157.974C64.0323 157.31 63.9311 156.792 63.8627 156.442C63.8286 156.267 63.8026 156.133 63.7852 156.044L63.7594 155.911C63.7593 155.91 63.7593 155.91 60.237 156.591L63.7594 155.911C63.4343 154.227 61.9634 153.009 60.2489 153.003C59.0875 152.999 58.0342 153.553 57.371 154.432L55.8809 150.029C55.3804 148.55 53.9808 147.564 52.4196 147.592C50.8584 147.619 49.4944 148.653 49.0463 150.149L48.9841 150.357L48.968 150.294C48.5397 148.611 46.9685 147.477 45.2371 147.6C43.5056 147.723 42.1107 149.068 41.9247 150.794L45.4915 151.179C41.9247 150.794 41.9248 150.794 41.9247 150.794L41.9056 150.974C41.8934 151.09 41.8756 151.259 41.853 151.478C41.8078 151.915 41.7434 152.548 41.6662 153.334C41.5119 154.906 41.3061 157.094 41.1003 159.562C40.6914 164.464 40.2716 170.59 40.2716 175.169C40.2716 175.435 40.2717 175.703 40.2719 175.971C40.2739 180.256 40.276 184.769 39.7638 188.494C39.492 190.472 39.1039 191.979 38.6289 193.002C38.1661 193.999 37.8146 194.14 37.7861 194.15C37.4492 194.271 37.1268 194.387 36.8155 194.5C35.8798 194.84 35.045 195.142 34.223 195.398C33.1315 195.737 32.3495 195.898 31.79 195.921C31.4875 195.933 31.3403 195.903 31.2856 195.886C31.2284 195.822 31.0684 195.603 30.9008 195.041C30.4261 193.45 28.9212 192.393 27.2632 192.485C25.6052 192.578 24.2274 193.796 23.9328 195.431L16.3559 237.454C16.0511 239.145 16.9877 240.814 18.5895 241.435C20.1218 242.029 21.8513 241.504 22.7991 240.185C22.7498 241.128 22.7034 242.098 22.6613 243.089C22.2557 252.642 22.2262 264.533 23.9533 272.706C24.3563 274.613 24.7584 276.163 25.2165 277.184C25.3404 277.461 25.5232 277.825 25.7856 278.187C26.0005 278.484 26.5462 279.175 27.521 279.572C28.8009 280.092 30.1492 279.845 31.1304 279.139C31.8845 278.596 32.2522 277.913 32.3987 277.616C32.7182 276.966 32.8669 276.268 32.9481 275.829C32.9698 275.711 32.9903 275.591 33.0097 275.468C33.3661 276.642 33.712 277.766 34.0383 278.799C34.4996 280.26 34.9337 281.578 35.312 282.623C35.5005 283.144 35.6875 283.631 35.8673 284.049C36.0202 284.406 36.2587 284.932 36.5758 285.392C36.7209 285.603 36.9754 285.955 37.3232 286.283C37.4951 286.445 37.8252 286.732 38.3026 286.965C38.7847 287.2 39.6971 287.511 40.8104 287.236C41.9749 286.947 42.6778 286.19 43.032 285.631C43.3582 285.115 43.4854 284.634 43.5396 284.388C43.6492 283.891 43.6487 283.44 43.6453 283.223C43.6392 282.824 43.5897 282.291 43.5241 281.717C43.6777 282.055 43.8327 282.397 43.989 282.744C44.6909 284.3 45.4168 285.935 46.1427 287.569C47.3262 290.233 48.5094 292.897 49.5875 295.221C50.464 297.11 51.3062 298.853 52.0651 300.27C52.7592 301.566 53.575 302.966 54.4314 303.863C55.0324 304.492 56.3937 305.752 58.3723 305.663C60.7171 305.556 61.8326 303.756 62.2141 302.953C62.6421 302.052 62.8426 301.049 62.9579 300.248C63.0817 299.388 63.1472 298.453 63.1829 297.539C63.191 297.332 63.1977 297.122 63.2031 296.911C64.976 299.083 67.0034 301.651 69.0913 304.316C69.8293 305.258 70.5744 306.211 71.3164 307.16C73.6277 310.118 75.909 313.037 77.8514 315.449C79.134 317.042 80.3019 318.455 81.2562 319.536C81.7313 320.074 82.1846 320.565 82.5926 320.968C82.9203 321.291 83.4756 321.822 84.1143 322.182L84.1289 322.19C84.596 322.451 85.9804 323.126 87.6186 322.481C89.3753 321.79 89.8809 320.22 90.0173 319.619C90.1728 318.934 90.1505 318.289 90.1179 317.872C90.0814 317.406 90.0049 316.928 89.9147 316.474C89.5918 314.849 88.9194 312.691 88.1672 310.516C91.3335 313.39 94.9555 316.733 98.6569 320.17C101.345 322.665 104.085 325.22 106.714 327.671C109.576 330.339 112.305 332.883 114.69 335.093C116.986 337.222 118.994 339.069 120.535 340.456C121.954 341.734 123.24 342.866 123.919 343.318C124.234 343.528 125.126 344.104 126.331 344.122C127.06 344.134 127.935 343.938 128.719 343.336C129.467 342.76 129.838 342.039 130.016 341.513C130.33 340.589 130.237 339.736 130.191 339.383C130.13 338.918 130.018 338.46 129.904 338.06C129.623 337.079 129.152 335.862 128.597 334.57C130.272 335.904 132.07 337.332 133.977 338.831C139.109 342.864 144.769 347.197 149.994 350.825C155.117 354.382 160.154 357.498 163.95 358.835C165.426 359.355 167.068 358.858 168.009 357.608C168.658 356.744 168.87 355.659 168.639 354.65C171.995 357.335 175.795 360.317 179.756 363.321C186.137 368.16 192.99 373.094 199.114 376.936C202.174 378.856 205.105 380.536 207.739 381.801C210.304 383.033 212.861 384.006 215.099 384.28C216.479 384.45 217.833 383.806 218.573 382.629C218.784 382.293 218.934 381.931 219.024 381.557C219.246 381.686 219.47 381.814 219.697 381.943C229.122 387.279 243.025 392.594 260.979 392.594C262.396 392.594 263.681 391.759 264.257 390.464C264.833 389.169 264.592 387.657 263.643 386.604L263.386 386.318C266.271 387.369 269.402 388.507 272.554 389.65C278.302 391.736 284.123 393.84 288.644 395.456C290.904 396.264 292.846 396.953 294.294 397.457C295.626 397.921 296.78 398.316 297.261 398.434C298.695 398.787 299.872 398.274 300.535 397.835C301.173 397.413 301.624 396.884 301.915 396.496C302.51 395.701 303.014 394.698 303.441 393.708C304.32 391.666 305.218 388.855 306.05 385.666C307.72 379.257 309.247 370.836 309.806 362.926C309.807 362.911 309.808 362.896 309.809 362.881C310.364 363.822 311.337 364.488 312.483 364.622C314.213 364.824 315.838 363.754 316.336 362.085L312.899 361.059C316.336 362.085 316.336 362.086 316.336 362.085L316.337 362.083L316.339 362.078L316.345 362.057L316.46 361.669C316.54 361.398 316.657 361.002 316.806 360.495C317.104 359.481 317.529 358.024 318.038 356.25C319.057 352.702 320.417 347.878 321.777 342.777C323.056 337.983 324.343 332.919 325.35 328.431C325.887 328.824 326.538 329.072 327.248 329.115C329.117 329.23 330.759 327.888 331.02 326.033C331.979 319.202 333.16 306.511 331.258 291.058C331.57 291.044 331.885 290.99 332.197 290.89C333.999 290.314 335.044 288.437 334.585 286.602C334.508 286.297 334.427 285.971 334.341 285.627C332.873 279.748 330.009 268.283 326.033 256.279C324.016 250.191 321.674 243.839 319.03 237.952C319.271 237.877 319.522 237.771 319.775 237.623C320.923 236.954 321.342 235.901 321.476 235.281C321.602 234.703 321.553 234.235 321.526 234.036C321.47 233.616 321.35 233.302 321.317 233.216C321.18 232.855 320.986 232.531 320.95 232.47C320.861 232.318 320.755 232.146 320.644 231.97C320.203 231.269 319.441 230.12 318.479 228.693C316.539 225.815 313.679 221.648 310.656 217.283C304.662 208.629 297.857 198.942 296.405 197.109M31.2595 195.875C31.2598 195.875 31.2647 195.876 31.2732 195.881C31.2634 195.878 31.2592 195.875 31.2595 195.875ZM31.296 195.896C31.3042 195.903 31.3079 195.906 31.3078 195.907C31.3076 195.907 31.3035 195.904 31.296 195.896ZM96.9328 228.699C140.464 201.024 171.741 189.435 192.322 184.809C202.646 182.488 210.277 181.92 215.407 181.954C217.971 181.97 219.908 182.137 221.24 182.31C221.905 182.396 222.42 182.483 222.786 182.554C222.844 182.565 222.899 182.576 222.951 182.587C226.053 182.64 231.714 183.274 238.327 184.193C245.336 185.167 253.671 186.499 261.746 187.938C269.813 189.375 277.666 190.927 283.696 192.342C286.702 193.048 289.319 193.735 291.306 194.372C292.292 194.688 293.2 195.017 293.951 195.357C294.327 195.528 294.724 195.728 295.098 195.964C295.428 196.173 295.955 196.54 296.404 197.108M31.7627 274.247C31.7623 274.247 31.762 274.246 31.7617 274.245C31.7671 274.256 31.7673 274.258 31.7627 274.247ZM36.4714 283.334C36.4718 283.356 36.4707 283.35 36.4712 283.321C36.4713 283.325 36.4714 283.33 36.4714 283.334ZM59.7182 298.999C59.7184 299.001 59.695 298.983 59.6471 298.935C59.6941 298.971 59.718 298.996 59.7182 298.999ZM82.9673 318.478C82.967 318.478 82.9664 318.469 82.9664 318.451C82.9675 318.469 82.9675 318.478 82.9673 318.478ZM267.276 277.003L267.279 277.001C271.569 274.527 275.74 270.906 278.876 266.968C281.985 263.064 283.788 259.216 284.068 256.153C284.068 256.151 284.068 256.148 284.068 256.145C284.062 256.077 284.055 255.997 284.047 255.904C284.018 255.566 283.972 255.072 283.907 254.462C283.777 253.24 283.571 251.572 283.27 249.779C282.968 247.976 282.578 246.105 282.092 244.458C281.938 243.937 281.782 243.465 281.627 243.043C280.765 243.395 279.773 243.41 278.865 243.025L279.864 240.673C278.865 243.025 278.865 243.025 278.865 243.025L278.864 243.024L278.861 243.023L278.851 243.019L278.668 242.941C278.542 242.887 278.358 242.808 278.124 242.707C277.654 242.504 276.98 242.211 276.157 241.848C274.514 241.124 272.272 240.119 269.884 238.998C269.223 238.688 268.55 238.368 267.872 238.042C267.872 238.042 267.871 238.043 267.87 238.044C267.251 238.757 266.531 239.036 266.193 239.143C265.814 239.264 265.487 239.303 265.293 239.318C264.903 239.35 264.552 239.324 264.335 239.303C263.493 239.221 262.304 238.949 261.113 238.647C258.661 238.026 255.175 237.004 251.629 235.923C250.991 236.57 250.113 236.971 249.154 236.992L249.112 235.149C249.154 236.992 249.154 236.992 249.153 236.992L249.152 236.992L249.137 236.993L249.096 236.994C249.061 236.994 249.011 236.995 248.946 236.996C248.816 236.998 248.628 237.001 248.388 237.003C247.907 237.008 247.217 237.012 246.367 237.006C244.67 236.996 242.324 236.951 239.728 236.813C234.806 236.551 228.457 235.935 224.087 234.344L215.516 232.568C215.177 232.83 214.781 233.135 214.34 233.475C212.839 234.633 210.817 236.193 208.733 237.804C204.536 241.047 200.169 244.433 199.22 245.204C199.012 245.373 198.676 245.619 198.226 245.815C197.787 246.007 196.996 246.255 196.022 246.077C195.412 245.966 194.922 245.742 194.53 245.463C194.024 246.11 193.516 246.722 193.021 247.256C192.448 247.876 191.697 248.611 190.848 249.112C188.662 250.401 185.94 250.923 184.097 251.163C183.114 251.291 182.245 251.355 181.62 251.387C181.306 251.403 181.049 251.411 180.865 251.415C180.773 251.417 180.699 251.418 180.645 251.419L180.579 251.419L180.557 251.419L180.55 251.419H180.545C180.545 251.419 180.544 251.42 180.544 249.222L180.544 251.419C180.086 251.419 179.638 251.332 179.223 251.167C177.204 254.118 174.994 257.238 173.231 259.442C172.608 260.22 171.706 260.688 170.751 260.774C170.591 261.463 170.39 262.132 170.131 262.723C169.429 264.324 168.233 265.494 167.159 266.309C166.119 267.1 164.983 267.716 163.976 268.182L166.662 273.309C166.923 273.806 167.063 274.356 167.072 274.916C167.072 274.925 167.073 274.946 167.075 274.979C167.08 275.057 167.092 275.202 167.119 275.404C167.172 275.808 167.284 276.431 167.516 277.198C167.979 278.728 168.917 280.821 170.833 282.919C174.58 287.022 182.731 291.826 200.632 291.304C237.312 290.235 258.527 282.056 267.276 277.003ZM163.485 274.974L158.896 266.215C158.896 266.215 160.51 265.814 162.309 265C164.119 264.182 166.116 262.946 166.845 261.282C167.081 260.744 167.269 260.007 167.421 259.155C167.516 258.628 167.596 258.056 167.667 257.46C167.755 256.72 167.826 255.944 167.888 255.168C167.904 254.97 167.919 254.771 167.934 254.574C167.984 253.903 168.028 253.241 168.069 252.612C168.087 252.341 168.104 252.077 168.122 251.82C168.22 250.368 168.315 249.178 168.466 248.615C168.557 248.273 168.669 248.162 168.815 248.364C169.153 248.835 169.463 250.185 169.72 251.692C169.743 251.831 169.766 251.97 169.789 252.11C170.18 254.54 170.43 257.201 170.43 257.201C170.747 256.805 171.08 256.376 171.426 255.921C172.098 255.037 172.817 254.055 173.552 253.026C174.688 251.436 175.863 249.733 176.967 248.107C177.174 247.802 177.379 247.499 177.58 247.2C180.132 243.414 182.159 240.255 182.159 240.255L180.544 247.832C180.544 247.832 180.906 247.832 181.497 247.801C182.186 247.764 183.184 247.685 184.28 247.513C185.875 247.263 187.677 246.818 189.026 246.022C189.978 245.461 191.415 243.722 192.944 241.589C196.346 236.846 200.205 230.159 200.205 230.159C200.205 230.159 198.796 233.894 197.717 237.263C197.526 237.86 197.345 238.447 197.184 238.999C196.833 240.203 196.578 241.243 196.52 241.881C196.484 242.272 196.522 242.511 196.657 242.546C196.729 242.565 196.828 242.525 196.957 242.42C197.349 242.102 198.274 241.376 199.506 240.417C199.909 240.102 200.345 239.763 200.806 239.405C206.081 235.308 214.631 228.721 214.631 228.721L225.082 230.886C229.058 232.404 235.468 233.023 240.662 233.268C241.64 233.314 242.576 233.347 243.444 233.37C246.747 233.459 249.073 233.406 249.073 233.406L237.344 227.639C237.344 227.639 240.181 228.568 244.044 229.797C245.58 230.286 247.279 230.822 249.026 231.366C249.328 231.46 249.632 231.555 249.936 231.649C250.798 231.916 251.667 232.184 252.53 232.447C254.645 233.093 256.721 233.712 258.56 234.235C259.69 234.558 260.731 234.844 261.636 235.078C261.897 235.146 262.147 235.209 262.385 235.267C263.419 235.522 264.218 235.688 264.691 235.733C265.216 235.783 265.34 235.685 264.936 235.393C264.066 234.766 263.248 234.021 262.518 233.267C261.788 232.515 261.145 231.753 260.622 231.089C259.713 229.935 259.169 229.076 259.169 229.076C260.176 229.881 261.787 230.858 263.681 231.89C263.887 232.002 264.096 232.115 264.309 232.228C264.989 232.591 265.699 232.96 266.426 233.328C267.117 233.678 267.823 234.029 268.532 234.375C269.531 234.862 270.536 235.341 271.515 235.801C272.889 236.445 274.213 237.05 275.397 237.583C278.234 238.859 280.267 239.723 280.267 239.723L271.253 230.354L283.514 238.836C283.623 238.986 283.728 239.145 283.831 239.313C286.821 244.182 287.667 256.154 287.667 256.154C287.116 264.423 278.457 274.697 269.07 280.109C259.701 285.521 237.876 293.808 200.737 294.89C163.598 295.972 163.485 274.974 163.485 274.974ZM200.092 242.208C200.092 242.205 200.093 242.201 200.093 242.197C200.092 242.231 200.09 242.237 200.092 242.208Z" fill="#E83C1F"/>
<path d="M281.467 236.381C285.619 241.456 286.702 240.161 290.836 250.63C294.988 261.081 294.988 276.59 294.988 276.59L291.901 264.612L293.001 293.181C293.001 293.181 291.014 285.249 291.014 288.674C291.014 292.098 286.152 309.931 286.152 309.931L283.987 303.1L282.372 327.977L278.22 316.444C278.22 316.444 272.985 336.104 271.726 335.927C270.466 335.749 260.547 329.61 260.547 329.61L258.559 339.706L245.979 331.225C245.979 331.225 247.38 339.706 243.778 336.637C240.176 333.567 226.655 323.115 226.655 323.115C226.655 323.115 231.712 333.762 229.902 333.212C228.092 332.68 219.983 327.445 214.748 323.648C209.514 319.868 200.981 307.971 200.981 307.971L201.955 318.608C201.955 318.608 193.959 307.802 187.482 303.1C181.407 312.97 177.483 300.472 177.483 300.472L175.484 291.972C175.484 291.972 169.411 288.52 163.715 278.974C158.037 269.409 157.985 267.976 157.985 267.976L158.144 265.233C158.144 265.233 164.461 263.246 168.063 247.383C168.063 247.383 169.873 253.7 169.678 256.219C169.5 258.739 181.407 239.273 181.407 239.273L179.792 246.85C179.792 246.85 187.351 248.571 193.402 238.883C199.453 229.177 199.453 229.177 199.453 229.177L195.478 241.261L213.879 227.74C213.879 227.74 231.375 231.714 248.321 232.424L236.592 226.657C236.592 226.657 254.62 232.797 264.184 234.411C264.184 234.411 258.95 229.354 258.417 228.094C257.885 226.835 270.679 235.671 279.515 238.741L270.501 229.372C270.466 229.337 279.853 234.394 281.467 236.381Z" fill="#F7EDDB"/>
<path d="M259.744 323.636C261.236 323.797 261.236 323.797 261.236 323.797L261.236 323.797L261.236 323.795L261.237 323.788L261.24 323.762L261.25 323.66C261.26 323.571 261.274 323.44 261.291 323.273C261.327 322.937 261.377 322.453 261.437 321.86C261.557 320.674 261.717 319.049 261.876 317.293C262.017 315.725 262.159 314.031 262.271 312.446C262.661 313.564 263.01 314.62 263.246 315.332C263.276 315.421 263.304 315.505 263.33 315.583C263.366 315.691 263.412 315.817 263.47 315.941L263.471 315.943C263.508 316.021 263.635 316.289 263.895 316.517C264.04 316.644 264.342 316.862 264.79 316.898C265.29 316.939 265.688 316.732 265.935 316.512C266.292 316.191 266.397 315.79 266.418 315.713C266.418 315.71 266.419 315.707 266.42 315.705C266.487 315.454 266.505 315.179 266.513 314.995C266.523 314.777 266.524 314.522 266.52 314.246C266.502 313.153 266.388 311.464 266.226 309.654C266.063 307.834 265.847 305.853 265.619 304.162C265.587 303.93 265.555 303.701 265.523 303.476C267.003 303.909 269.037 304.16 271.765 303.885C272.424 303.819 272.961 303.329 273.087 302.679C273.214 302.03 272.9 301.374 272.314 301.066L272.314 301.066L272.314 301.066L272.304 301.061C272.294 301.055 272.278 301.046 272.255 301.034C272.21 301.009 272.139 300.97 272.046 300.916C271.861 300.81 271.587 300.647 271.246 300.431C270.564 299.998 269.622 299.354 268.596 298.517C266.822 297.07 264.867 295.105 263.528 292.719C264.811 292.017 266.118 291.242 267.44 290.386C268.101 289.958 268.319 289.094 267.94 288.404C267.561 287.715 266.715 287.435 266 287.763C266 287.763 266 287.763 266 287.763L265.999 287.763L265.996 287.765L265.978 287.773L265.9 287.808C265.829 287.84 265.721 287.888 265.577 287.951C265.289 288.076 264.855 288.263 264.28 288.5C263.13 288.976 261.415 289.658 259.174 290.477C254.691 292.113 248.103 294.295 239.71 296.46C238.987 296.647 238.511 297.337 238.594 298.079C238.677 298.821 239.293 299.389 240.04 299.412L240.085 297.913C240.04 299.412 240.04 299.412 240.04 299.412L240.041 299.412L240.042 299.412L240.045 299.412L240.053 299.412L240.079 299.413C240.101 299.413 240.13 299.414 240.167 299.414C240.242 299.415 240.348 299.415 240.485 299.414C240.758 299.411 241.153 299.4 241.657 299.372C242.276 299.338 243.06 299.276 243.988 299.167L242.619 313.407C242.555 314.077 242.944 314.708 243.572 314.95C244.2 315.193 244.912 314.987 245.315 314.448L244.112 313.551C245.315 314.448 245.315 314.448 245.315 314.448L245.315 314.447L245.316 314.446L245.319 314.443L245.33 314.427L245.373 314.369C245.411 314.318 245.466 314.244 245.537 314.149C245.678 313.958 245.879 313.685 246.122 313.354C246.608 312.692 247.261 311.793 247.929 310.852C248.335 310.28 248.749 309.688 249.136 309.121C249.336 310.149 249.549 311.33 249.759 312.536C250.09 314.446 250.408 316.399 250.643 317.876C250.761 318.614 250.858 319.233 250.925 319.667C250.959 319.883 250.985 320.054 251.003 320.17L251.023 320.303L251.029 320.337L251.03 320.345L251.03 320.347L251.03 320.348C251.03 320.348 251.03 320.348 252.513 320.122M259.744 323.636C258.298 324.034 258.298 324.034 258.298 324.034L258.298 324.033L258.297 324.031L258.295 324.023L258.286 323.989L258.25 323.858C258.218 323.744 258.172 323.575 258.112 323.362C257.994 322.935 257.825 322.328 257.622 321.605C257.216 320.16 256.675 318.257 256.136 316.424C256.013 316.004 255.89 315.588 255.769 315.184C255.65 315.57 255.528 315.954 255.407 316.328C255.036 317.476 254.665 318.553 254.387 319.341C254.248 319.736 254.132 320.06 254.05 320.285C254.009 320.398 253.977 320.486 253.955 320.546L253.93 320.616L253.923 320.634L253.921 320.639L253.921 320.64L253.921 320.64C253.921 320.641 253.92 320.641 252.513 320.122M259.744 323.636L261.236 323.797C261.158 324.514 260.583 325.074 259.865 325.132C259.147 325.189 258.489 324.728 258.298 324.034L259.744 323.636ZM252.513 320.122L253.92 320.641C253.684 321.283 253.043 321.683 252.362 321.614C251.681 321.545 251.134 321.024 251.03 320.348L252.513 320.122Z" fill="#E83C1F" stroke="#E83C1F" stroke-width="3" stroke-linejoin="round"/>
<path d="M216.272 185.495C216.272 185.495 262.521 214.347 295.333 187.051C307.921 176.868 317.397 169.089 317.184 143.277C317.255 122.133 289.775 121.695 284.711 122.204C279.648 122.713 266.622 123.972 248.943 145.187C248.943 145.187 243.102 158.877 211.789 152.032" fill="#F5EBD8"/>
<path fill-rule="evenodd" clip-rule="evenodd" d="M248.943 145.186C266.576 124.027 279.58 122.719 284.672 122.208L284.711 122.204C289.775 121.694 317.255 122.133 317.184 143.277C317.397 169.089 307.921 176.867 295.333 187.051C262.521 214.347 216.272 185.495 216.272 185.495C215.512 186.712 215.513 186.713 215.514 186.713L215.516 186.715L215.524 186.72L215.553 186.738C215.578 186.753 215.614 186.775 215.661 186.803C215.754 186.86 215.891 186.942 216.07 187.048C216.427 187.259 216.952 187.562 217.628 187.937C218.981 188.686 220.944 189.721 223.401 190.875C228.31 193.182 235.209 195.974 243.159 197.903C259.029 201.754 279.339 202.217 296.243 188.16C302.504 183.095 308.22 178.458 312.285 171.77C316.376 165.037 318.726 156.358 318.619 143.274C318.636 137.649 316.811 133.319 313.93 130.045C311.073 126.798 307.247 124.665 303.358 123.27C295.609 120.489 287.247 120.506 284.568 120.776L284.535 120.779C281.932 121.041 277.221 121.514 270.92 124.645C264.61 127.78 256.783 133.537 247.841 144.268L247.706 144.43L247.627 144.614C247.627 144.615 247.626 144.616 247.625 144.618C247.622 144.624 247.618 144.634 247.611 144.647C247.606 144.658 247.6 144.67 247.592 144.685C247.558 144.753 247.497 144.864 247.407 145.012C247.226 145.308 246.924 145.749 246.464 146.27C245.549 147.309 243.993 148.686 241.49 149.881C236.488 152.27 227.547 154.008 212.095 150.63L211.789 152.032L211.482 153.434C211.652 153.471 211.822 153.508 211.991 153.544L211.789 152.032C243.102 158.877 248.943 145.186 248.943 145.186Z" fill="#E83C1F"/>
<path d="M261.545 200.557C255.661 200.557 249.48 199.779 243.088 198.224C227.332 194.405 215.819 187.291 215.338 186.994C214.504 186.471 214.264 185.381 214.773 184.561C215.296 183.727 216.385 183.486 217.205 183.995C217.319 184.066 228.775 191.138 244.007 194.815C264.175 199.695 281.062 196.625 294.201 185.693L294.216 185.678C306.633 175.623 315.614 168.367 315.416 143.291V143.277C315.431 138.171 313.691 133.999 310.226 130.845C306.096 127.083 300.198 125.4 295.969 124.636C290.934 123.731 286.522 123.802 284.881 123.957C280.143 124.424 267.584 125.668 250.442 146.148C249.608 147.789 244.658 155.709 227.7 155.709C223.174 155.709 217.799 155.143 211.421 153.757C210.473 153.545 209.865 152.611 210.077 151.65C210.289 150.702 211.223 150.094 212.185 150.306C227.601 153.672 236.37 151.862 241.023 149.74C245.803 147.562 247.217 144.72 247.331 144.493L247.43 144.239L247.599 144.055C255.322 134.777 263.115 128.158 270.766 124.339C277.159 121.157 281.953 120.69 284.542 120.435C286.493 120.237 291.203 120.181 296.606 121.143C303.409 122.359 308.797 124.749 312.616 128.214C316.845 132.061 318.981 137.125 318.966 143.263C319.065 155.497 317.043 164.605 312.588 171.931C308.486 178.692 302.645 183.416 296.479 188.408C288.728 194.843 279.62 198.775 269.38 200.062C266.82 200.402 264.204 200.557 261.545 200.557Z" fill="#E83C1F"/>
<path fill-rule="evenodd" clip-rule="evenodd" d="M214.584 188.215L214.576 188.21C213.067 187.263 212.631 185.29 213.554 183.805L213.557 183.799C214.504 182.289 216.477 181.854 217.962 182.776L217.966 182.779C217.966 182.779 218.145 182.89 218.49 183.092C218.833 183.293 219.338 183.583 219.99 183.942C221.294 184.659 223.185 185.65 225.544 186.753C230.267 188.962 236.846 191.61 244.344 193.42C264.151 198.212 280.526 195.177 293.234 184.631L293.254 184.611L293.313 184.563C299.557 179.507 304.699 175.329 308.321 169.372C311.915 163.461 314.079 155.664 313.981 143.302L313.981 143.297V143.273C313.995 138.531 312.396 134.761 309.26 131.906C305.436 128.423 299.87 126.799 295.714 126.048C290.815 125.168 286.536 125.242 285.019 125.386C285.018 125.386 285.017 125.386 285.017 125.386C282.718 125.612 278.596 126.018 272.953 128.832C267.309 131.647 260.068 136.91 251.642 146.951C251.053 148.05 249.426 150.52 245.883 152.757C242.161 155.107 236.41 157.144 227.7 157.144C223.055 157.144 217.578 156.563 211.116 155.159L211.107 155.158C209.398 154.775 208.291 153.085 208.676 151.341L208.677 151.336C209.059 149.628 210.748 148.521 212.492 148.905C227.695 152.224 236.131 150.394 240.427 148.435C244.466 146.595 245.816 144.291 246.019 143.907L246.191 143.465L246.52 143.109C254.314 133.75 262.248 126.987 270.125 123.055L270.127 123.055C276.743 119.761 281.738 119.27 284.394 119.008L284.397 119.008C286.483 118.796 291.326 118.745 296.857 119.73L296.858 119.73C303.842 120.979 309.506 123.455 313.58 127.152L313.582 127.153C318.132 131.293 320.414 136.752 320.401 143.258C320.501 155.646 318.454 165.046 313.814 172.677C309.589 179.64 303.593 184.495 297.498 189.43L297.388 189.518C289.426 196.127 280.065 200.165 269.564 201.485C266.936 201.834 264.258 201.992 261.545 201.992C255.535 201.992 249.241 201.198 242.749 199.618C226.781 195.748 215.119 188.545 214.584 188.215ZM243.088 198.224C249.48 199.779 255.661 200.557 261.545 200.557C264.204 200.557 266.82 200.402 269.38 200.062C279.62 198.775 288.728 194.843 296.479 188.408L296.507 188.385C302.663 183.401 308.493 178.681 312.588 171.931C317.043 164.605 319.065 155.497 318.966 143.263C318.981 137.125 316.845 132.061 312.616 128.214C308.797 124.749 303.409 122.359 296.606 121.143C291.203 120.181 286.493 120.238 284.542 120.436L284.527 120.437C281.935 120.692 277.147 121.163 270.766 124.339C263.115 128.158 255.322 134.777 247.599 144.055L247.43 144.239L247.331 144.493L247.33 144.495C247.212 144.73 245.794 147.566 241.023 149.74C236.37 151.862 227.601 153.672 212.184 150.306C211.223 150.094 210.289 150.702 210.077 151.65C209.865 152.612 210.473 153.545 211.421 153.757C217.799 155.143 223.174 155.709 227.7 155.709C244.657 155.709 249.608 147.789 250.442 146.148C267.584 125.669 280.143 124.424 284.881 123.957C286.522 123.802 290.934 123.731 295.969 124.636C300.198 125.4 306.096 127.083 310.226 130.845C313.691 133.999 315.431 138.171 315.416 143.277V143.291C315.614 168.35 306.646 175.613 294.241 185.658L294.216 185.679L294.201 185.693C281.062 196.626 264.175 199.695 244.007 194.815C228.775 191.138 217.319 184.066 217.205 183.996C216.385 183.486 215.296 183.727 214.773 184.561C214.264 185.382 214.504 186.471 215.338 186.994L215.339 186.994C215.832 187.299 227.341 194.407 243.088 198.224Z" fill="#E83C1F"/>
<path fill-rule="evenodd" clip-rule="evenodd" d="M164.785 274.932C160.658 271.078 154.739 264.256 158.02 261.927C162.463 258.775 166.319 250.806 167.739 246.391C168.874 242.86 169.63 249.575 169.866 253.374L180.6 238.697L180.711 244.839C183.39 245.522 190.886 243.425 199.435 229.578L195.62 239.741C200.732 236.722 211.151 230.418 211.932 229.351L213.884 226.682C219.583 228.481 234.38 231.927 247.97 231.329L235.378 226.292C243.263 228.31 258.855 232.182 262.774 232.736C262.984 232.737 263.215 232.739 263.437 232.742L257.388 226.77C263.44 229.585 276.346 235.378 279.558 236.021L270.417 228.288C273.948 229.979 281.416 233.706 283.041 235.08C284.666 236.455 287.125 239.687 288.151 241.131C288.147 241.184 288.142 241.238 288.137 241.294C290.26 243.992 292.013 248.07 293.401 254.201C295.871 265.106 285.754 273.649 273.353 279.141C270.703 279.991 267.998 280.995 265.145 282.053C249.269 287.945 228.837 295.527 188.003 287.713C175.953 286.56 167.186 283.409 164.785 274.932Z" fill="#0A324F"/>
<path d="M285.193 270.837C261.083 255.009 234.667 266.121 234.667 266.121C194.863 261.203 186.897 286.036 186.897 286.036C186.897 286.036 210.388 293.505 244.656 286.254C278.924 279.002 285.193 270.837 285.193 270.837Z" fill="#E83C1F"/>
<path d="M185.575 287.517C185.433 287.523 185.29 287.514 185.148 287.505C183.931 287.359 183.095 286.369 183.269 285.316C183.294 285.128 184.061 280.649 188.759 275.597C191.46 272.696 194.946 270.164 199.078 268.086C204.179 265.526 210.331 263.65 217.34 262.498C227.482 260.826 227.901 261.01 249.93 270.324C251.039 270.787 251.494 271.95 250.961 272.926C250.428 273.902 249.1 274.307 247.991 273.844C237.222 269.292 231.819 267.002 228.108 266.083C224.704 265.243 222.785 265.566 218.136 266.328C206.673 268.217 197.758 272.201 192.365 277.862C188.333 282.087 187.65 285.83 187.652 285.861C187.507 286.788 186.62 287.468 185.575 287.517Z" fill="#0A324F"/>
<path d="M284.149 272.211C283.741 272.23 283.31 272.141 282.926 271.956C282.616 271.799 251.797 256.423 234.025 267.055C233.01 267.664 231.63 267.432 230.941 266.544C230.253 265.656 230.524 264.442 231.539 263.834C236.269 260.995 242.087 259.509 248.833 259.414C254.107 259.34 259.941 260.098 266.211 261.678C276.77 264.353 284.81 268.407 285.157 268.578C286.218 269.121 286.567 270.306 285.961 271.238C285.567 271.833 284.875 272.177 284.149 272.211Z" fill="#0A324F"/>
<path d="M7.55596 185.408L7.55694 185.409C9.70999 187.56 12.3017 188.906 15.1721 189.359C15.8102 192.256 17.3446 194.603 19.6628 196.247C22.1564 198.015 25.4814 198.917 29.415 198.917C32.6932 198.917 35.0088 197.876 36.6826 196.481C38.3223 195.115 39.2974 193.447 39.9616 192.302L40.0275 192.195C40.3132 191.732 40.527 191.385 40.6757 191.2C41.813 189.83 41.7272 187.753 40.4332 186.516L40.4261 186.509C39.0903 185.258 37.0296 185.363 35.8401 186.76L35.8394 186.761C35.3421 187.346 34.9497 187.999 34.5858 188.605C34.5521 188.661 34.5186 188.717 34.4853 188.772L34.4808 188.779C33.8703 189.812 33.372 190.635 32.6431 191.235C31.9604 191.798 31.0018 192.217 29.3795 192.217C27.3595 192.217 25.2879 191.916 23.7525 191.015C22.2997 190.163 21.2412 188.732 21.2412 186.168C21.2412 185.25 20.8919 184.396 20.2622 183.756L19.5492 184.457L20.2622 183.756C19.6164 183.099 18.7309 182.764 17.8379 182.819C15.5575 182.952 13.6166 182.198 11.9866 180.572C9.22421 177.798 7.4006 172.477 7.4006 166.597C7.4006 155.86 15.7109 147.199 25.8307 147.199C26.7029 147.199 27.5715 146.844 28.1827 146.14C28.7463 145.491 29.0734 144.649 29.0484 143.746L29.0479 143.735L29.0476 143.724L29.0466 143.691L29.0434 143.575C29.0407 143.477 29.037 143.336 29.0323 143.157C29.0231 142.798 29.0103 142.283 28.9949 141.629C28.964 140.323 28.9229 138.466 28.8794 136.209C28.7924 131.695 28.696 125.579 28.6539 119.062C28.5694 105.994 28.705 91.4158 29.5551 84.8331C30.3849 78.4701 33.9348 68.8537 38.802 59.4831C43.6686 50.1138 49.7662 41.1568 55.5906 36.0511L55.5912 36.0506C62.4947 29.9893 73.0009 24.5525 86.8855 19.9297C101.517 15.068 119.495 11.2443 140.318 8.61798L140.193 7.62584L140.318 8.61797C183.325 3.19048 220.421 22.6807 236.651 42.9737C243.141 51.0927 247.783 56.4254 251.157 60.3015L251.165 60.3097C256.873 66.8823 258.948 69.2705 261.067 74.7526C261.395 76.1832 263.216 84.4191 264.265 94.2998C265.338 104.403 265.578 116.022 262.736 123.881C262.117 125.569 262.923 127.491 264.571 128.173C266.289 128.884 268.131 127.917 268.749 126.241L268.751 126.235C272.118 116.922 271.796 103.89 270.639 93.1402C269.487 82.4315 267.481 73.7962 267.279 72.9485C267.246 72.7855 267.193 72.6248 267.149 72.5079L267.147 72.5031C264.546 65.7199 261.959 62.7439 255.972 55.8584L255.931 55.8116L255.931 55.8113C252.58 51.9607 248.013 46.7089 241.602 38.6975C231.963 26.6368 217.258 16.3164 200.2 9.57225L200.199 9.57216C181.056 2.00898 160.072 -0.625215 139.553 1.9714V1.9714C118.375 4.64657 99.9958 8.54957 84.9409 13.5577L84.94 13.558C70.396 18.4111 59.0956 24.2357 51.4677 30.9384C44.9089 36.6973 38.3196 46.3825 33.1498 56.348C27.9807 66.3119 24.151 76.7103 23.2066 83.9553L23.2064 83.9567C22.4157 90.087 22.209 102.15 22.2245 113.811C22.2391 124.813 22.4524 135.532 22.5736 140.746C10.3721 142.443 1 153.44 1 166.616C1 174.178 3.39165 181.235 7.55596 185.408Z" fill="#E83C1F" stroke="#E83C1F" stroke-width="2"/>
<rect x="33.5395" y="119.917" width="5.73981" height="8.60971" rx="2.8699" fill="#E83C1F"/>
<rect x="39.2793" y="79.0214" width="5.73981" height="7.89224" rx="2.8699" fill="#E83C1F"/>
<rect x="50.0415" y="105.568" width="5.73981" height="8.60971" rx="2.8699" fill="#E83C1F"/>
</svg>
