<svg width="22" height="21" viewBox="0 0 22 21" fill="none" xmlns="http://www.w3.org/2000/svg">
<path fill-rule="evenodd" clip-rule="evenodd" d="M3.72618 0H17.3158C19.3761 0 21.0419 1.66582 21.0419 3.72618V16.7897C21.0419 18.8501 19.3761 20.5159 17.3158 20.5159H3.72618C1.66582 20.5159 0 18.8501 0 16.7897V3.72618C0 1.66582 1.66582 0 3.72618 0ZM4.73453 14.3874V5.3657C4.73453 5.30433 4.76083 5.26926 4.8222 5.26926C4.97125 5.26926 5.11153 5.26926 5.31318 5.26049C5.42154 5.25597 5.53223 5.25378 5.64644 5.25152C5.75401 5.2494 5.86469 5.24721 5.97951 5.24295C6.10193 5.23842 6.22904 5.23623 6.36085 5.23396L6.36089 5.23396L6.36095 5.23396C6.48397 5.23184 6.61108 5.22965 6.74228 5.22542C7.01407 5.21665 7.27709 5.21665 7.54012 5.21665C8.25905 5.21665 8.85524 5.30433 9.34622 5.48844C9.78459 5.63749 10.1879 5.88298 10.5211 6.20738C10.8016 6.48794 11.0208 6.82987 11.1611 7.20687C11.2926 7.5751 11.3627 7.9521 11.3627 8.34664C11.3627 9.10064 11.1874 9.72313 10.8367 10.2141C10.486 10.7051 9.99501 11.0733 9.42512 11.2837C8.82894 11.5029 8.17138 11.5818 7.45244 11.5818C7.24202 11.5818 7.10174 11.5818 7.01407 11.5731C6.92639 11.5643 6.80365 11.5643 6.63707 11.5643V14.3787C6.64583 14.44 6.602 14.4926 6.54063 14.5014H6.50556H4.83974C4.7696 14.5014 4.73453 14.4663 4.73453 14.3874ZM6.64584 6.96138V9.90725L6.67214 9.90913C6.7849 9.91723 6.89011 9.92478 6.98777 9.92478H7.45244C7.79437 9.92478 8.1363 9.87218 8.4607 9.76697C8.74126 9.68806 8.98675 9.52148 9.17963 9.30229C9.36375 9.08311 9.45143 8.78501 9.45143 8.39924C9.46019 8.12745 9.39005 7.85566 9.24977 7.61894C9.10073 7.39099 8.89031 7.21564 8.63605 7.11919C8.31165 6.98768 7.96096 6.93508 7.60149 6.94384C7.37353 6.94384 7.17188 6.94384 7.0053 6.95261C6.82995 6.94384 6.70721 6.95261 6.64584 6.96138ZM15.992 9.07436C16.2901 9.13573 16.5707 9.23217 16.8337 9.37245C16.8688 9.38998 16.9126 9.38998 16.9915 9.37245C17.0178 9.35491 17.0354 9.31984 17.0354 9.28477V7.85568C17.0354 7.82061 17.0266 7.78554 17.0178 7.75047C17.0003 7.7154 16.9652 7.68033 16.9302 7.67156C16.6934 7.57512 16.4392 7.50498 16.1762 7.46991C15.8167 7.4173 15.4485 7.391 15.089 7.391C14.4665 7.391 13.9492 7.48744 13.5371 7.69786C13.1601 7.87321 12.8358 8.15377 12.6166 8.50447C12.4237 8.82887 12.3185 9.18833 12.3185 9.56533C12.3097 9.8722 12.3798 10.1791 12.5201 10.4596C12.6867 10.7577 12.9147 11.012 13.1864 11.2049C13.5722 11.4679 13.9843 11.6783 14.4314 11.8361C14.861 12.0027 15.1504 12.1342 15.2906 12.2482C15.4309 12.3622 15.5011 12.4761 15.5011 12.5989C15.5011 12.7567 15.4046 12.9057 15.2643 12.9671C15.1065 13.046 14.8698 13.0899 14.5366 13.0899C14.1859 13.0899 13.8352 13.046 13.5021 12.9583C13.1163 12.8707 12.7568 12.7304 12.4149 12.5287C12.3886 12.5112 12.3623 12.5024 12.336 12.52C12.3097 12.5375 12.3009 12.5726 12.3009 12.5989V14.1244C12.2922 14.1946 12.336 14.2559 12.3974 14.291C12.6779 14.4225 12.9848 14.519 13.2917 14.5716C13.6862 14.6505 14.0807 14.6855 14.484 14.6855C15.1153 14.6855 15.6413 14.5891 16.0709 14.405C16.4655 14.2472 16.8074 13.9754 17.0529 13.6247C17.2809 13.2827 17.4036 12.8707 17.3948 12.4586C17.4036 12.143 17.3335 11.8361 17.1932 11.5555C17.0266 11.2575 16.7899 11.012 16.5006 10.8278C16.0797 10.5648 15.6238 10.3456 15.1504 10.1878C14.9399 10.1001 14.7295 10.0037 14.5279 9.8985C14.4139 9.83713 14.3087 9.75822 14.2298 9.66178C14.1772 9.59164 14.1421 9.51273 14.1421 9.43382C14.1421 9.35491 14.1684 9.26724 14.2122 9.1971C14.2736 9.10943 14.3701 9.04805 14.484 9.02175C14.6506 8.97791 14.8347 8.95161 15.0101 8.96038C15.3432 8.96038 15.6676 9.00422 15.992 9.07436Z" fill="#E83C1F"/>
</svg>
