<svg width="601" height="601" viewBox="0 0 601 601" fill="none" xmlns="http://www.w3.org/2000/svg">
<path d="M396.539 158.196C396.28 155.31 397.318 152.21 399.569 149.04L415.903 127.19C418.299 124.106 420.849 122.088 423.82 121.683C426.731 121.048 429.686 122.001 432.856 124.252C436.026 126.502 437.583 129.173 437.842 132.058C438.102 134.944 437.063 138.044 434.813 141.214L431.65 145.606L425.686 141.131L429.249 136.388C431.159 133.799 430.994 131.75 428.901 130.326C426.748 128.673 424.674 129.213 422.849 131.657L406.003 154.378C404.179 156.821 404.344 158.87 406.497 160.524C408.65 162.178 410.724 161.638 412.549 159.194L417.195 152.939L423.16 157.415L418.854 163.089C416.458 166.174 413.908 168.192 410.937 168.596C408.026 169.231 405.071 168.278 401.901 166.028C398.586 163.692 396.799 161.081 396.539 158.196Z" fill="#E83C1F"/>
<path d="M449.982 138.986L455.556 144.795L440.707 159.121L446.631 165.33L461.479 151.004L467.052 156.812L430.575 192.028L425.002 186.22L441.394 170.262L435.47 164.053L419.078 180.011L413.505 174.203L449.982 138.986Z" fill="#E83C1F"/>
<path d="M474.593 165.922L486.984 183.735L481.047 187.866L473.196 176.621L462.268 184.266L468.536 193.216L462.598 197.346L456.33 188.397L443.652 197.359L451.503 208.603L445.565 212.733L433.174 194.92L474.593 165.922Z" fill="#E83C1F"/>
<path d="M492.211 192.464L501.931 211.834L495.523 215.103L489.251 202.832L477.296 208.899L482.302 218.669L475.893 221.938L470.888 212.167L456.979 219.235L463.251 231.506L456.842 234.774L447.122 215.404L492.211 192.464Z" fill="#E83C1F"/>
<path d="M505.954 221.614L509.501 232.871C510.752 236.729 510.841 239.905 509.623 242.314C508.405 244.723 505.794 246.511 502.167 247.701L499.231 248.712C494.221 250.263 490.489 249.635 488.035 246.829L487.805 246.889C487.824 248.853 487.177 250.621 485.659 251.878C484.141 253.134 482.101 254.281 479.165 255.292L470.673 258.118C469.291 258.479 468.198 259.009 467.422 259.334C466.645 259.66 465.783 260.13 465.127 260.917L462.625 253.201C463.342 252.645 463.973 252.235 464.75 251.909C465.381 251.499 466.619 251.054 468.462 250.573L477.33 247.772C479.489 247.086 480.982 246.205 481.579 245.189C482.176 244.172 482.191 242.814 481.626 241.116L480.82 238.496L460.149 245.11L457.707 237.625L505.954 221.614ZM488.65 238.794C489.155 240.262 489.916 241.295 490.933 241.891C491.95 242.488 493.392 242.358 495.321 241.732L498.948 240.542C500.647 239.976 501.824 239.301 502.421 238.284C502.932 237.412 503.008 236.285 502.648 234.903L501.517 231.506L487.784 235.944L488.65 238.794Z" fill="#E83C1F"/>
<path d="M468.513 264.464C470.397 262.251 473.298 260.634 477.336 260.074L480.162 259.585L481.246 267.054L477.814 267.579C474.613 268.043 473.214 269.761 473.559 272.501C473.774 273.799 474.39 274.746 475.176 275.402C476.047 275.914 477.465 276.16 479.223 275.825C481.357 275.515 482.996 274.719 484.514 273.463C486.033 272.206 487.601 270.198 489.391 267.148C491.752 263.457 493.892 260.807 496.042 259.14C498.191 257.473 500.606 256.352 503.577 255.947C507.47 255.303 510.68 255.82 513.21 257.499C515.739 259.178 517.295 261.849 517.795 265.656C518.38 269.318 517.717 272.444 515.978 274.742C514.093 276.956 511.192 278.573 507.155 279.132L505.02 279.442L503.936 271.972L506.531 271.543C508.29 271.208 509.527 270.762 510.184 269.976C510.84 269.19 511.061 268.148 510.846 266.851C510.417 264.256 508.674 263.233 505.472 263.698C503.714 264.032 502.076 264.828 500.643 265.94C499.124 267.197 497.555 269.205 495.766 272.255C493.405 275.946 491.18 278.74 489.115 280.262C486.965 281.929 484.405 282.965 481.204 283.43C477.081 284.135 473.725 283.532 471.341 281.938C468.812 280.259 467.255 277.588 466.61 273.696C466.111 269.888 466.688 266.908 468.513 264.464Z" fill="#E83C1F"/>
<path d="M476.898 289.104L477.291 296.754L469.642 297.146L469.249 289.497L476.898 289.104ZM498.78 288.081L519.97 287.238L520.338 295.263L499.148 296.106L482.942 295.774L482.739 289.798L498.78 288.081Z" fill="#E83C1F"/>
<path d="M488.328 317.873C490.162 316.411 492.237 315.87 494.551 316.252C496.865 316.634 498.693 317.511 500.155 319.345C501.617 321.179 502.157 323.253 501.776 325.567C501.394 327.882 500.517 329.71 498.683 331.172C496.849 332.634 494.774 333.174 492.46 332.792C490.146 332.411 488.318 331.533 486.856 329.699C485.394 327.865 484.854 325.791 485.235 323.477C485.472 321.077 486.494 319.335 488.328 317.873Z" fill="#E83C1F"/>
<path d="M465.769 347.003C468.415 345.822 471.736 345.818 475.503 347.052L501.263 355.724C505.029 356.958 507.618 358.867 509.03 361.453C510.441 364.038 510.53 367.214 509.236 370.75C508.088 374.372 506.118 376.73 503.388 378.057C500.742 379.238 497.421 379.242 493.654 378.008L488.641 376.237L491.083 369.08L496.618 370.961C499.573 371.914 501.502 371.288 502.43 368.709C503.272 366.275 502.186 364.466 499.231 363.513L472.369 354.39C469.414 353.437 467.63 354.148 466.702 356.727C465.86 359.161 466.946 360.97 469.816 362.068L477.119 364.596L474.676 371.753L467.809 369.481C464.043 368.248 461.453 366.338 460.042 363.753C458.63 361.167 458.541 357.991 459.835 354.455C461.069 350.688 463.039 348.33 465.769 347.003Z" fill="#E83C1F"/>
<path d="M500.492 391.977L496.777 398.973L478.632 389.303L474.576 396.881L492.721 406.551L489.007 413.548L444.182 389.785L447.897 382.789L468.015 393.422L472.071 385.844L451.952 375.211L455.667 368.214L500.492 391.977Z" fill="#E83C1F"/>
<path d="M482.521 423.604L469.579 441.002L463.76 436.611L471.97 425.614L461.263 417.574L454.707 426.418L448.888 422.028L455.444 413.184L442.934 403.891L434.724 414.889L428.905 410.498L441.846 393.101L482.521 423.604Z" fill="#E83C1F"/>
<path d="M462.723 448.693L447.278 464.036L442.115 458.859L451.897 449.175L442.418 439.708L434.581 447.41L429.418 442.233L437.256 434.531L426.375 423.461L416.592 433.146L411.43 427.969L426.875 412.626L462.723 448.693Z" fill="#E83C1F"/>
<path d="M439.345 470.901L429.824 477.81C426.497 480.153 423.561 481.164 420.871 480.757C418.182 480.35 415.738 478.525 413.395 475.198L411.522 472.733C408.418 468.373 407.833 464.711 409.853 461.601L409.708 461.516C407.779 462.141 406.046 462.101 404.303 461.078C402.56 460.055 400.783 458.427 399.141 455.901L393.959 448.761C393.052 447.643 392.437 446.696 391.881 445.98C391.325 445.263 390.599 444.837 389.727 444.326L396.237 439.554C396.963 439.981 397.604 440.552 398.099 441.038C398.595 441.524 399.356 442.556 400.528 444.22L405.915 451.676C407.292 453.655 408.514 454.568 409.701 454.874C410.888 455.18 412.125 454.734 413.704 453.708L415.999 452.126L403.292 434.518L409.716 429.892L439.345 470.901ZM417.834 459.646C416.486 460.612 415.89 461.629 415.669 462.671C415.593 463.798 415.953 465.18 417.21 466.699L419.493 469.796C420.605 471.229 421.596 472.201 422.638 472.422C423.68 472.643 424.747 472.488 425.864 471.581L428.876 469.444L420.3 457.773L417.834 459.646Z" fill="#E83C1F"/>
<path d="M387.026 448.598C389.75 449.611 392.084 451.957 394.026 455.634L395.438 458.22L388.714 461.693L387.182 458.647C385.71 455.831 383.737 454.869 381.237 456.135C380.059 456.811 379.257 457.512 379.037 458.554C378.816 459.596 379.031 460.893 379.827 462.532C380.828 464.486 382.17 465.859 383.682 466.941C385.28 467.879 387.774 468.952 391.045 469.699C395.272 470.813 398.433 472.082 400.671 473.591C402.91 475.099 404.662 477.104 405.989 479.834C407.786 483.427 408.25 486.628 407.528 489.523C406.805 492.418 404.69 494.692 401.098 496.489C397.736 498.226 394.62 498.545 391.895 497.532C389.171 496.519 386.837 494.174 384.895 490.496L383.894 488.542L390.618 485.068L391.824 487.338C392.62 488.976 393.466 489.863 394.423 490.229C395.38 490.595 396.447 490.441 397.539 489.91C399.809 488.704 400.396 486.705 398.779 483.804C397.983 482.166 396.786 480.878 395.188 479.94C393.591 479.003 391.011 478.075 387.74 477.327C383.513 476.214 380.122 475.005 377.969 473.351C375.73 471.842 373.918 469.607 372.446 466.792C370.504 463.114 370.124 459.767 370.847 456.872C371.569 453.977 373.77 451.558 377.277 449.907C381.04 447.819 384.156 447.5 387.026 448.598Z" fill="#E83C1F"/>
<path d="M366.21 464.109L359.016 466.721L356.404 459.526L363.598 456.914L366.21 464.109ZM373.892 484.625L381.248 504.365L373.737 507.183L366.381 487.443L361.609 471.952L367.105 469.905L373.892 484.625Z" fill="#E83C1F"/>
<path d="M342.403 483.721C344.351 485.06 345.522 486.723 345.892 489.088C346.347 491.307 345.906 493.391 344.567 495.339C343.229 497.287 341.565 498.459 339.201 498.828C336.981 499.283 334.898 498.842 332.95 497.503C331.001 496.165 329.83 494.501 329.46 492.137C329.005 489.918 329.447 487.834 330.785 485.886C332.123 483.938 333.787 482.766 336.152 482.396C338.431 482.172 340.515 482.613 342.403 483.721Z" fill="#E83C1F"/>
<path d="M307.598 471.499C309.641 473.674 310.566 476.755 310.605 480.683L310.438 507.919C310.477 511.846 309.439 514.947 307.409 517.075C305.379 519.203 302.444 520.214 298.661 520.338C294.819 520.231 291.949 519.133 289.906 516.958C287.863 514.783 286.938 511.702 286.899 507.774L286.962 502.344L294.501 502.472L294.413 508.278C294.357 511.369 295.759 512.973 298.329 512.919C301.044 512.95 302.357 511.377 302.413 508.286L302.655 479.923C302.711 476.832 301.309 475.229 298.739 475.283C296.024 475.252 294.711 476.824 294.655 479.915L294.587 487.685L287.048 487.556L287.151 480.393C287.112 476.466 288.15 473.365 290.18 471.237C292.21 469.109 295.146 468.098 298.928 467.974C302.685 468.226 305.555 469.324 307.598 471.499Z" fill="#E83C1F"/>
<path d="M275.683 518.57L267.844 517.289L271.399 496.923L262.893 495.446L259.338 515.813L251.499 514.533L260.135 464.542L267.975 465.823L264.123 488.359L272.629 489.835L276.48 467.299L284.319 468.579L275.683 518.57Z" fill="#E83C1F"/>
<path d="M239.945 511.267L219.429 504.306L221.701 497.439L234.683 501.932L239.007 489.24L228.603 485.674L230.875 478.807L241.279 482.373L246.274 467.537L233.291 463.044L235.563 456.177L256.079 463.138L239.945 511.267Z" fill="#E83C1F"/>
<path d="M210.118 500.209L190.786 490.233L194.16 483.817L206.496 490.079L212.502 478.179L202.72 473.221L206.094 466.805L215.876 471.763L222.989 457.975L210.654 451.713L214.028 445.298L233.36 455.274L210.118 500.209Z" fill="#E83C1F"/>
<path d="M181.866 484.804L172.296 477.822C168.981 475.486 167.193 472.876 166.618 470.195C166.189 467.6 167.142 464.645 169.477 461.33L171.302 458.886C174.379 454.639 177.741 452.902 181.303 453.82L181.388 453.675C180.216 452.012 179.796 450.398 180.152 448.46C180.509 446.521 181.557 444.403 183.381 441.959L188.624 434.687C189.536 433.466 190.133 432.449 190.559 431.723C190.985 430.996 191.351 430.04 191.486 429.143L198.032 433.96C197.751 434.771 197.47 435.583 197.129 436.164C196.788 436.745 196.107 437.906 195.024 439.419L189.611 446.981C188.273 448.929 187.651 450.321 187.721 451.534C187.79 452.746 188.551 453.778 190.064 454.861L192.217 456.515L204.868 438.947L211.353 443.533L181.866 484.804ZM185.733 460.911C184.511 459.998 183.179 459.607 182.112 459.762C181.045 459.917 179.927 460.823 178.759 462.481L176.509 465.651C175.426 467.163 174.89 468.41 175.045 469.477C175.054 470.459 175.67 471.406 176.892 472.318L179.771 474.399L188.262 462.59L185.733 460.911Z" fill="#E83C1F"/>
<path d="M186.652 428.065C186.45 431.07 184.976 433.915 182.06 436.889L180.03 439.018L174.722 433.756L177.153 431.277C179.498 428.943 179.564 426.835 177.581 424.89C176.59 423.918 175.633 423.552 174.651 423.561C173.584 423.716 172.492 424.247 171.119 425.589C169.66 427.076 168.638 428.819 168.221 430.527C167.72 432.38 167.689 435.095 167.923 438.357C168.312 442.685 168 446.211 167.302 448.731C166.605 451.25 165.156 453.719 163.127 455.848C160.295 458.677 157.479 460.148 154.449 460.322C151.418 460.497 148.633 459.253 145.804 456.422C143.12 453.675 141.794 450.945 141.995 447.939C142.197 444.934 143.671 442.089 146.587 439.114L148.046 437.627L153.353 442.889L151.494 444.727C150.206 445.924 149.67 447.171 149.534 448.067C149.459 449.195 149.929 450.056 150.775 450.943C152.613 452.803 154.662 452.638 157.007 450.305C158.38 448.963 159.087 447.425 159.589 445.572C160.091 443.719 160.037 441.149 159.743 437.657C159.439 433.183 159.666 429.802 160.448 427.138C161.145 424.618 162.739 422.234 164.939 419.816C167.856 416.841 170.902 415.309 173.848 415.281C176.879 415.106 179.809 416.435 182.493 419.181C185.527 422.328 186.768 425.204 186.652 428.065Z" fill="#E83C1F"/>
<path d="M148.461 426.937L131.955 440.095L127.013 433.877L143.519 420.718L156.743 411.491L160.428 416.192L148.461 426.937ZM165.308 413.198L160.426 407.21L166.415 402.328L171.296 408.316L165.308 413.198Z" fill="#E83C1F"/>
<path d="M139.241 396.732C138.569 398.875 137.316 400.678 135.277 401.825C133.238 402.971 131.189 403.135 128.96 402.609C126.816 401.936 125.013 400.683 123.867 398.644C122.72 396.605 122.556 394.556 123.083 392.327C123.755 390.183 125.008 388.38 127.047 387.234C129.086 386.088 131.135 385.923 133.364 386.45C135.508 387.122 137.311 388.375 138.457 390.414C139.604 392.454 139.913 394.588 139.241 396.732Z" fill="#E83C1F"/>
<path d="M140.207 359.812C138.673 362.427 136.063 364.214 132.35 365.55L106.438 373.775C102.666 374.881 99.4896 374.97 96.7049 373.726C94.0654 372.568 92.0476 370.017 91.0021 366.475C89.8113 362.848 90.0981 359.697 91.5468 357.228C93.0807 354.614 95.6913 352.827 99.4038 351.491L104.499 349.794L106.735 356.964L101.179 358.78C98.2433 359.791 97.0755 361.448 97.8809 364.069C98.6864 366.689 100.6 367.421 103.536 366.41L130.6 357.885C133.536 356.874 134.704 355.217 133.813 352.742C133.008 350.121 131.094 349.389 128.158 350.4L120.758 352.696L118.522 345.527L125.461 343.351C129.234 342.245 132.41 342.156 135.194 343.4C137.834 344.558 139.852 347.108 140.897 350.651C141.943 354.193 141.656 357.343 140.207 359.812Z" fill="#E83C1F"/>
<path d="M85.5563 344.146L84.3522 336.216L104.857 333.213L103.618 324.677L83.1133 327.679L81.9091 319.749L132.061 312.47L133.265 320.401L110.857 323.653L112.096 332.189L134.735 328.877L135.939 336.808L85.5563 344.146Z" fill="#E83C1F"/>
<path d="M81.417 307.942L81.6661 286.221L88.8295 286.324L88.7338 300.13L102.164 300.201L102.289 289.34L109.452 289.443L109.327 300.304L124.867 300.44L124.962 286.634L132.126 286.737L131.877 308.458L81.417 307.942Z" fill="#E83C1F"/>
<path d="M82.5777 276.017L85.9776 254.583L93.1507 255.668L91.0313 269.263L104.25 271.357L105.878 260.598L113.051 261.683L111.423 272.442L126.811 274.833L128.931 261.238L136.104 262.323L132.704 283.757L82.5777 276.017Z" fill="#E83C1F"/>
<path d="M88.4767 244.335L92.0929 233.18C93.412 229.269 95.0911 226.739 97.5913 225.473C100.006 224.352 103.037 224.178 106.804 225.412L109.759 226.365C114.858 227.99 117.396 230.651 117.751 234.373L117.896 234.458C119.064 232.8 120.557 231.919 122.461 231.67C124.364 231.42 126.824 231.887 129.634 232.755L138.209 235.443C139.541 235.834 140.728 236.14 141.54 236.421C142.436 236.557 143.333 236.692 144.255 236.452L141.702 244.131C140.865 244.226 139.969 244.09 139.302 243.894C138.636 243.699 137.304 243.307 135.596 242.891L126.73 240.032C124.587 239.36 122.938 239.174 121.701 239.619C120.609 240.15 119.782 241.227 119.22 242.849L118.438 245.514L139.124 252.185L136.656 259.718L88.4767 244.335ZM112.498 240.663C112.975 239.185 112.99 237.827 112.375 236.88C111.844 235.788 110.682 235.106 108.914 234.459L105.147 233.226C103.379 232.579 102.022 232.563 101.015 232.948C100.008 233.334 99.3512 234.12 98.9599 235.452L97.8965 238.928L111.716 243.327L112.498 240.663Z" fill="#E83C1F"/>
<path d="M143.916 231.373C141.065 232.238 137.709 231.636 134.138 229.736L131.584 228.432L134.983 221.641L138.118 223.285C140.963 224.759 143.182 224.304 144.401 221.895C144.937 220.648 145.158 219.606 144.773 218.599C144.387 217.592 143.311 216.765 141.858 215.913C139.885 214.95 138.177 214.534 136.128 214.698C134.309 214.803 131.689 215.608 128.438 216.824C124.324 218.511 120.952 219.266 118.297 219.465C115.642 219.664 112.978 218.882 110.338 217.723C106.682 215.969 104.349 213.623 103.398 210.918C102.302 208.127 102.734 205.062 104.403 201.551C106.218 198.125 108.393 196.082 111.244 195.217C114.009 194.496 117.365 195.099 121.022 196.854L122.85 197.731L119.451 204.522L117.187 203.389C115.649 202.682 114.317 202.291 113.395 202.531C112.473 202.771 111.671 203.472 110.99 204.634C109.771 207.043 110.627 208.912 113.472 210.386C115.155 211.178 116.863 211.595 118.767 211.345C120.585 211.24 123.205 210.435 126.312 209.134C130.425 207.447 133.797 206.692 136.452 206.493C139.167 206.524 141.917 207.161 144.761 208.635C148.563 210.475 150.896 212.82 151.907 215.756C153.003 218.547 152.631 221.843 150.816 225.269C149.087 228.549 146.827 230.738 143.916 231.373Z" fill="#E83C1F"/>
<path d="M133.245 194.655L115.601 183.131L119.897 176.475L137.541 187.999L150.401 197.692L147.128 202.605L133.245 194.655ZM151.615 206.604L155.825 200.094L162.336 204.304L158.125 210.815L151.615 206.604Z" fill="#E83C1F"/>
<path d="M159.061 176.611C156.867 176.69 154.808 175.873 153.091 174.475C151.373 173.076 150.457 170.977 150.463 168.638C150.384 166.443 151.201 164.385 152.599 162.667C154.143 161.035 156.097 160.034 158.436 160.04C160.631 159.96 162.689 160.778 164.407 162.176C166.124 163.574 167.04 165.674 167.034 168.013C167.114 170.207 166.296 172.266 164.898 173.983C163.269 175.761 161.4 176.617 159.061 176.611Z" fill="#E83C1F"/>
<path d="M194.336 166.07C191.356 165.493 188.767 163.583 186.569 160.341L170.698 138.143C168.5 134.901 167.344 131.88 167.776 128.814C168.123 125.894 169.888 123.22 172.899 121.082C175.996 118.799 178.992 118.019 181.887 118.741C184.867 119.318 187.456 121.228 189.654 124.47L192.758 128.829L186.65 133.25L183.195 128.49C181.408 125.879 179.324 125.438 177.26 126.96C175.195 128.482 174.984 130.505 176.772 133.116L193.343 156.116C195.216 158.581 197.069 159.083 199.279 157.646C201.344 156.124 201.555 154.1 199.767 151.49L195.287 145.151L201.395 140.73L205.61 146.523C207.808 149.765 208.964 152.786 208.532 155.851C208.185 158.772 206.421 161.446 203.409 163.584C200.313 165.867 197.317 166.647 194.336 166.07Z" fill="#E83C1F"/>
<path d="M192.48 109.338L199.665 105.744L208.915 124.253L216.561 120.539L207.311 102.03L214.496 98.4363L236.89 143.791L229.705 147.384L219.599 127.007L211.953 130.721L222.059 151.098L214.874 154.692L192.48 109.338Z" fill="#E83C1F"/>
<path d="M225.658 94.0523L246.475 87.5233L248.651 94.4623L235.465 98.6348L239.518 111.36L249.999 108.138L252.175 115.077L241.694 118.299L246.432 133.184L259.618 129.012L261.795 135.95L240.978 142.479L225.658 94.0523Z" fill="#E83C1F"/>
<path d="M256.13 85.3779L277.641 81.9901L278.751 89.0838L265.169 91.2675L267.378 104.473L278.134 102.779L279.243 109.873L268.487 111.567L271.006 126.907L284.588 124.723L285.697 131.817L264.185 135.205L256.13 85.3779Z" fill="#E83C1F"/>
<path d="M288.116 81.1079L299.898 80.9923C303.971 81.0391 307.011 81.8468 308.994 83.7912C310.832 85.6505 311.843 88.5864 311.881 92.5138L311.825 95.6046C311.848 100.89 310.118 104.17 306.696 105.676L306.611 105.822C308.609 106.409 309.891 107.551 310.747 109.42C311.458 111.204 311.973 113.654 312.002 116.599L312.088 125.436C312.073 126.793 312.142 128.006 312.237 128.842C312.332 129.679 312.572 130.601 313.043 131.462L304.958 131.599C304.632 130.823 304.537 129.986 304.357 129.295C304.177 128.604 304.193 127.246 304.174 125.282L304.112 116.07C304.118 113.731 303.698 112.117 302.997 111.316C302.151 110.429 300.904 109.892 299.085 109.997L296.37 109.965L296.497 131.711L288.497 131.703L288.116 81.1079ZM299.043 102.748C300.631 102.703 301.868 102.258 302.67 101.557C303.557 100.711 303.803 99.2933 303.929 97.4148L303.891 93.4874C303.786 91.669 303.571 90.3714 302.87 89.5696C302.169 88.7679 301.213 88.4018 299.855 88.3862L296.303 88.4499L296.388 102.947L299.043 102.748Z" fill="#E83C1F"/>
<path d="M317.763 129.741C316.121 127.216 315.656 124.015 316.309 119.907L316.801 117.072L324.35 118.182L323.892 121.624C323.375 124.834 324.461 126.643 327.297 127.135C328.569 127.296 329.636 127.141 330.438 126.44C331.24 125.739 331.776 124.492 332.047 122.699C332.344 120.53 332.239 118.711 331.529 116.928C330.818 115.144 329.381 112.934 327.133 110.444C324.269 107.006 322.422 104.165 321.531 101.69C320.64 99.2151 320.296 96.4749 320.788 93.6397C321.355 89.6775 322.829 86.8327 325.149 84.875C327.469 82.9172 330.525 82.3674 334.342 82.8499C338.074 83.4775 340.774 84.8662 342.416 87.3916C344.058 89.917 344.522 93.1182 343.87 97.2257L343.573 99.3946L336.024 98.2845L336.346 95.7399C336.617 93.9466 336.548 92.7343 335.932 91.7873C335.461 90.9255 334.445 90.329 333.172 90.1681C330.482 89.7613 329.024 91.2485 328.507 94.4593C328.236 96.2526 328.571 98.011 329.281 99.7947C329.992 101.578 331.514 103.643 333.822 106.364C336.686 109.801 338.533 112.643 339.424 115.118C340.315 117.593 340.574 120.478 340.057 123.689C339.404 127.796 337.99 130.872 335.525 132.744C333.205 134.702 330.149 135.252 326.186 134.684C322.104 133.655 319.259 132.182 317.763 129.741Z" fill="#E83C1F"/>
<path d="M349.261 108.003L354.924 87.7019L362.628 89.879L357.109 110.265L351.858 125.537L346.153 123.946L349.261 108.003ZM343.692 129.14L351.105 131.147L349.098 138.56L341.685 136.553L343.692 129.14Z" fill="#E83C1F"/>
<path d="M374.4 127.049C373.715 124.889 373.781 122.78 374.683 120.577C375.731 118.458 377.19 116.971 379.349 116.285C381.508 115.6 383.617 115.666 385.821 116.569C387.94 117.616 389.427 119.075 390.112 121.234C390.798 123.393 390.732 125.502 389.829 127.706C388.781 129.825 387.323 131.312 385.164 131.997C383.004 132.683 380.895 132.617 378.692 131.714C376.718 130.752 375.231 129.293 374.4 127.049Z" fill="#E83C1F"/>
</svg>
