<svg width="17" height="19" viewBox="0 0 17 19" fill="none" xmlns="http://www.w3.org/2000/svg">
<path d="M14.8845 3.68197C14.8786 3.6408 14.8583 3.60296 14.827 3.57499C14.7958 3.54702 14.7557 3.53066 14.7135 3.52876C14.6358 3.52876 13.2668 3.49811 13.2668 3.49811C13.2668 3.49811 12.4271 2.70061 12.1158 2.39379V18.9694L17 17.7743C17 17.7743 14.9001 3.77391 14.8845 3.68197ZM11.0115 2.39379C10.9368 2.1618 10.8431 1.9362 10.7313 1.71924C10.3256 0.952769 9.72017 0.537164 9.00439 0.537164C8.95211 0.535373 8.89983 0.540527 8.84895 0.552486C8.83341 0.521842 8.80232 0.50652 8.78678 0.475876C8.47591 0.139945 8.07177 -0.0132739 7.58915 0.000898825C6.65653 0.0315425 5.72392 0.690382 4.97588 1.87131C4.44701 2.69946 4.04327 3.74211 3.93369 4.55494C2.8604 4.8767 2.11393 5.10691 2.09838 5.12223C1.55436 5.29077 1.53842 5.30609 1.47664 5.81171C1.43001 6.19476 0 16.9898 0 16.9898L11.7579 19V2.20993C11.7007 2.21205 11.6436 2.21716 11.587 2.22525C11.587 2.22525 11.3693 2.28654 11.0115 2.39379ZM8.86488 3.0534C8.24314 3.23726 7.55806 3.45176 6.8893 3.65133C7.07582 2.93044 7.44925 2.20993 7.88486 1.7361C8.05584 1.56756 8.28938 1.36799 8.55362 1.24542C8.81825 1.79585 8.88043 2.54739 8.86488 3.0534ZM7.58915 0.630627C7.78508 0.624539 7.97894 0.671716 8.14949 0.766992C7.90079 0.889566 7.65171 1.08913 7.41856 1.31896C6.82751 1.94792 6.37636 2.92776 6.18984 3.8643C5.62949 4.03323 5.06953 4.20177 4.55776 4.35499C4.89817 2.88447 6.15797 0.661271 7.58915 0.630627ZM5.78493 9.06416C5.8471 10.0451 8.47591 10.26 8.63134 12.5752C8.74015 14.4 7.65132 15.6418 6.08025 15.7341C4.18277 15.8567 3.14058 14.7528 3.14058 14.7528L3.54471 13.0674C3.54471 13.0674 4.58691 13.8496 5.42704 13.7883C5.97106 13.7576 6.1739 13.3129 6.15797 13.0061C6.08025 11.7183 3.93369 11.7949 3.7938 9.67895C3.66945 7.90008 4.85154 6.10628 7.4648 5.93735C8.47513 5.87606 8.98923 6.1216 8.98923 6.1216L8.39819 8.32794C8.39819 8.32794 7.72943 8.02151 6.93593 8.08279C5.78493 8.15979 5.76938 8.87991 5.78493 9.06416ZM9.48702 2.86915C9.48702 2.40949 9.42484 1.74989 9.20684 1.19792C9.92262 1.33582 10.2646 2.11723 10.4204 2.59336C10.1404 2.66997 9.82923 2.7619 9.48702 2.86915Z" fill="#E83C1F"/>
</svg>
