<svg width="32" height="32" viewBox="0 0 32 32" fill="none" xmlns="http://www.w3.org/2000/svg">
<path d="M16.3443 0.445967L21.307 9.51396C21.3813 9.66261 21.5002 9.78154 21.6488 9.85587L30.7125 14.821C31.3068 15.148 31.3068 16.0102 30.7125 16.3372L21.6488 21.3023C21.5002 21.3767 21.3813 21.4956 21.307 21.6443L16.3443 30.7122C16.0174 31.3069 15.1556 31.3069 14.8288 30.7122L9.86603 21.6443C9.79173 21.4956 9.67286 21.3767 9.52428 21.3023L0.445754 16.3521C-0.148585 16.0251 -0.148585 15.1629 0.445754 14.8358L9.50942 9.87073C9.65801 9.7964 9.77688 9.67748 9.85117 9.52882L14.8288 0.445967C15.1556 -0.148656 16.0174 -0.148656 16.3443 0.445967Z" fill="#E83C1F"/>
</svg>
