<svg width="1920" height="166" viewBox="0 0 1920 166" fill="none" xmlns="http://www.w3.org/2000/svg">
<path d="M-5.80553 -3.1205e-05C636.136 2.49153e-05 1278.12 8.10391e-05 1920.06 0.000137159C1920.18 0.467193 1920.33 0.97319 1920.33 1.44025C1920.49 12.5331 1920.64 23.6648 1920.76 34.7576C1920.92 50.0929 1921.07 31.3255 1921.15 46.6608C1921.19 55.2626 1921.15 17.6726 1921.19 26.3133C1921.23 33.8642 1921.38 7.27342 1921.42 14.8243C1921.5 26.9291 1921.54 39.0728 1921.62 51.2165C1921.66 55.3422 1921.77 59.5069 1921.81 63.6327C1921.89 70.6386 1921.89 77.6057 1921.93 84.6116C1921.97 95.1595 1922.04 105.707 1921.97 116.255C1921.97 117.812 1921.27 119.408 1920.64 120.887C1920.14 122.016 1919.24 122.95 1918.58 123.923C1918.23 123.884 1917.8 123.689 1917.53 123.767C1915.78 124.39 1913.87 124.273 1912.08 124.662C1910.25 125.052 1907.92 123.261 1905.78 122.405C1905.7 122.366 1905.7 122.171 1905.62 122.055C1905.19 121.665 1904.8 120.926 1904.34 120.926C1902.23 120.809 1900.05 120.576 1898.03 120.965C1895.54 121.432 1893.71 120.264 1891.69 119.369C1891.22 119.174 1890.75 118.824 1890.25 118.824C1887.64 118.824 1886.7 118.24 1885.81 115.749C1885.69 115.399 1885.61 115.049 1885.5 114.698C1885.26 114.854 1885.07 115.049 1884.84 115.204C1884.84 115.788 1884.84 116.411 1884.84 117.112C1883.47 117.112 1881.92 118.007 1881.64 115.749C1879.04 117.929 1877.98 117.968 1875.77 116.022C1875.61 115.905 1875.45 115.788 1875.3 115.671C1872.46 114.465 1871.33 111.351 1867.9 109.989C1866.46 110.222 1866.23 109.911 1866.04 107.381C1865.96 106.525 1865.37 105.435 1864.67 105.007C1862.38 103.528 1859.46 103.644 1857.08 101.893C1854.83 100.219 1851.56 100.18 1849.77 97.6116C1849.49 97.2613 1848.91 97.1445 1848.48 96.8721C1846.96 95.938 1844.63 96.3272 1844.28 94.5368C1843.03 94.1865 1842.14 94.0697 1841.32 93.7194C1839.65 93.0188 1838.05 92.2014 1836.42 91.423C1836.34 91.3841 1836.3 91.2284 1836.26 91.1116C1836.34 91.0727 1836.38 91.0727 1836.45 91.0338C1836.65 91.5008 1836.88 91.9679 1837.12 92.5128C1835.09 93.447 1833.26 94.2643 1831.47 95.1596C1831.04 95.3542 1830.58 95.6266 1830.31 95.9769C1829.68 96.7942 1829.18 96.5996 1828.36 96.1715C1827.31 95.6266 1825.98 95.1206 1824.9 95.2762C1823.42 95.5098 1821.2 95.5877 1820.5 95.0428C1818.55 95.899 1816.8 96.6386 1815.05 97.3781C1815.01 97.3781 1814.93 97.3392 1814.89 97.3003C1813.14 95.938 1812.36 96.95 1811.74 98.6625C1810.61 98.1565 1809.64 98.1954 1809.72 99.9469C1808.47 99.9469 1807.38 99.869 1806.25 99.9469C1805.2 100.025 1803.95 99.9469 1803.14 100.453C1802.01 101.192 1801.11 101.309 1799.95 100.764C1799.32 100.492 1798.39 99.9858 1798 100.258C1796.33 101.348 1794.77 102.71 1793.17 103.956C1792.47 104.501 1791.73 105.007 1791.03 105.513C1790.14 109.016 1788.11 111.507 1784.38 112.558C1784.03 112.246 1783.64 111.857 1783.17 111.429C1782.24 113.375 1780.76 113.725 1779.01 112.48C1778.03 114.309 1775.74 114.66 1774.45 113.258C1774.26 113.453 1774.02 113.686 1773.83 113.881C1770.56 113.686 1768.54 115.827 1766.71 118.046C1765.77 119.174 1765.11 119.486 1764.1 118.435C1763.44 117.734 1762.89 117.267 1762.19 118.435C1762.04 118.707 1761.45 118.746 1761.06 118.863C1760.21 119.097 1759.39 119.486 1758.53 119.486C1757.4 119.486 1756.28 119.174 1755.42 119.019C1755.38 119.058 1755.19 119.68 1755.03 119.68C1753.51 119.603 1752.03 119.408 1750.51 119.33C1749.93 119.291 1749.35 119.447 1748.76 119.642C1748.34 119.797 1747.95 120.07 1747.56 120.303C1747.63 119.953 1747.79 119.564 1747.71 119.213C1747.67 119.019 1747.28 118.902 1747.05 118.707C1747.01 118.668 1747.01 118.591 1747.01 118.513C1747.09 118.513 1747.13 118.513 1747.32 118.474C1747.17 118.746 1747.05 119.135 1746.93 119.135C1744.91 118.902 1743.78 120.031 1742.73 121.588C1742.42 122.055 1741.25 121.977 1740.67 122.132C1740.63 121.977 1740.86 122.561 1740.71 122.677C1740.43 122.911 1739.85 123.067 1739.54 122.95C1738.33 122.483 1737.63 122.755 1736.81 123.806C1735.8 125.091 1734.48 125.674 1732.77 124.585C1731.95 124.079 1730.82 124.079 1729.81 123.845C1729.22 123.806 1728.87 123.261 1728.52 122.677C1727.28 120.77 1725.33 120.887 1724.13 122.794C1723.5 123.767 1722.69 124.701 1721.75 125.441C1720.74 126.258 1719.92 125.947 1719.77 124.507C1718.33 125.636 1716.89 126.647 1715.52 127.776C1714.82 128.36 1714.24 129.1 1713.73 129.839C1712.99 130.89 1712.25 131.162 1711.32 130.112C1710.35 131.474 1709.53 132.914 1708.4 134.043C1707.27 135.094 1706.88 136.028 1707.97 137.39C1706.88 137.857 1706.49 139.959 1705.05 138.285C1705.21 139.375 1705.37 140.582 1705.6 142.061C1703.26 140.854 1701.16 139.803 1699.29 138.869C1699.57 139.842 1699.33 140.037 1697.15 139.959C1696.8 136.806 1694.58 134.977 1691.9 133.614C1690.57 134.004 1692.13 135.716 1690.57 137.001C1688.43 138.791 1687.89 135.833 1686.53 136.534C1686.45 137.117 1686.37 137.74 1686.33 138.129C1685.16 137.818 1683.92 137.04 1683.1 137.39C1681.55 138.013 1680.53 136.923 1679.37 136.65C1678.12 136.378 1677.15 135.055 1675.94 134.432C1675.36 134.159 1674.46 134.432 1673.76 134.51C1673.57 134.549 1673.37 134.938 1673.22 134.899C1671.15 134.86 1669.09 134.821 1667.03 134.743C1666.79 134.743 1666.48 134.276 1666.4 134.004C1666.25 133.42 1666.25 132.797 1666.21 132.174C1666.09 132.33 1665.98 132.447 1665.86 132.603C1665.24 132.369 1664.65 132.019 1663.99 131.902C1662.9 131.668 1661.69 131.318 1661.46 132.875C1659.59 132.719 1657.84 132.603 1656.01 132.447C1656.01 131.785 1656.01 131.162 1656.01 131.007C1654.88 131.007 1653.17 131.396 1652.9 130.929C1652 129.333 1650.37 129.177 1649.4 128.399C1649.12 129.255 1648.85 130.073 1648.5 131.24C1647.45 130.423 1646.67 129.839 1645.97 129.294C1645.15 129.489 1644.18 129.761 1642.66 130.15C1641.96 130.501 1640.75 131.162 1639.51 131.746C1638.89 132.019 1638.03 132.369 1637.56 132.097C1637.1 131.863 1636.94 130.929 1636.63 130.384C1636.55 130.501 1636.51 130.89 1636.4 130.89C1634.6 131.123 1634.49 132.369 1634.49 133.809C1634.45 134.86 1632.35 136.845 1631.45 136.962C1630.05 137.156 1628.65 137.429 1627.25 137.662C1627.02 137.429 1626.78 137.195 1626.55 136.962C1626.63 136.806 1626.7 136.689 1626.74 136.534C1626.78 136.573 1626.78 136.65 1626.78 136.689C1626.78 136.767 1626.78 136.845 1626.7 136.884C1626.12 137.273 1625.61 137.818 1624.99 137.935C1624.13 138.091 1623.24 137.896 1622.38 137.857C1622.5 138.091 1622.62 138.285 1622.73 138.519C1622.46 138.986 1622.19 139.842 1621.88 139.881C1620.83 139.998 1619.15 141.165 1619.08 139.18C1618.02 138.83 1616.82 138.791 1616.43 138.168C1614.95 135.911 1612.77 135.094 1610.08 134.471C1609.97 136.495 1609.38 137.195 1607.94 135.249C1607.71 134.899 1606.89 134.588 1606.66 134.704C1606.31 134.899 1606.15 135.561 1606 136.067C1605.65 137.001 1605.61 138.207 1604.95 138.83C1603.86 139.92 1602.46 140.698 1601.09 141.516C1599.77 142.333 1599.03 141.827 1598.87 140.231C1598.49 140.387 1598.14 140.543 1597.67 140.776C1597.51 140.076 1597.4 139.492 1597.28 138.947C1597.12 138.908 1596.97 138.869 1596.81 138.83C1596.46 139.764 1596.11 140.737 1595.76 141.71C1594.4 141.282 1592.72 141.204 1591.64 140.387C1590.35 139.414 1589.34 138.597 1587.7 139.219C1587.82 139.18 1587.9 139.18 1588.02 139.141C1588.05 139.414 1588.09 139.725 1588.13 139.998C1587.08 139.998 1586.03 139.998 1584.98 139.998C1584.94 139.647 1584.98 139.803 1584.94 139.842C1584.32 140.153 1583.62 140.737 1583.11 140.62C1582.18 140.426 1581.4 139.764 1580.54 139.258C1582.25 141.944 1581.9 142.372 1578.44 142.995C1576.14 143.423 1574.2 143.968 1573.93 140.582C1573.38 141.049 1573.07 141.321 1572.76 141.594C1571.71 140.348 1570.97 141.516 1570.23 142.022C1568.32 143.267 1566.65 145.058 1564.58 145.758C1562.6 146.42 1561.12 147.51 1559.41 148.522C1558.01 149.339 1558.67 150.546 1558.01 151.402C1556.99 152.764 1553.14 154.321 1551.58 154.01C1551.31 154.71 1551.08 155.372 1550.81 156.034C1550.3 155.489 1549.72 154.983 1549.37 154.36C1548.47 152.686 1547.73 150.935 1546.84 149.261C1546.17 147.938 1545.24 147.977 1544.38 149.183C1543.76 150.04 1543.18 151.013 1542.36 151.674C1542.09 151.908 1540.88 151.674 1540.76 151.363C1540.49 150.74 1540.69 149.923 1540.69 149.144C1539.91 150.156 1539.25 151.635 1538.12 152.336C1536.91 153.076 1535.24 153.115 1533.41 153.543C1532.2 152.725 1532.08 151.908 1533.29 149.573C1532.55 150.351 1532.55 150.351 1530.96 147.549C1530.53 147.51 1530.06 147.471 1530.02 147.471C1529.48 148.249 1529.05 148.794 1528.66 149.339C1528.31 148.989 1527.96 148.6 1527.61 148.249C1527.61 148.249 1527.53 148.249 1527.49 148.288C1528.31 150.04 1527.72 150.818 1525.58 151.558C1524.88 153.076 1524.38 154.088 1523.87 155.138C1523.48 154.632 1523.05 154.126 1522.59 153.504C1521.65 153.737 1521.81 156.773 1520.21 155.138C1519.71 155.683 1519.28 156.112 1518.89 156.54C1518.15 155.138 1517.1 156.228 1516.2 156.189C1515.39 156.15 1514.57 155.8 1513.75 155.567C1514.02 156.968 1512.86 157.396 1511.38 157.513C1509.59 157.629 1507.68 158.174 1505.97 157.785C1504.53 157.435 1504.29 158.097 1503.79 158.875C1503.55 159.264 1503.32 159.614 1503.09 160.004C1501.65 159.459 1500.28 158.914 1498.77 158.33C1498.77 158.797 1498.77 159.225 1498.77 159.692C1497.48 159.614 1496.28 159.264 1495.26 159.576C1493.59 160.082 1492.19 160.315 1490.67 159.108C1490.09 158.68 1488.96 158.914 1488.1 158.875C1487.95 158.525 1487.75 158.096 1487.52 157.668C1487.52 157.824 1487.52 158.019 1487.52 158.174C1485.77 157.941 1483.98 157.707 1482.07 157.435C1481.56 158.603 1480.32 157.629 1479.23 157.785C1476.89 158.135 1474.75 156.423 1472.46 157.396C1472.38 157.435 1472.18 157.201 1472.07 157.085C1471.05 157.435 1470.04 157.824 1469.03 158.097C1468.41 158.252 1468.45 160.12 1467.2 158.758C1466.62 158.097 1465.8 157.668 1465.18 157.007C1465.06 156.89 1465.41 156.306 1465.53 155.917C1465.57 155.956 1465.61 155.956 1465.68 155.995C1465.68 155.956 1465.64 155.917 1465.64 155.878C1462.06 154.905 1462.06 154.905 1461.79 155.8C1462.26 156.54 1462.65 157.085 1463.04 157.668C1462.18 158.096 1461.28 158.486 1460.35 158.953C1460 157.24 1458.99 157.902 1458.13 158.213C1457.35 158.486 1456.61 158.836 1455.99 159.108C1455.68 160.004 1455.37 160.938 1455.02 161.872C1452.8 160.471 1450.27 160.626 1449.37 161.911C1448.64 161.483 1447.93 161.016 1447.23 160.587C1446.81 160.354 1446.34 160.159 1445.99 159.848C1444.7 158.719 1443.58 157.279 1442.14 156.423C1440.93 155.722 1440.07 155.177 1440.54 153.659C1440.62 153.348 1440.5 152.92 1440.31 152.647C1439.72 151.869 1439.02 151.168 1438.36 150.429C1434.7 153.698 1434.2 153.854 1433.34 152.219C1432.52 153.426 1432.09 155.333 1429.64 153.893C1430.23 155.411 1430.65 156.579 1430.93 157.24C1430.65 158.719 1430.46 160.004 1430.19 161.327C1429.91 161.21 1429.33 160.977 1429.33 161.016C1428.75 162.261 1427.34 162.183 1426.53 162.767C1425.28 163.701 1424.46 163.351 1423.41 162.923C1423.26 162.845 1423.06 162.884 1422.91 162.884C1422.64 163.39 1422.4 163.818 1422.28 164.129C1421.2 164.091 1420.22 163.857 1419.29 164.013C1417.81 164.246 1416.33 164.752 1414.85 165.102C1414.5 164.246 1414.31 163.74 1413.96 162.806C1413.29 164.83 1412.36 164.83 1411.27 163.662C1411.15 163.546 1410.92 163.546 1410.73 163.546C1408.7 163.546 1406.72 163.546 1404.69 163.546C1404.58 163.312 1404.46 163.078 1404.34 162.806C1404.65 162.65 1405 162.495 1405.31 162.378C1405.39 162.339 1405.55 162.495 1405.67 162.573C1405.51 162.728 1405.35 162.845 1405.24 163.001C1404.73 162.378 1404.19 161.716 1403.68 161.093C1403.64 160.821 1403.06 161.094 1402.75 160.938C1401.23 160.043 1399.83 159.537 1398.31 161.016C1397.96 161.366 1397.1 161.21 1396.48 161.21C1395.51 161.21 1394.46 161.366 1393.56 161.093C1392.63 160.782 1391.85 160.043 1390.99 159.459C1390.95 159.42 1390.95 159.342 1390.91 159.303C1390.91 159.303 1390.87 159.264 1390.84 159.264C1391.3 159.576 1391.81 159.848 1392.47 160.276C1391.19 161.522 1390.17 161.444 1389.36 160.549C1388.85 161.094 1388.23 162.067 1387.99 161.989C1386.9 161.6 1385.93 160.899 1384.76 160.237C1383.6 161.638 1381.61 159.381 1379.98 160.393C1379.9 160.432 1379.59 160.276 1379.51 160.159C1378.34 158.719 1377.45 159.42 1376.43 160.393C1376.24 160.587 1375.62 160.276 1375.19 160.237C1374.68 160.315 1374.18 158.564 1373.71 160.237C1372.35 161.21 1371.88 160.977 1371.41 158.564C1370.21 160.354 1369.23 161.755 1368.22 163.234C1367.21 162.495 1365.96 161.794 1366.12 160.043C1366.28 158.525 1365.3 158.797 1364.33 158.875C1362.58 159.07 1360.79 159.186 1359 159.264C1358.73 159.264 1358.3 159.031 1358.22 158.836C1357.83 157.707 1357.52 156.579 1357.09 154.944C1355.81 155.995 1354.99 156.773 1354.02 157.357C1353.55 157.629 1352.58 157.902 1352.38 157.668C1350.9 155.995 1348.8 156.462 1347.01 155.995C1346.11 155.761 1345.06 156.15 1344.09 156.267C1343.2 155.995 1341.99 155.216 1341.33 155.528C1338.87 156.773 1338.87 156.929 1336.89 154.983C1336.7 155.333 1336.54 155.761 1336.27 156.073C1335.49 156.812 1331.13 157.279 1330.23 156.695C1330 156.54 1329.81 156.15 1329.84 155.917C1329.88 155.683 1330.23 155.45 1330.47 155.333C1331.25 154.983 1332.02 154.71 1332.8 154.438C1332.57 153.698 1332.41 153.231 1332.02 152.064C1331.79 156.111 1329.49 153.504 1328.33 154.243C1328.37 154.049 1328.44 154.01 1328.52 154.049C1328.56 154.049 1328.6 154.126 1328.68 154.165C1328.33 154.632 1327.82 155.567 1327.59 155.489C1326.15 155.138 1324.75 154.594 1323.19 154.01C1323.93 153.114 1324.28 152.686 1324.43 152.492C1324.4 152.102 1324.4 152.102 1324.4 152.102C1324.01 152.18 1323.62 152.258 1323.19 152.375C1323.31 152.881 1323.5 153.543 1323.66 154.204C1321.9 155.45 1319.8 155.177 1318.48 153.62C1318.36 153.465 1317.7 153.504 1317.58 153.659C1316.65 154.983 1314.43 155.372 1313.38 154.36C1313.38 154.36 1313.42 154.282 1313.42 154.243C1313.42 154.282 1313.42 154.321 1313.38 154.516C1312.84 154.866 1312.21 155.255 1311.43 155.761C1311.43 155.022 1311.43 154.516 1311.43 154.088C1310.46 153.659 1309.64 153.27 1308.71 152.881C1308.09 153.114 1307.46 154.749 1306.57 153.231C1306.02 153.659 1305.4 154.516 1304.62 154.71C1304 154.866 1303.18 154.165 1302.48 153.854C1302.64 153.543 1302.79 153.192 1302.95 152.881C1303.03 153.076 1303.11 153.27 1303.18 153.426C1302.64 153.387 1302.05 153.348 1301.51 153.348C1301.63 152.414 1301.74 151.519 1301.98 150.04C1299.84 147.12 1299.64 146.965 1297.35 147.237C1297.58 147.004 1297.81 146.77 1298.05 146.537C1296.45 145.213 1294.85 143.929 1293.22 142.567C1292.75 143.267 1292.48 143.656 1292.09 144.201C1291.2 142.878 1290.11 141.749 1288.67 142.605C1286.8 143.734 1286.25 143.111 1286.25 141.321C1285.71 141.36 1285.24 141.399 1285.16 141.399C1284.97 141.632 1284.66 142.177 1284.42 142.177C1283.76 142.099 1282.94 141.944 1282.48 141.477C1281.58 140.621 1280.69 140.543 1279.6 140.854C1279.48 140.971 1279.36 141.088 1279.25 141.165C1278.04 141.321 1276.83 141.516 1275.63 141.593C1275.08 141.632 1274.5 141.438 1273.91 141.36C1273.91 141.165 1273.91 140.971 1273.87 140.776C1272.71 141.088 1271.27 142.061 1271.11 139.959C1270.18 139.803 1269.44 139.686 1268.08 139.492C1268.82 140.153 1269.2 140.504 1269.55 140.815C1269.13 141.087 1268.66 141.71 1268.15 141.71C1266.44 141.671 1265.31 140.932 1265.2 138.986C1265.12 137.351 1264.73 135.716 1264.42 133.848C1264.03 133.848 1263.21 133.848 1262.12 133.848C1262.51 132.797 1262.78 131.98 1263.13 131.007C1262.32 131.007 1261.3 131.201 1260.45 130.929C1259.82 130.734 1259.36 129.956 1259.01 129.606C1258.85 129.761 1258.42 130.15 1257.99 130.54C1258.11 131.201 1258.07 132.135 1257.64 132.447C1256.28 133.342 1254.8 134.121 1253.25 134.665C1252.58 134.899 1251.61 134.549 1250.87 134.276C1250.72 134.198 1250.76 132.836 1250.95 132.758C1252 132.369 1253.13 132.174 1253.67 132.058C1253.56 131.902 1253.09 131.357 1252.82 131.007C1252.55 131.357 1252.12 131.902 1251.69 132.408C1251.22 132.019 1250.79 131.591 1250.29 131.201C1249.67 130.695 1249 130.228 1248.34 129.761C1249.51 131.591 1248.69 132.603 1247.29 133.498C1245.85 132.797 1243.91 132.447 1243.44 131.435C1242.82 130.073 1243.4 128.204 1243.48 126.998C1241.14 129.45 1241.14 129.45 1239.78 128.243C1241.06 128.555 1242.31 128.905 1243.59 129.216C1243.67 129.372 1243.75 129.528 1243.79 129.722C1243.32 129.995 1242.89 130.267 1242.43 130.501C1242.23 130.812 1242.04 131.123 1241.84 131.435C1241.14 131.552 1240.48 131.824 1239.78 131.785C1239.47 131.785 1239.08 131.318 1238.92 130.968C1238.85 130.851 1239.23 130.462 1239.43 130.189C1238.73 130.034 1237.79 129.878 1236.9 129.644C1236.08 129.411 1235.26 129.411 1234.99 128.126C1234.76 127.115 1234.41 125.674 1232.73 125.713C1232.54 125.713 1232.15 125.48 1232.11 125.285C1231.68 123.689 1230.63 124.118 1229.54 124.351C1229.15 124.429 1228.76 124.351 1228.73 124.351C1228.61 123.106 1228.84 121.938 1228.38 121.159C1227.95 120.42 1226.82 120.109 1226.04 119.68C1225.73 119.797 1225.26 119.914 1224.83 120.147C1223.16 121.004 1221.64 119.875 1220.05 119.875C1219.27 119.875 1218.49 119.992 1217.79 119.797C1217.32 119.68 1217.01 119.019 1216.62 118.629C1215.38 118.707 1213.82 118.863 1212.46 118.941C1211.99 118.201 1211.76 117.423 1211.33 117.267C1210.16 116.878 1208.99 116.45 1207.67 117.345C1206.15 118.357 1205.22 117.851 1204.98 116.255C1203.74 116.761 1202.49 117.306 1201.25 117.773C1201.09 117.851 1200.78 117.618 1200.58 117.501C1199.53 116.956 1198.52 116.061 1197.43 115.905C1194.4 115.438 1191.32 115.282 1188.13 114.971C1188.32 114.543 1188.52 114.114 1188.87 113.297C1186.73 114.504 1184.28 114.387 1183.23 116.722C1183.11 116.956 1182.33 116.839 1181.86 116.878C1179.33 117.073 1176.26 116.45 1174.39 117.656C1172.48 118.902 1172.76 117.89 1172.64 116.956C1172.52 116.177 1172.83 115.36 1172.91 114.932C1172.21 114.309 1171.47 113.803 1170.96 113.141C1170.15 112.13 1168.82 111.701 1168.24 112.558C1167.03 114.192 1166.14 113.375 1165.09 112.519C1164.66 113.025 1164.35 113.414 1163.92 113.881C1163.38 113.141 1162.99 112.597 1162.56 112.052C1162.01 112.207 1161.51 112.324 1160.96 112.48C1161.16 110.456 1160.65 110.028 1158.9 110.222C1158.2 110.3 1157.5 110.3 1156.8 110.183C1155.36 109.95 1153.96 109.638 1152.98 109.444C1152.01 108.354 1151.27 107.498 1150.57 106.719C1150.18 107.537 1149.91 108.121 1149.6 108.665C1149.36 108.627 1149.17 108.549 1148.94 108.51C1148.94 107.576 1148.94 106.641 1148.94 105.746C1148 106.447 1147.26 106.992 1146.52 107.537C1146.37 107.381 1146.21 107.225 1146.05 107.109C1146.21 106.603 1146.37 106.058 1146.52 105.552C1146.48 105.552 1146.48 105.552 1146.44 105.513C1146.48 105.552 1146.48 105.591 1146.52 105.629C1145.51 106.68 1144.5 107.731 1143.49 108.821C1142.94 109.405 1142.47 110.028 1142.05 110.534C1142.16 110.728 1142.44 111.156 1142.94 112.013C1141.97 111.701 1141.38 111.468 1140.84 111.351C1139.87 111.156 1138.89 111.001 1137.88 110.845C1137.3 110.767 1136.67 110.689 1136.09 110.573C1135.78 110.495 1135.51 110.261 1135.23 110.3C1133.91 110.417 1132.74 110.806 1132.63 112.597C1131.19 111.623 1129.36 111.04 1128.93 109.95C1127.8 106.992 1125.89 105.552 1122.82 105.474C1122.66 104.929 1122.51 104.384 1122.43 104.073C1120.83 105.591 1119.55 103.878 1118.03 104.073C1118.46 103.45 1118.65 103.139 1118.77 102.944C1117.52 102.944 1116.24 102.905 1114.96 102.983C1114.72 102.983 1114.29 103.372 1114.26 103.606C1114.18 104.89 1113.13 104.812 1112.35 105.162C1111.65 105.513 1111.14 106.135 1110.44 106.525C1109.47 107.031 1108.46 107.537 1107.41 107.809C1106.63 108.004 1105.77 107.77 1104.95 107.731C1104.88 107.653 1104.8 107.576 1104.72 107.498C1103.59 106.758 1103.08 107.498 1102.54 108.354C1101.53 109.911 1100.09 109.833 1099.11 108.276C1098.96 108.004 1098.73 107.731 1098.3 107.147C1097.79 107.926 1097.6 108.704 1097.05 108.977C1096.04 109.483 1094.79 110.067 1093.74 109.911C1092.93 109.794 1092.26 108.626 1091.52 107.926C1091.88 107.653 1092.23 107.342 1092.11 107.42C1089.35 107.459 1088.61 107.109 1088.41 104.773C1087.71 105.63 1087.2 106.174 1086.66 106.836C1084.25 105.824 1082.46 103.333 1079.73 103.839C1079.38 104.423 1079.07 104.89 1078.8 105.318C1078.33 104.968 1077.82 104.695 1077.36 104.306C1076.46 103.567 1076.27 101.854 1074.44 102.438C1074.28 102.477 1073.62 101.698 1073.58 101.27C1073.54 100.881 1074.05 100.453 1074.32 100.025C1072.69 101.115 1072.69 101.114 1071.44 99.1684C1071.32 98.9738 1071.09 98.8181 1070.86 98.7013C1070.47 98.4289 1070.04 98.1954 1069.65 97.9619C1069.69 98.0008 1069.73 98.1175 1069.73 98.1175C1069.38 98.4678 1068.99 98.7403 1068.64 99.0906C1068.41 99.3241 1068.25 99.7133 1067.98 99.869C1067.63 100.064 1067 100.297 1066.77 100.141C1064.12 97.9618 1061.48 96.0547 1057.7 97.378C1056.69 97.7283 1055.25 97.7673 1054.32 97.3002C1053.42 96.8331 1052.8 95.6265 1052.25 94.6535C1051.9 93.9918 1051.94 93.1744 1051.82 92.396C1051.24 92.8241 1050.66 93.2134 1050.07 93.6804C1049.84 93.875 1049.72 94.1864 1049.84 93.9918C1050 94.7313 1050.27 95.1594 1050.11 95.393C1049.45 96.7163 1048.4 96.6774 1047.23 96.0546C1046.03 95.4708 1045.05 94.6535 1043.46 95.5097C1042.76 95.899 1041.35 95.0426 1040.3 94.6923C1040.3 94.6923 1040.42 94.2643 1040.38 94.381C1039.99 94.3032 1039.33 94.3031 1038.79 94.0307C1037.31 93.2912 1035.98 92.8631 1034.43 94.0696C1032.64 95.4319 1030.34 94.4589 1029.72 92.2403C1027.5 93.5248 1027.26 93.4079 1025.82 90.8001C1024.89 91.1115 1023.96 91.5007 1022.98 91.6954C1021.23 92.0846 1021.23 92.0457 1020.96 90.3331C1020.03 91.4618 1019.44 92.2792 1018.7 92.9798C1018.35 93.3301 1017.73 93.6415 1017.26 93.6026C1016.99 93.6026 1016.68 92.9409 1016.48 92.5128C1016.25 92.0846 1016.13 91.6175 1015.94 91.0337C1015.43 91.6175 1015.08 92.0068 1014.77 92.396C1013.37 94.1864 1012.28 94.1085 1011.19 92.2014C1010.96 91.8121 1010.33 91.5786 1009.87 91.384C1009.13 91.0726 1008.39 90.878 1008.08 90.7613C1007.45 91.1894 1006.95 91.5786 1006.4 91.8511C1005.82 92.1625 1005 92.2403 1004.65 92.7074C1003.99 93.5636 1003.68 94.6535 1003.06 95.5487C1002.59 96.2493 1001.93 96.9109 1001.23 97.3391C1000.95 97.4947 1000.1 97.1445 999.786 96.7942C999.552 96.5217 999.474 95.6265 999.708 95.4708C1000.25 95.0426 1000.99 94.887 1001.65 94.6145C1001.77 94.8091 1001.89 94.9649 1002 95.1595C1000.25 95.9768 996.36 94.7313 998.346 98.8571C997.411 98.8571 996.672 98.9738 995.971 98.8181C995.271 98.6624 994.609 98.2342 993.986 97.8061C993.753 97.6504 993.597 97.1055 993.714 96.872C993.831 96.6385 994.298 96.4438 994.609 96.4438C995.31 96.4828 996.01 96.6385 996.711 96.7164C994.103 95.393 993.208 94.1864 994.181 92.863C993.986 93.2522 993.519 93.8361 993.441 93.7972C992.974 93.4858 992.585 93.0577 992.196 92.6295C991.962 92.3571 991.69 92.0846 991.456 91.8121C990.678 91.4618 989.899 91.1116 989.16 90.7613C988.342 91.1505 987.486 91.5786 986.98 91.8511C987.37 92.4738 987.837 93.1355 988.304 93.7972C987.331 93.875 986.319 93.9529 985.735 93.9918C985.968 94.3421 986.63 95.1205 987.019 95.9768C987.136 96.2492 986.358 96.8331 986.007 97.3002C984.801 95.9379 983.283 97.0667 981.92 96.911C983.088 96.9888 983.633 98.1954 983.049 99.3241C982.582 100.219 982.154 101.231 981.025 99.7522C980.753 99.363 979.624 99.4798 978.923 99.5966C977.289 99.9079 976.471 99.363 976.432 98.1175C975.537 98.1175 974.486 98.3899 973.786 98.0007C973.396 97.8061 973.513 96.5606 973.435 95.7822C973.63 95.8211 973.786 95.899 973.98 95.9379C973.396 96.4439 972.813 96.9888 972.229 97.4948C972.462 97.7673 972.657 98.0007 972.929 98.3121C970.477 98.9349 968.22 99.2073 966.429 97.0277C966.274 96.833 964.95 97.2223 964.95 97.378C964.756 99.5187 963.432 98.4289 962.576 98.1565C962.109 98.0008 961.837 97.3001 961.486 96.833C961.915 96.5217 962.343 96.2103 962.771 95.899C962.849 96.1325 962.888 96.366 962.965 96.5996C961.837 96.5996 960.669 96.5996 959.968 96.5996C959.501 97.2223 959.19 98.0786 958.606 98.3121C957.944 98.5846 957.01 98.3899 957.361 97.1444C957.555 97.0277 957.75 96.9109 957.944 96.7942C957.983 96.9109 958.022 96.9888 958.022 97.1056C957.789 97.1056 957.594 97.1056 957.361 97.1056C956.582 98.896 955.064 99.4798 953.313 99.7133C953.274 99.7133 953.235 99.6744 953.196 99.6355C953.196 99.6744 953.235 99.7522 953.235 99.7912C953.624 100.103 954.013 100.686 953.858 100.92C953.624 101.231 953.04 101.231 952.612 101.387C951.367 101.854 949.576 101.971 949.031 102.866C948.292 104.073 947.825 104.656 946.423 104.228C946.151 104.15 945.606 104.345 945.411 104.579C944.516 105.785 943.738 107.07 943.232 107.848C941.48 107.965 940.118 108.043 938.717 108.12C938.717 108.237 938.678 108.315 938.678 108.432C939.223 108.626 939.729 108.821 940.235 108.977C938.6 109.911 937.043 110.806 935.525 111.701C934.591 109.716 933.151 110.534 931.789 111.118C930.31 111.74 928.792 112.052 927.468 110.962C926.262 109.95 925.328 108.627 924.394 107.615C922.915 108.549 921.903 109.21 920.813 109.794C920.657 109.872 919.957 109.483 919.918 109.249C919.723 107.303 918.633 108.354 917.932 108.704C917.349 109.016 916.96 109.599 916.415 110.067C914.819 109.171 913.262 108.315 911.705 107.42C910.031 106.447 908.474 104.89 906.372 106.758C905.828 107.225 904.855 107.381 904.076 107.303C903.57 107.264 903.064 106.68 902.597 106.252C902.481 106.135 902.597 105.707 902.636 105.435C902.636 105.435 902.753 105.396 902.792 105.435C902.87 105.435 902.909 105.513 902.947 105.552C902.947 105.591 902.909 105.629 902.792 105.902C902.286 105.513 901.897 104.89 901.391 104.773C899.95 104.384 898.432 103.917 897.031 104.073C896.525 104.112 896.214 105.162 895.63 103.995C895.436 103.567 894.969 103.255 894.657 102.866C894.618 103.061 894.579 103.216 894.54 103.411C893.373 103.333 892.166 103.255 890.57 103.138C894.034 101.076 890.57 100.141 890.687 98.5067C890.025 99.2851 889.558 99.8301 889.13 100.297C886.834 99.0906 884.693 98.0007 882.825 97.0276C882.085 97.5336 880.995 98.4678 880.84 98.3511C879.4 97.1056 878.777 98.39 877.843 99.0127C877.22 99.4409 876.208 99.9079 875.624 99.7133C874.262 99.2463 873.016 98.39 871.732 97.6894C870.408 100.141 869.825 100.258 867.373 98.8959C866.049 98.1564 864.57 97.6894 863.208 97.0666C862.819 96.872 862.352 96.5995 862.157 96.2492C862.079 96.0546 862.546 95.6265 862.78 95.2762C861.495 97.0666 860.951 96.9498 859.978 94.9259C859.705 94.381 859.238 93.9529 858.888 93.408C857.875 91.9289 856.747 91.9678 855.54 93.2912C855.19 93.6804 854.334 93.9529 853.867 93.7972C851.96 93.2134 850.091 92.7463 848.145 92.396C846.588 92.1235 845.382 92.5127 844.097 92.7852C843.941 92.5906 843.786 92.4738 843.786 92.396C844.097 90.6834 844.097 89.2044 842.034 88.4259C841.1 88.0756 840.283 87.1804 839.544 86.402C838.999 85.8182 838.687 84.9619 838.376 84.4559C837.792 84.2613 837.13 83.9888 836.741 83.8721C835.379 83.9888 834.211 84.1055 833.043 84.1834C833.16 83.5217 833.238 82.8211 833.277 82.5486C833.121 82.6654 832.576 83.0158 832.07 83.3661C832.07 83.911 832.07 84.5337 832.07 84.9229C831.136 85.3122 830.358 85.9738 829.696 85.896C828.528 85.7014 827.828 85.7792 826.971 86.7522C826.427 87.375 825.22 87.4139 824.364 87.6863C824.597 87.881 824.948 88.1924 825.492 88.6205C824.636 89.0876 823.974 89.4379 822.963 89.9828C823.546 87.7253 822.262 87.375 820.9 87.0636C820.238 86.908 819.265 86.8301 819.032 86.402C818.136 84.6894 816.93 84.1834 814.906 84.9618C814.75 83.9109 814.594 83.0546 814.478 82.2373C814.322 82.4708 814.166 82.7822 813.972 83.1325C813.271 81.5367 811.286 81.1864 810.975 79.396C810.936 79.2014 810.352 78.9289 810.196 79.0068C808.717 79.8242 808.328 78.6954 808.017 77.5277C807.121 79.0068 806.032 78.9289 804.864 77.4499C803.346 75.5427 801.594 74.0636 798.909 74.5696C798.558 74.6475 798.169 74.4918 797.819 74.4528C797.624 73.363 797.469 72.39 797.313 71.417C797.469 71.4948 797.624 71.5338 797.741 71.6116C797.936 71.2613 798.169 70.911 798.325 70.5218C798.792 69.4709 798.948 69.4708 800.154 70.872C798.675 69.9768 797.624 69.393 796.301 70.5996C795.795 71.0666 794.588 71.3002 793.693 70.405C793.031 69.7433 792.058 69.3541 791.241 68.887C789.801 68.0697 788.322 67.2522 786.843 66.4738C786.648 66.396 786.298 66.6295 785.792 66.7852C786.492 67.3301 786.96 67.6805 787.505 68.1086C787.193 68.4978 786.921 68.8092 786.57 69.2373C785.247 67.4469 784.118 65.6176 782.172 64.6056C781.9 64.4499 781.627 64.3331 781.355 64.1774C779.954 63.2044 778.708 61.5697 776.645 62.8541C776.606 62.893 776.528 62.8541 776.451 62.8152C774.816 61.5307 773.181 60.2463 770.885 58.4559C769.25 58.923 766.992 59.6625 764.696 60.1296C762.828 60.5188 760.999 60.7133 759.87 62.5816C759.598 63.0487 758.819 63.6325 758.43 63.5158C757.807 63.3212 757.106 62.7373 756.795 62.1535C755.9 60.402 754.148 59.6235 752.903 60.1684C750.645 58.9619 748.738 57.9888 746.987 57.0547C746.675 57.4828 746.442 58.3391 745.975 58.4559C745.469 58.6116 744.768 58.1056 744.534 58.0277C743.445 58.0277 742.627 58.2224 742.005 57.9889C740.292 57.2883 738.696 56.3541 736.984 55.6146C736.595 55.42 735.855 55.4978 735.504 55.7702C734.531 56.5097 734.298 55.7314 733.909 55.1475C733.714 54.914 733.52 54.6804 733.325 54.4469L733.364 54.4469C733.325 54.5247 733.325 54.6026 733.286 54.6026C732.858 54.7193 732.352 55.0307 732.001 54.914C729.433 53.9409 726.903 52.8511 724.334 51.917C723.05 51.4499 721.648 51.2553 720.286 50.905C719.508 50.7104 718.69 50.4768 717.912 50.2433C717.756 50.4379 717.601 50.6325 717.445 50.8271C717.017 50.4768 716.589 50.1655 716.161 49.8152C716.394 49.5428 716.628 49.2313 716.861 48.9588C716.978 49.1535 717.094 49.3481 717.211 49.5427C715.07 50.1265 712.969 50.6715 710.4 51.3721C709.933 51.2553 708.882 51.0217 707.87 50.8271C707.169 50.7104 706.196 50.9439 705.846 50.5547C704.795 49.4649 703.55 49.4649 702.265 49.6206C701.059 49.7374 699.852 49.9709 698.723 50.399C696.816 51.0996 696.31 50.905 695.804 48.9978C695.726 48.7643 695.259 48.6476 694.987 48.4529C694.87 48.8422 694.558 49.2703 694.636 49.5816C694.87 50.2433 695.298 50.866 695.843 51.878C694.014 51.4888 692.651 51.2164 691.328 50.8661C690.861 50.7493 690.433 50.4769 689.966 50.2823C690.277 49.893 690.589 49.5038 690.861 49.0756C690.978 48.881 690.978 48.6475 691.017 48.414C690.238 49.1146 689.966 50.2822 689.226 50.7493C688.331 51.3331 687.086 51.411 686.385 51.5667C686.385 49.8152 686.385 48.4529 686.385 47.1685C685.568 48.8421 683.505 50.1655 684.828 52.2284C683.622 52.6565 682.687 53.0068 681.636 53.396C681.909 52.6565 682.143 52.0337 682.415 51.2163C680.469 50.866 678.717 50.5547 677.005 50.1655C676.654 50.0876 676.304 49.893 676.071 49.6595C675.059 48.5696 673.735 48.6475 672.684 49.5816C671.205 50.8661 670.193 52.8122 667.819 52.8122C667.469 52.8122 666.729 53.5517 666.768 53.7074C667.235 54.8751 666.34 54.7582 665.717 54.9918C664.939 55.2642 664.238 55.6535 663.46 55.887C661.942 56.3151 660.424 56.6654 658.556 57.1325C658.672 55.7702 658.711 55.0307 658.789 54.2523C658.906 54.2134 659.023 54.1356 659.14 54.0966C659.14 54.1356 659.178 54.2134 659.178 54.2523C659.062 54.2523 658.945 54.2133 658.828 54.2133C658.322 54.6026 657.855 55.0307 657.349 55.42C657.193 54.875 656.843 53.8241 656.921 53.8241C657.816 53.4349 658.789 53.2014 659.762 52.89C659.723 53.2014 659.723 53.5127 659.684 53.8241C659.062 53.396 658.439 52.9679 657.66 52.423C656.999 53.0068 655.987 53.5907 655.559 54.4859C654.897 55.7703 650.849 57.0936 649.798 56.1206C649.643 55.9649 649.603 55.6535 649.487 55.4589C648.591 53.9799 645.595 53.9798 644.661 55.3032C644.388 55.6924 643.259 56.0038 643.026 55.8092C641.858 54.6804 640.613 53.4738 639.873 52.0726C639.134 50.6714 638.316 50.7104 637.226 51.1385C636.526 51.411 635.942 51.9948 635.241 52.1894C634.891 52.3062 634.268 52.0338 634.035 51.7613C633.84 51.5278 633.996 50.9439 633.996 50.6325C632.789 52.6565 630.843 54.2134 627.924 54.1745C627.107 52.0337 626.172 53.4738 624.966 54.5247C624.46 53.7852 624.032 53.1236 623.526 52.423C622.825 52.423 621.852 52.6175 621.074 52.384C620.256 52.1116 619.595 51.372 618.699 50.7103C618.193 53.7073 616.636 51.6055 615.624 51.4888C615.274 52.1115 615.119 52.7732 614.691 53.2403C613.134 54.8361 611.927 52.3451 610.409 52.7732C610.176 52.8511 609.592 52.0338 609.358 51.5667C609.047 50.905 608.93 50.1654 608.735 49.4649C608.697 49.3481 608.657 49.2314 608.618 49.1146C608.657 49.1146 608.735 49.0756 608.774 49.0756C608.735 49.1924 608.735 49.3092 608.696 49.426C608.696 49.7763 608.735 50.1266 608.735 50.4769C608.23 50.399 607.529 50.4768 607.179 50.1655C606.361 49.4649 605.933 48.1026 604.415 48.9978C604.298 49.0757 603.909 48.5308 603.598 48.3362C603.131 48.0637 602.625 47.6355 602.119 47.6355C600.484 47.7134 598.849 47.9469 597.136 48.1415C596.241 47.3242 595.23 46.3511 594.062 45.4948C593.867 45.3391 592.933 45.7673 592.777 46.0786C591.688 48.4529 588.885 48.2193 587.834 47.7134C585.46 46.5846 584.292 47.7523 582.852 48.9588C581.412 50.1654 581.217 49.0756 581.062 48.2972C580.011 48.2972 579.077 48.2972 578.065 48.2972C578.532 50.5157 576.041 50.8272 575.379 51.8391C573.628 51.0607 572.149 50.2822 570.553 49.7373C569.619 49.4259 568.568 49.4649 567.595 49.387C566.7 49.3092 565.882 49.2314 565.259 48.8422C563.586 47.7913 562.029 47.3241 560.316 48.7642C559.694 49.2702 558.837 49.5038 558.059 49.8541C557.242 50.2433 556.463 50.6715 555.646 50.9829C554.789 51.2942 553.855 51.5277 552.921 51.6056C552.766 51.6056 552.454 50.8271 552.337 50.3601C552.221 50.0487 552.259 49.6984 552.259 49.3481C551.948 49.5037 551.637 49.7763 551.286 49.8152C550.741 49.893 549.924 50.1265 549.613 49.8541C547.745 48.2972 546.304 49.3092 544.864 50.4379C543.074 49.387 542.179 49.8152 540.349 52.6176C538.987 52.5008 537.625 52.3841 536.263 52.3451C536.068 52.3451 535.717 52.6565 535.717 52.8122C535.795 54.6026 534.433 55.4588 533.421 56.5486C532.409 57.6385 531.319 58.7673 529.646 56.899C530.307 59.1176 529.412 60.3631 527.778 61.2972C527.311 61.5697 526.843 61.8032 526.376 62.0367C526.22 61.4139 526.104 60.7912 525.948 60.1296C525.754 60.0517 525.559 59.9738 525.364 59.857C525.403 59.7792 525.481 59.7014 525.52 59.6236C525.676 59.7792 525.831 59.9739 525.948 60.1296C525.754 60.6355 525.676 61.4529 525.364 61.5696C523.535 62.1924 521.667 62.6205 519.837 63.2044C519.254 63.3601 518.748 63.7493 517.852 64.1774C517.619 64.0217 516.996 63.5935 516.334 63.1654L516.412 63.2433L516.373 63.1654C516.062 63.4379 515.517 63.6715 515.478 64.0218C514.933 66.5906 513.493 65.2672 512.131 64.7612C511.664 65.8511 511.391 67.1744 510.613 67.9528C509.095 69.5097 508.667 66.9798 507.616 67.1744C503.646 67.9528 499.637 68.7313 496.056 69.3929C495.784 70.4828 495.667 71.378 495.316 72.1175C494.227 74.4917 493.02 76.866 491.852 79.2014C491.658 79.5517 491.463 79.9019 491.424 79.9409C490.218 79.7463 489.284 79.4738 488.388 79.4738C487.299 79.4738 486.248 79.7074 485.158 79.7852C484.847 79.8241 484.496 79.6295 484.146 79.5516C484.262 79.2013 484.302 78.6564 484.496 78.5786C485.547 78.1115 486.676 77.7613 487.571 77.4499C487.143 76.9439 486.325 75.9708 485.508 75.0366C485.391 75.1145 485.275 75.2313 485.197 75.3092C485.119 75.5427 484.963 75.7762 485.041 75.9708C485.158 76.399 485.391 76.7882 485.664 77.4499C483.834 77.0996 482.706 76.5546 482.861 74.842C483.212 74.6863 483.562 74.5306 484.146 74.2582C483.056 73.869 482.2 73.5576 481.382 73.2851C481.382 73.1295 481.382 72.9349 481.382 72.7792C481.927 72.5068 482.511 72.2732 483.056 72.0008C482.978 72.2343 482.939 72.4678 482.861 72.7013C481.811 72.5067 481.46 71.6505 481.499 70.4439C481.421 70.4828 481.344 70.5217 481.266 70.5606C481.266 70.5217 481.266 70.4439 481.266 70.4049C481.344 70.4439 481.46 70.4438 481.538 70.4828C481.849 71.7672 480.993 73.5966 483.095 74.1025C483.017 74.375 482.978 74.6474 482.9 74.881C483.017 75.4648 483.173 76.0876 483.212 76.6714C483.251 77.1385 483.095 77.6055 483.056 78.0726C482.511 77.839 481.927 77.7223 481.46 77.372C481.227 77.1773 481.226 76.6714 481.149 76.3211C480.759 77.1384 480.487 77.9948 480.798 78.6175C481.382 79.863 481.577 80.4079 480.682 80.875C480.059 81.1863 479.164 80.9139 478.385 80.9139C478.308 80.9917 478.23 81.0307 478.152 81.1085C478.152 81.0307 478.152 80.9528 478.113 80.875C478.191 80.9139 478.308 80.9528 478.385 80.9917C478.074 81.3031 477.84 81.848 477.49 81.887C475.194 82.2762 472.897 82.5876 470.562 82.899C470.29 82.9379 469.9 82.86 469.667 82.7044C468.577 82.0427 467.954 82.7822 467.254 83.4438C466.592 84.0666 465.813 84.5337 465.074 85.0397C465.035 84.8062 465.035 84.5336 464.996 84.3001C464.334 83.9887 463.634 83.6774 462.739 83.2882C463.167 85.8181 463.011 85.9738 461.026 85.2732C460.754 85.1564 460.286 85.0007 460.131 85.1175C458.457 86.4409 457.173 84.884 455.733 84.5337C455.577 84.4558 455.382 84.378 455.227 84.3001C455.266 84.2612 455.305 84.2223 455.305 84.1445C455.46 84.2612 455.616 84.4169 455.772 84.5337C456.044 86.3241 454.565 85.4288 454.059 85.857C453.281 87.0636 452.346 88.1924 451.373 89.2043C451.256 89.3211 450.478 89.0486 450.323 88.7761C449.622 87.4917 448.61 87.6085 447.364 87.6863C446.275 87.7642 445.107 87.336 444.056 86.9079C443.706 86.7522 443.706 85.857 443.511 85.3121C444.017 85.2732 444.562 85.2343 445.068 85.2343C445.574 85.2343 446.041 85.3121 446.547 85.351C446.547 85.1564 446.547 85.0007 446.547 84.8061C444.368 83.872 442.888 87.9199 440.942 86.0127C440.475 86.5187 440.086 87.375 439.463 87.5696C438.568 87.8421 435.805 85.6624 435.571 84.6893C435.376 83.833 435.843 82.7822 434.715 82.1594C434.52 82.0426 434.559 81.4977 434.52 81.1085C434.131 81.4588 433.625 81.7702 433.391 82.1984C432.769 83.3271 432.263 84.5337 431.601 85.9738C431.25 85.1564 430.784 84.5337 430.9 84.2612C431.562 83.0157 430.433 82.9378 429.889 82.7432C428.448 82.2372 426.658 82.3151 426.463 80.0965C426.424 79.7462 425.802 79.3181 425.373 79.2014C423.7 78.8121 421.987 78.5785 420.742 78.345C419.769 78.7731 419.068 79.3181 418.367 79.357C416.927 79.4349 415.448 79.2014 413.853 79.0846C413.814 78.6564 413.775 78.1504 413.736 77.1773C413.308 77.9558 413.113 78.345 412.763 79.0456C411.945 77.1384 409.221 76.9438 409.999 74.7642C408.52 75.2313 406.652 75.4259 405.368 73.3241C404.55 74.5307 402.682 74.6864 400.852 73.9079C400.152 73.5965 399.14 73.363 398.517 73.6355C395.948 74.6864 393.418 75.1923 390.694 74.4528C390.344 74.336 389.993 74.1803 389.643 74.0636C389.799 73.6744 389.954 73.2852 389.915 73.4019C390.071 73.3241 389.41 73.5576 389.41 73.6744C389.682 75.2702 388.592 75.2702 387.541 75.4648C386.334 75.6594 385.128 76.1654 383.921 76.2043C383.104 76.2432 382.287 75.7373 381.508 75.4648C382.598 74.2193 382.559 73.2462 381.08 71.7672C380.808 72.5456 380.535 73.2073 380.263 73.9858C378.823 74.4139 377.344 70.2492 375.942 74.375C375.086 72.351 373.996 71.9229 372.361 72.9738C372.206 73.0906 371.466 72.3121 370.999 71.9618C371.427 71.4948 371.856 71.0277 372.284 70.5217C371.972 70.4828 371.661 70.4439 371.661 70.4439C371.7 70.7553 371.895 71.1834 371.739 71.4558C371.622 71.6893 370.844 71.8061 370.766 71.7282C369.793 70.366 368.353 71.0277 367.146 70.6774C365.823 70.2881 364.227 71.1444 363.137 69.7821C363.098 69.7043 362.709 69.9378 362.436 69.9768C362.32 70.0157 362.164 69.9768 362.047 69.9768C362.047 70.0546 362.125 70.0935 362.086 70.1714C362.008 70.366 361.892 70.6774 361.892 70.6774C361.074 70.366 360.257 70.1325 359.517 69.7043C359.128 69.4708 358.895 68.9259 358.856 68.887C358.817 69.4708 359.011 70.5217 358.622 70.7942C357.882 71.2612 356.676 71.7672 356.014 71.4558C353.834 70.5217 352.044 71.8061 350.098 72.0396C349.631 72.0786 349.047 72.0786 348.658 71.845C346.945 70.9887 345.311 70.0546 344.065 69.3929C342.08 70.0157 340.445 70.5217 338.772 71.0277C338.811 70.3271 338.85 69.7044 338.927 69.0816C338.266 69.1595 337.604 69.1983 336.981 69.3151C336.086 69.5097 335.385 70.1324 334.296 69.3929C333.517 68.848 332.233 69.0816 331.182 68.9648C330.209 68.887 329.197 69.0038 328.302 68.6924C326.862 68.1864 325.694 68.5367 325.149 70.0157C324.721 70.0157 324.254 70.0546 323.826 70.0157C322.58 69.8989 321.802 71.1055 320.206 70.9498C318.921 70.7941 318.065 70.9887 317.481 69.7043C317.442 69.5876 316.859 69.7043 316.547 69.7821C315.769 70.0157 314.99 70.2882 314.251 70.5217C314.095 70.0157 313.939 69.6265 313.862 69.3541C313.278 69.7433 312.772 70.1714 312.227 70.366C311.721 70.5217 311.176 70.4049 310.359 70.4049C310.865 70.9888 311.098 71.3001 311.371 71.6504C308.062 72.5845 306.427 70.5217 307.323 66.7463C305.61 65.9679 305.299 67.0577 305.221 68.4978C303.002 65.9289 303.002 65.9289 300.239 67.2912C299.266 66.7073 298.41 66.1624 297.943 65.8899C297.008 66.5127 296.425 67.2522 295.802 67.2522C295.257 67.2522 294.712 66.4349 294.011 65.8511C293.739 65.9289 293.116 66.1235 292.104 66.4349C292.416 65.0337 292.61 63.9827 292.805 62.9708C292.377 63.2432 291.871 63.5935 291.365 63.9438C291.676 64.9947 291.832 66.1625 291.326 66.7463C290.937 67.1744 289.73 66.9019 288.874 66.9798C287.823 67.0576 286.811 67.1744 285.76 67.2912C285.215 67.369 284.67 67.4469 284.242 67.5247C284.359 67.7972 284.748 68.2253 284.67 68.5756C284.592 68.887 283.892 69.3929 283.697 69.3151C282.607 68.7702 280.7 69.2762 280.739 67.6414C279.649 67.7971 278.365 68.3031 277.431 67.9528C276.691 67.6414 276.418 66.2403 276.029 65.5397C275.095 65.1894 274.122 64.8002 273.149 64.411C272.916 64.5667 272.643 64.7612 272.41 64.9169C271.981 64.9558 271.242 65.0726 271.203 64.9948C270.814 63.905 270.542 62.7373 270.308 61.8421C269.997 61.1804 269.802 60.7133 269.568 60.2462C269.724 60.1684 269.88 60.1295 270.035 60.0516C269.374 61.1025 268.751 62.1146 268.05 63.2433C267.311 62.5427 266.688 61.9589 265.793 61.1026C266.416 61.4918 266.96 61.7253 266.96 61.8421C266.883 62.387 266.766 63.1655 266.377 63.4379C265.559 63.9828 264.586 64.2942 263.613 64.5666C262.485 64.878 261.667 64.9169 262.446 63.2822C262.874 62.387 262.951 61.2972 263.185 60.3241C263.38 60.2463 263.574 60.1684 263.808 60.0516C263.808 60.1295 263.847 60.2463 263.847 60.3241C263.652 60.3241 263.458 60.2852 263.224 60.2852C262.134 61.2972 261.083 62.348 260.383 62.9708C259.021 62.8929 257.97 62.9318 256.997 62.7762C256.568 62.6983 256.023 62.3091 255.907 61.9199C255.79 61.5696 256.218 61.0636 256.413 60.6354C256.568 60.9079 256.374 61.0247 256.335 61.1804C255.401 63.4768 254.622 63.6324 252.832 61.9977C252.287 61.5306 251.625 61.1414 250.964 60.8301C250.146 60.4798 249.212 60.4019 248.472 59.896C247.694 59.39 247.149 58.5726 246.448 57.8331C246.954 57.4828 247.616 57.0547 248.239 56.6265C248.161 56.5098 248.083 56.393 247.967 56.2762C246.526 56.5876 245.125 56.9379 243.529 57.2882C243.451 57.4828 243.296 57.9498 243.101 58.4169C242.479 58.1055 241.972 57.8331 241.466 57.5996C241.389 58.1445 241.311 58.6115 241.233 58.9229C239.443 58.0666 237.769 57.2493 236.368 56.5876C236.562 56.7043 236.99 57.0157 237.458 57.366C236.29 58.2223 235.278 58.9618 234.149 59.8181C233.604 59.5457 232.865 59.1564 232.164 58.8061C232.32 58.1834 232.398 57.5217 232.631 56.899C232.865 56.2373 233.254 55.5756 233.565 54.9139C231.269 55.9259 230.996 57.1325 232.242 58.7283C231.035 61.7253 229.634 62.6594 227.065 62.0367C227.26 61.1804 227.454 60.2852 227.649 59.39C225.82 59.7792 224.536 58.884 223.64 57.4438C223.485 57.1714 223.99 56.5098 224.341 55.6535C220.643 54.875 216.868 54.0966 215.233 50.0876C214.649 50.3601 214.182 50.5935 213.482 50.9049C213.988 48.6864 212.859 47.6355 211.263 46.9738C212.586 44.4439 209.239 45.0667 209.473 43.6655C209.161 44.3661 208.928 44.9499 208.655 45.5337C208.071 45.2613 207.449 45.0277 206.904 44.7163C206.592 44.5607 206.398 44.0936 206.086 44.0157C204.257 43.5487 203.245 42.3811 202.934 40.4739C202.194 41.1745 201.727 41.7583 200.949 40.4349C200.521 39.6954 199.353 39.2673 198.419 38.9948C197.212 38.6834 195.928 38.6445 194.682 38.5278C195.188 36.4649 193.904 35.8032 190.868 36.4649C190.79 36.2313 190.79 35.9978 190.673 35.7643C189.622 33.8571 188.961 31.1715 187.326 30.2373C185.769 29.3421 186.158 27.6296 184.835 27.0457C184.913 26.8901 185.03 26.7733 185.107 26.6176C185.107 26.6176 185.146 26.5786 184.679 26.89C183.356 28.2133 182.149 26.2673 180.943 25.7223C180.125 27.4349 179.386 28.9918 178.88 30.0427C177.907 30.1595 177.089 30.0038 176.583 30.3541C175.338 31.2104 174.326 32.8062 172.574 31.2104C172.497 31.1325 172.263 31.1325 172.185 31.2104C170.589 32.6116 168.916 31.4439 167.32 31.2493C166.113 31.0936 164.362 31.3271 164.712 29.1475C164.712 29.1475 164.479 29.0696 164.362 29.0307C164.284 28.9529 164.206 28.8751 164.128 28.7972C162.455 28.5248 160.898 28.875 159.341 29.5367C157.239 30.4319 155.06 31.2104 152.88 31.9499C152.063 32.2223 151.167 32.1834 150.116 32.3391C149.999 32.4169 149.61 33.0008 149.104 33.1565C147.703 33.6236 146.185 33.8181 145.524 35.4528C145.29 35.9588 144.979 36.4259 144.59 37.1265C141.009 34.6355 139.024 36.893 137.506 39.4618C136.066 38.9169 135.404 37.8661 134.587 36.9709C134.003 36.387 133.419 35.9978 133.38 35.1026C133.341 34.7912 132.796 34.2463 132.718 34.2852C130.85 35.3361 129.76 33.1954 128.125 33.2343C127.892 33.6235 127.62 34.0517 127.386 34.4409C126.685 33.2733 126.257 31.9499 125.362 31.1714C123.688 29.6924 121.703 28.5248 119.913 27.1236C118.862 26.3062 117.772 26.0727 116.488 26.423C115.982 26.5397 115.437 26.5008 114.931 26.5397C114.075 26.6565 113.14 26.6175 112.362 26.9678C111.194 27.4738 110.144 28.2523 108.976 28.9529C108.742 28.0966 108.586 27.6685 108.47 27.2014C109.015 27.0457 109.56 26.8511 109.793 26.7732C109.326 26.3061 108.82 25.8391 108.509 25.5667C107.536 25.878 106.641 26.1505 105.784 26.4619C105.979 26.6954 106.29 27.0846 106.718 27.7074C105.901 27.5517 105.356 27.2792 104.889 27.396C104.188 27.5517 103.566 28.0188 102.865 28.2134C100.296 28.9529 97.7274 29.7314 95.7424 26.8511C95.3921 26.3451 94.2244 26.384 93.407 26.3062C92.5119 26.1894 91.5775 26.1505 90.6433 26.1115C89.9428 26.6565 89.1646 26.8511 88.3472 26.9678C87.8023 27.0457 87.2183 26.9289 86.6344 26.89C86.5176 28.875 84.8828 27.9409 84.0265 28.2523C83.5984 29.0696 83.2094 29.7702 82.7034 30.7044C82.1585 29.9649 81.8472 29.5367 81.5359 29.1085C81.5359 29.2642 81.4966 29.42 81.4966 29.5757C80.796 29.5368 80.0568 29.4978 79.3952 29.4589C80.4071 30.9769 81.1077 32.6115 77.955 32.5337C78.2274 32.9229 78.4606 33.2344 78.8888 33.8571C76.8648 33.7403 75.4249 34.2074 74.6465 35.9589C74.413 36.4259 73.401 36.6595 72.7003 36.7373C72.4668 36.7762 72.1945 35.881 71.8053 35.1804C70.5598 37.0098 69.3532 38.8002 67.8352 41.0577C67.6796 39.5397 67.5626 38.5667 67.4848 37.6325C67.3291 37.7882 67.1734 37.9828 67.0176 38.1385C66.7451 37.9439 66.4338 37.7882 66.2003 37.5547C65.6943 37.0487 65.2273 36.5038 64.7601 35.9589C64.6434 36.0756 64.5656 36.1924 64.4489 36.3091C64.838 37.1654 65.2276 38.0607 65.5778 38.917C63.6317 38.6445 61.6852 38.5277 62.9307 36.1145C62.9696 36.0367 62.3472 35.5307 61.9968 35.2972C61.452 34.9469 60.518 34.8301 60.3234 34.402C59.7006 32.9619 59.35 31.4439 58.9219 29.9649C58.7273 31.0547 59.0386 32.0667 59.1165 33.0787C59.1553 33.5068 58.844 34.2852 58.5326 34.363C57.1703 34.6744 55.5745 33.6625 54.3678 35.1026C54.2899 35.1804 53.8231 35.0637 53.6674 34.908C52.5387 33.5068 50.0479 33.1175 50.3203 30.4708C49.8921 30.86 49.6194 31.2103 49.5805 31.6385C49.5416 32.1055 49.7361 33.0008 49.6972 33.0397C48.6463 33.3122 47.5569 33.4678 46.506 33.6235C46.4671 33.1175 46.4279 32.6505 46.3889 32.2613C45.9608 32.6894 45.377 33.2733 44.7932 33.8571C44.9878 34.3631 45.1823 34.9469 45.2991 35.2194C43.5087 35.4918 41.6406 35.4528 40.0059 36.0367C37.7095 36.854 35.7245 37.9828 34.1676 34.8301C33.8562 34.2074 33.5447 33.7792 33.3112 33.0397C33.0387 32.1445 33.817 29.9648 31.7931 30.1984C31.7931 30.86 32.0267 31.7553 31.7543 31.911C30.7035 32.6116 29.8473 34.3631 28.2125 32.7673C27.1616 35.7643 25.8383 35.6475 21.518 32.378C20.5838 33.1565 19.6886 34.5187 18.6766 34.5966C17.7426 34.7133 16.6524 33.5068 15.6404 32.884C15.2122 33.7403 15.2124 33.7403 17.0418 34.5187C16.3023 35.0247 15.5626 35.4528 14.8619 35.9199L14.9011 35.881C14.0838 36.0367 13.3052 36.2313 12.7992 36.3091C12.8381 37.2043 13.1106 37.9438 12.8771 38.2552C12.2932 38.9947 11.515 39.5786 10.6976 40.0457C10.3084 40.2792 9.41285 40.4738 9.21815 40.2403C8.43971 39.3451 7.85609 38.2941 7.15541 37.2822C7.46681 37.0876 7.73927 36.8929 8.05067 36.6983C8.55665 36.348 9.45192 36.0757 9.56861 35.6086C9.9579 33.896 10.8922 33.8571 12.2545 34.402C12.488 34.4798 12.8383 34.2852 13.5388 34.1684C13.1107 33.1564 12.7213 32.2613 12.332 31.3272C12.4489 31.1715 12.7603 30.86 13.1884 30.393C11.9818 29.3031 10.853 28.2912 9.56862 27.1624C9.49086 27.6684 9.52968 27.8631 9.41285 28.0188C8.98475 28.6026 8.55677 29.1864 8.08973 29.7313C7.73939 29.1475 7.38893 28.6026 7.07765 28.0188C6.99977 27.8631 6.96083 27.5517 6.88295 27.5128C3.84706 26.6954 6.37709 25.9169 7.03871 25.1385C5.83217 25.9169 4.74244 26.6565 4.00294 27.1236C4.35328 27.9798 4.7035 28.7971 5.09266 29.6924C5.79322 29.8091 6.72731 29.8481 7.54469 30.1984C7.89491 30.3541 8.24525 31.4828 8.12843 31.5996C7.31117 32.2223 6.37709 32.7283 5.48182 33.2343C4.97584 33.5068 4.15846 33.6235 4.04164 34.0127C3.38002 36.1145 1.97902 35.2972 0.889172 35.2194C1.04493 33.7403 1.16139 32.3781 1.31715 31.1326C0.616589 31.5218 -0.278675 32.1834 -0.434437 32.0667C-1.25182 31.3271 -2.3413 30.4709 -2.53588 29.4589C-3.19762 26.384 -3.70372 23.2702 -3.85936 20.1564C-4.28746 11.2433 -4.52098 36.5108 -4.83239 27.5976C-5.06591 20.0856 -5.33849 12.5736 -5.49425 5.06166C-5.57201 -0.0371406 -5.37731 41.0558 -5.41625 35.957C-5.49413 27.3552 -5.72753 18.7534 -5.84435 10.1905C-5.92211 4.54683 -5.96117 33.0837 -6.00011 27.44C-5.72765 18.7993 -5.76659 9.38019 -5.80553 -3.1205e-05ZM502.945 61.3361C502.906 61.375 502.829 61.414 502.79 61.4918C502.829 61.4529 502.829 61.414 502.868 61.375L502.945 61.4529L502.945 61.3361ZM277.859 62.2313C277.859 62.0756 277.859 61.9199 277.859 61.7642L277.937 61.8421L277.937 61.7642C277.898 61.9588 277.898 62.1534 277.859 62.3091L277.975 62.2702L277.859 62.2313ZM976.666 96.9888L976.588 96.872L976.588 96.9888C976.432 96.8331 976.238 96.7163 976.082 96.5606C976.16 96.5217 976.354 96.4439 976.354 96.4828C976.471 96.5995 976.549 96.7942 976.666 96.9888ZM279.221 67.2912C278.987 67.4079 278.793 67.5636 278.598 67.6804C278.521 67.5636 278.559 67.6026 278.559 67.6026C278.793 67.4858 279.026 67.3301 279.26 67.2133L279.143 67.2912C279.104 67.2912 279.221 67.2912 279.221 67.2912ZM1246.08 129.333C1245.77 129.411 1245.46 129.528 1245.07 129.644C1245.15 129.917 1245.23 130.228 1245.23 130.189C1245.46 129.956 1245.81 129.606 1246.12 129.294C1246.01 129.1 1245.93 128.905 1246.08 129.216C1246.08 128.866 1246.08 129.099 1246.08 129.333ZM1471.05 156.189C1471.44 155.411 1471.87 154.671 1472.22 154.088C1471.13 154.165 1470.04 154.516 1471.05 156.189ZM281.945 53.5128C281.829 53.5906 281.634 53.7074 281.673 53.7852C281.868 54.7193 282.14 55.6535 282.374 56.6265C281.557 56.5098 280.739 56.4319 279.921 56.3151C279.844 56.3151 279.805 56.3151 279.727 56.2762C277.625 55.848 277.08 54.6414 278.365 52.851C278.948 52.0726 279.844 51.5277 280.894 50.6714C279.805 50.9828 278.91 51.2552 278.014 51.4887C277.353 51.6834 276.652 51.8002 275.99 51.9559C276.068 51.3721 276.185 50.7882 276.302 49.9708C275.251 50.1654 273.655 51.4888 273.149 49.2313C273.071 48.9978 272.721 48.8032 272.526 48.6086C272.526 48.6086 272.449 48.7253 272.371 48.7253C272.021 48.7643 271.592 48.92 271.281 48.8421C271.009 48.7643 270.853 48.3361 270.658 48.1025C270.541 48.1415 270.425 48.1415 270.308 48.1804C270.308 48.1415 270.308 48.0636 270.308 48.0247C270.425 48.0636 270.541 48.1026 270.658 48.1415C272.76 49.1146 272.993 49.893 271.826 51.7613C271.437 51.8002 271.047 51.9169 270.697 51.9169C269.958 51.878 269.218 51.7223 268.479 51.6445C268.44 51.7223 268.439 51.7613 268.401 51.8391C269.529 51.8391 270.658 51.8391 271.787 51.8391C272.565 51.6834 273.344 51.5277 274.161 51.3721C274.239 51.917 274.55 52.6176 274.317 52.9289C273.694 53.6685 272.916 54.3301 272.098 54.7583C271.67 54.9918 270.931 54.6804 270.347 54.5637C270.035 54.5247 269.763 54.369 269.49 54.2523C271.67 54.0966 271.514 56.354 272.488 57.3271C274.667 56.4708 273.227 54.9917 273.11 53.8241C275.484 53.8241 276.029 54.6025 275.056 56.6654C275.874 56.9768 276.691 57.2103 277.391 57.6385C277.859 57.9109 278.17 58.4948 278.52 58.9229C277.975 59.0008 277.392 59.1175 276.847 59.1953C276.808 59.1953 276.769 59.1175 276.73 59.0786C276.73 59.0786 276.73 59.1175 276.652 58.8839C279.026 60.0516 280.583 58.5337 282.101 57.0936C282.179 56.8211 282.413 55.887 282.491 55.887C283.464 56.0427 284.475 56.2373 285.37 56.6654C285.604 56.7822 285.293 57.872 285.293 57.9888C285.994 58.6894 286.538 59.2342 287.122 59.857C287.161 59.857 287.433 59.7792 287.589 59.7403C285.176 57.5996 284.787 56.4319 285.76 55.4199C285.682 55.4978 285.254 55.8091 284.826 56.1594C284.553 55.6534 284.203 55.1474 284.008 54.6025C283.814 54.0576 283.619 53.5128 283.58 52.9289C283.541 52.4619 283.541 51.7612 283.814 51.6055C284.164 51.372 284.787 51.5667 284.826 51.5667C284.865 51.3721 284.982 51.0217 285.098 50.6325L284.981 50.7103L285.098 50.7103C284.203 51.372 283.308 51.9947 282.451 52.6564C282.451 52.6564 282.646 52.9289 282.724 53.0846C282.412 53.1235 282.179 53.3182 281.945 53.5128ZM474.726 76.2822C475.505 77.5277 476.517 79.1624 477.529 80.7971C477.101 80.4858 476.906 79.7073 476.945 79.7073C478.385 79.2791 478.269 78.1894 478.269 77.0607C478.269 76.866 478.969 76.6324 479.047 76.5935C479.047 75.5037 479.047 74.5696 479.047 73.6744C477.724 74.4528 476.128 75.4259 474.726 76.2822ZM288.446 61.1026C288.173 60.908 287.939 60.7522 287.667 60.5576C287.122 61.2971 286.538 62.0756 285.954 62.8929C285.371 61.8421 284.904 60.9858 284.553 60.402C284.281 61.1415 284.008 62.1145 283.619 63.0097C283.463 63.36 283.074 63.5936 283.152 63.5157C283.775 64.0217 284.826 64.8391 285.877 65.6175C285.799 65.3061 285.682 64.8001 285.526 64.1384C288.212 64.4498 287.473 62.1146 288.446 61.1026ZM504.346 59.5068C503.724 58.9229 503.101 58.417 502.673 57.9888C502.4 58.6894 502.089 59.5067 501.817 60.2462C502.595 60.0516 503.607 59.7403 504.346 59.5068ZM255.634 51.2553C255.323 51.3331 255.011 51.372 254.7 51.4499C255.829 52.5786 255.401 53.0456 254.194 53.6295C255.128 53.9798 256.023 54.3301 257.58 54.9139C256.763 53.357 256.218 52.3062 255.634 51.2553ZM581.178 43.5097C581.801 44.2493 581.256 45.417 582.424 45.3392C583.008 45.3002 583.553 44.7163 584.253 44.2882C583.086 43.9768 582.307 43.7822 581.178 43.5097ZM1237.91 125.13C1237.83 125.285 1237.76 125.48 1237.64 125.635C1238.03 125.869 1238.49 125.986 1238.85 126.297C1239.35 126.725 1239.74 127.231 1240.17 127.737C1239.94 127.815 1239.7 127.893 1239.47 127.971C1239.47 127.037 1239.47 126.064 1239.47 125.13C1239.04 125.13 1238.49 125.13 1237.91 125.13ZM577.092 45.2224C576.858 47.4409 578.649 46.5457 580.128 46.2343C580.011 46.4678 579.855 46.7014 579.739 46.896C578.766 46.3122 577.831 45.6894 577.092 45.2224ZM519.643 59.4289C519.409 59.3122 519.137 59.1953 518.903 59.0786C518.514 59.7402 518.164 60.4409 517.775 61.1026C518.164 61.1415 518.825 61.375 518.903 61.2193C519.253 60.7133 519.409 60.0517 519.643 59.4289ZM501.972 63.7104C502.167 63.5158 502.322 63.3211 502.517 63.1265C501.972 62.6595 501.388 62.1924 500.844 61.7253C500.688 61.881 500.571 62.0367 500.415 62.1924C500.921 62.6983 501.466 63.2044 501.972 63.7104ZM275.212 59.5846C275.134 59.5846 275.057 59.6235 274.979 59.6235C275.329 60.5187 275.718 61.414 276.068 62.2702C276.107 62.2313 276.146 62.1924 275.835 62.4649C275.601 61.414 275.407 60.4798 275.212 59.5846ZM1601.25 131.085C1601.09 131.007 1600.94 130.968 1600.78 130.89C1600.59 131.435 1600.39 131.98 1600.16 132.525C1600.31 132.564 1600.47 132.641 1600.59 132.68C1600.82 132.174 1601.05 131.629 1601.25 131.085ZM479.631 71.1056C479.436 71.3391 479.164 71.7283 478.852 72.1564C479.047 72.2343 479.358 72.39 479.786 72.5846C479.709 71.9229 479.67 71.4559 479.631 71.1056ZM1266.4 135.171C1266.36 135.171 1266.32 135.171 1266.29 135.171C1266.32 135.522 1266.36 135.833 1266.4 136.183C1266.44 136.183 1266.44 136.183 1266.48 136.183C1266.44 135.872 1266.44 135.522 1266.4 135.171ZM831.175 82.2762C831.409 82.0427 831.681 81.7703 831.954 81.5367C831.993 81.6146 832.07 81.6924 832.109 81.7702C831.759 81.9259 831.448 82.1205 831.175 82.2762ZM268.167 50.0876C268.089 50.0098 268.011 49.893 267.933 49.8152C267.972 49.893 268.05 50.0098 268.167 50.0876ZM1073.15 99.5576C1073.11 99.4408 1073.11 99.3241 1073.08 99.2073C1073.31 99.2073 1073.54 99.1684 1074.24 99.1295C1073.58 99.402 1073.39 99.4798 1073.15 99.5576ZM504.191 61.2193C504.268 61.2971 504.347 61.375 504.424 61.375C504.541 61.375 504.619 61.2582 504.736 61.2193C504.658 61.1414 504.58 61.0247 504.541 61.0636C504.424 61.0247 504.307 61.1414 504.191 61.2193ZM281.167 63.0876C281.206 63.0876 281.284 63.1265 281.323 63.1265C281.284 63.2822 281.206 63.4379 281.167 63.5936C281.128 63.5546 281.089 63.5157 281.089 63.4768C281.089 63.36 281.128 63.2432 281.167 63.0876ZM516.685 62.2313C516.685 62.2702 516.685 62.3092 516.685 62.3481C516.724 62.3481 516.801 62.3092 516.84 62.2703C516.879 62.2313 516.84 62.1534 516.84 62.1145C516.762 62.1534 516.724 62.1924 516.685 62.2313ZM54.835 33.896C54.7182 33.8181 54.6793 33.8181 54.6404 33.7792C54.6793 33.7403 54.7183 33.7014 54.7183 33.6625C54.7572 33.7403 54.7571 33.7792 54.835 33.896Z" fill="#F4E8D2"/>
<path d="M992.157 93.0576C992.546 93.3301 993.208 93.5636 993.286 93.9529C993.48 94.7702 993.714 95.8211 993.325 96.4438C992.78 97.4558 991.807 97.4169 990.95 96.4828C989.316 94.6924 989.433 93.5248 991.379 92.2403C991.69 92.5128 991.924 92.7852 992.157 93.0576Z" fill="#F4E8D2"/>
<path d="M272.916 67.5248C272.371 68.3422 271.826 69.1594 271.281 69.9768C271.009 69.9379 270.736 69.8601 270.464 69.8212C270.308 69.0038 270.113 68.1865 269.958 67.3302C270.736 67.2523 271.515 67.1745 272.293 67.0966C272.488 67.2134 272.682 67.3691 272.916 67.5248Z" fill="#F4E8D2"/>
<path d="M1242.43 130.773C1244.02 131.085 1243.59 132.486 1243.83 133.498C1243.87 133.615 1242.89 134.159 1242.66 134.004C1242.15 133.692 1241.73 133.148 1241.41 132.603C1241.3 132.447 1241.69 131.98 1241.84 131.707C1242 131.396 1242.23 131.085 1242.43 130.773Z" fill="#F4E8D2"/>
<path d="M273.305 65.1115C273.499 65.2672 273.772 65.6176 273.811 65.5786C274.667 65.0726 275.329 65.0726 275.407 66.2013C275.485 67.2522 274.784 67.6414 273.772 67.4468C273.538 67.4079 273.266 67.4468 273.033 67.4468C272.877 67.1744 272.721 66.9408 272.566 66.6684C272.566 66.3181 272.565 65.9678 272.604 65.6175C272.799 65.4229 273.071 65.2672 273.305 65.1115Z" fill="#F4E8D2"/>
<path d="M1373.59 160.354C1374.1 160.354 1374.61 160.354 1375.11 160.354C1376.2 161.911 1373.9 161.327 1373.9 162.222C1373.44 162.067 1373.01 161.95 1372.54 161.794C1372.93 161.327 1373.24 160.821 1373.59 160.354Z" fill="#F4E8D2"/>
<path d="M1279.52 141.126C1279.99 141.126 1280.41 141.126 1280.88 141.126C1280.84 141.438 1280.76 141.71 1280.73 142.022C1280.22 141.827 1279.67 141.671 1279.17 141.477C1279.25 141.321 1279.4 141.243 1279.52 141.126Z" fill="#F4E8D2"/>
<path d="M568.84 51.5668C568.607 50.9829 568.295 50.5936 568.373 50.3212C568.451 50.0098 568.84 49.6206 569.19 49.5427C569.385 49.4649 569.736 49.8931 570.008 50.0877C569.775 50.3991 569.541 50.7105 568.84 51.5668Z" fill="#F4E8D2"/>
<path d="M789.918 69.6655C790.268 69.393 790.579 69.0427 790.735 69.1205C791.008 69.1984 791.163 69.5486 791.397 69.7822C791.163 69.9379 790.93 70.1714 790.696 70.1714C790.463 70.1714 790.229 69.899 789.918 69.6655Z" fill="#F4E8D2"/>
<path d="M1151.78 109.171C1151.5 109.21 1151.19 109.249 1150.92 109.327C1150.92 109.21 1150.88 109.094 1150.88 109.016C1151.15 108.977 1151.47 108.938 1151.74 108.899C1151.74 108.977 1151.74 109.094 1151.78 109.171Z" fill="#F4E8D2"/>
<path d="M265.637 64.8002C265.832 64.878 266.027 64.9559 266.221 65.0726C266.26 65.0726 266.182 65.2673 266.143 65.384C265.91 65.2283 265.676 65.1116 265.443 64.9948C265.521 64.917 265.598 64.878 265.637 64.8002Z" fill="#F4E8D2"/>
<path d="M1246.08 134.432C1246.47 134.237 1246.71 134.121 1246.98 134.004C1247.06 134.198 1247.25 134.432 1247.17 134.588C1247.1 134.743 1246.82 134.938 1246.63 134.899C1246.47 134.899 1246.32 134.627 1246.08 134.432Z" fill="#F4E8D2"/>
<path d="M715.966 51.45C715.46 50.7883 715.226 50.4769 715.265 50.4379C715.46 50.2044 715.694 50.0098 715.966 49.9319C716.083 49.893 716.433 50.2044 716.433 50.3212C716.355 50.5936 716.2 50.905 715.966 51.45Z" fill="#F4E8D2"/>
<path d="M164.517 29.7703C164.323 29.8481 164.128 29.9649 163.973 30.0427C163.934 29.926 163.856 29.7703 163.856 29.7703C163.973 29.6924 164.128 29.6146 164.284 29.5757C164.362 29.6146 164.44 29.6924 164.517 29.7703Z" fill="#F4E8D2"/>
<path d="M960.279 98.195C960.318 98.156 960.357 98.1171 960.435 98.0391C960.474 98.1171 960.552 98.195 960.552 98.312C960.552 98.351 960.474 98.39 960.435 98.429C960.396 98.351 960.357 98.273 960.279 98.195Z" fill="#F4E8D2"/>
<path d="M981.025 101.115C980.986 101.076 980.947 101.037 980.869 100.959C980.947 100.92 981.025 100.842 981.142 100.842C981.181 100.842 981.22 100.92 981.259 100.959C981.181 100.998 981.103 101.037 981.025 101.115Z" fill="#F4E8D2"/>
<path d="M485.664 75.6195C485.703 75.8144 485.703 76.0484 485.742 76.2433C485.625 76.1263 485.469 76.0094 485.352 75.8925C485.43 75.8145 485.547 75.6975 485.664 75.6195Z" fill="#F4E8D2"/>
<path d="M733.909 55.6924C733.675 55.7314 733.481 55.7313 733.247 55.7703C733.286 55.4978 733.286 55.2643 733.325 54.9918C733.52 55.1864 733.714 55.42 733.909 55.6924Z" fill="#F4E8D2"/>
<path d="M1104.88 108.004C1104.68 108.082 1104.49 108.198 1104.33 108.276C1104.29 108.159 1104.17 108.004 1104.21 108.004C1104.33 107.926 1104.49 107.848 1104.64 107.77C1104.72 107.809 1104.8 107.926 1104.88 108.004Z" fill="#F4E8D2"/>
<path d="M1774.49 113.375C1774.53 113.57 1774.61 113.803 1774.65 113.998C1774.37 113.998 1774.14 113.998 1773.87 113.998C1774.06 113.764 1774.3 113.57 1774.49 113.375Z" fill="#F4E8D2"/>
<path d="M718.029 52.3842C717.99 52.3842 717.951 52.3452 717.912 52.3452C717.951 52.2673 717.99 52.2283 718.029 52.1503C718.068 52.1893 718.107 52.2282 718.146 52.2672C718.107 52.3062 718.068 52.3452 718.029 52.3842Z" fill="#F4E8D2"/>
<path d="M1875.81 116.061C1875.61 116.178 1875.45 116.294 1875.26 116.411C1875.3 116.177 1875.34 115.944 1875.38 115.71C1875.49 115.827 1875.65 115.944 1875.81 116.061Z" fill="#F4E8D2"/>
<path d="M717.99 50.7493C718.067 50.9439 718.184 51.1775 718.262 51.3721C718.029 51.3721 717.756 51.3331 717.523 51.3331C717.678 51.1385 717.834 50.9439 717.99 50.7493Z" fill="#F4E8D2"/>
<path d="M272.293 67.0966C272.371 66.9409 272.449 66.8241 272.566 66.6684C272.721 66.9409 272.877 67.1744 273.033 67.4469L272.916 67.5248C272.682 67.3691 272.488 67.2134 272.293 67.0966Z" fill="#F4E8D2"/>
<path d="M1627.21 137.818C1627.02 137.857 1626.78 137.857 1626.59 137.896C1626.59 137.624 1626.55 137.39 1626.55 137.118C1626.74 137.351 1626.98 137.585 1627.21 137.818Z" fill="#F4E8D2"/>
<path d="M265.442 64.9948C265.286 64.9558 265.169 64.9167 265.013 64.8388C265.052 64.7608 265.091 64.6439 265.13 64.5659C265.286 64.6439 265.481 64.7219 265.637 64.7998C265.598 64.8778 265.52 64.9168 265.442 64.9948Z" fill="#F4E8D2"/>
<path d="M1472.07 157.201C1472.03 157.318 1471.99 157.474 1471.99 157.591C1471.87 157.513 1471.79 157.435 1471.68 157.357C1471.79 157.318 1471.91 157.24 1472.07 157.201Z" fill="#F4E8D2"/>
<path d="M15.173 36.5811C15.3289 36.5811 15.4846 36.62 15.6405 36.62C15.5625 36.737 15.4847 36.854 15.4068 36.9709C15.3678 36.815 15.2897 36.698 15.2507 36.5421L15.173 36.5811Z" fill="#F4E8D2"/>
<path d="M260.071 64.3327C260.11 64.2937 260.149 64.2548 260.227 64.1768C260.266 64.2548 260.344 64.3327 260.344 64.4497C260.344 64.4887 260.266 64.5277 260.227 64.5667C260.188 64.4887 260.149 64.4107 260.071 64.3327Z" fill="#F4E8D2"/>
<path d="M8.63415 32.4946C8.67313 32.4167 8.71227 32.3387 8.79023 32.2607C8.82922 32.2997 8.9071 32.3387 8.9071 32.3777C8.86812 32.4556 8.82922 32.5336 8.79023 32.6505C8.75125 32.6115 8.71212 32.5726 8.63415 32.4946Z" fill="#F4E8D2"/>
<path d="M1390.29 161.327C1390.25 161.366 1390.21 161.405 1390.14 161.483C1390.1 161.405 1390.02 161.327 1390.02 161.21C1390.02 161.171 1390.1 161.132 1390.14 161.093C1390.17 161.171 1390.21 161.249 1390.29 161.327Z" fill="#F4E8D2"/>
<path d="M282.685 52.9289C282.919 53.2792 283.152 53.6295 283.347 53.9798C283.036 54.1744 282.724 54.33 282.413 54.5247C282.257 54.1744 282.101 53.863 281.907 53.5127C282.179 53.3181 282.413 53.1235 282.685 52.9289Z" fill="#F4E8D2"/>
<path d="M276.341 52.7733C276.964 52.6176 277.314 52.423 277.586 52.5008C277.82 52.5787 277.898 53.0068 278.053 53.2793C277.742 53.3571 277.392 53.5518 277.08 53.5129C276.886 53.5129 276.691 53.1625 276.341 52.7733Z" fill="#F4E8D2"/>
<path d="M476.79 79.1624C476.401 79.1624 476.011 79.2013 475.661 79.1234C475.622 79.1234 475.622 78.6953 475.622 78.4618C476.011 78.5007 476.401 78.5397 476.79 78.6175C476.79 78.7732 476.79 78.9678 476.79 79.1624Z" fill="#F4E8D2"/>
</svg>
