<svg width="21" height="21" viewBox="0 0 21 21" fill="none" xmlns="http://www.w3.org/2000/svg">
<path d="M2.27359 6.90333L6.57097 18.113C3.56492 16.7259 1.49456 13.7904 1.49456 10.3953C1.49456 9.1493 1.77399 7.97188 2.27359 6.90333ZM16.5798 9.96381C16.5798 8.90333 16.1819 8.16946 15.8389 7.59688C15.3817 6.89123 14.954 6.29042 14.954 5.58478C14.954 4.79446 15.5806 4.06059 16.4655 4.06059C16.5036 4.06059 16.5417 4.06462 16.5841 4.06865C14.9794 2.66946 12.8456 1.81462 10.5 1.81462C7.35423 1.81462 4.58528 3.35091 2.97218 5.68155C3.18387 5.68962 3.38286 5.69365 3.55222 5.69365C4.49214 5.69365 5.95282 5.58478 5.95282 5.58478C6.43972 5.55655 6.49476 6.23801 6.0121 6.29042C6.0121 6.29042 5.5252 6.34284 4.98327 6.37107L8.26452 15.6614L10.2375 10.0324L8.83609 6.37107C8.34919 6.34284 7.89194 6.29042 7.89194 6.29042C7.40504 6.2622 7.46431 5.55655 7.94698 5.58478C7.94698 5.58478 9.43306 5.69365 10.3179 5.69365C11.2579 5.69365 12.7185 5.58478 12.7185 5.58478C13.2054 5.55655 13.2605 6.23801 12.7778 6.29042C12.7778 6.29042 12.2909 6.34284 11.749 6.37107L15.0048 15.5928L15.9024 12.734C16.2835 11.5485 16.5798 10.6977 16.5798 9.96381ZM10.6567 11.1453L7.95544 18.6251C8.76411 18.8509 9.61512 18.9759 10.5 18.9759C11.55 18.9759 12.5534 18.8025 13.4891 18.488C13.4637 18.4517 13.4425 18.4114 13.4256 18.3711L10.6567 11.1453ZM18.4046 6.27833C18.4427 6.55252 18.4639 6.84284 18.4639 7.16139C18.4639 8.03236 18.2946 9.00817 17.778 10.234L15.026 17.8106C17.706 16.3227 19.5054 13.5606 19.5054 10.3953C19.5054 8.90333 19.1075 7.5001 18.4046 6.27833ZM21 10.3953C21 15.9114 16.2877 20.3953 10.5 20.3953C4.70806 20.3953 0 15.9074 0 10.3953C0 4.87913 4.70806 0.395264 10.5 0.395264C16.2877 0.395264 21 4.87913 21 10.3953ZM20.5173 10.3953C20.5173 5.13317 16.021 0.854941 10.5 0.854941C4.9748 0.854941 0.482661 5.13317 0.482661 10.3953C0.482661 15.6574 4.97903 19.9356 10.5 19.9356C16.0252 19.9356 20.5173 15.6574 20.5173 10.3953Z" fill="#E83C1F"/>
</svg>
